<svg width="47" height="47" viewBox="0 0 47 47" fill="none" xmlns="http://www.w3.org/2000/svg">
<g clip-path="url(#clip0_390_124)">
<path d="M47 23.5C47 17.2674 44.5241 11.2901 40.117 6.88299C35.7099 2.47589 29.7326 0 23.5 0C17.2674 0 11.2901 2.47589 6.88299 6.88299C2.47589 11.2901 0 17.2674 0 23.5C0 29.7326 2.47589 35.7099 6.88299 40.117C11.2901 44.5241 17.2674 47 23.5 47C29.7326 47 35.7099 44.5241 40.117 40.117C44.5241 35.7099 47 29.7326 47 23.5ZM23.5 38.1875V41.125H13.2188C13.1271 41.1253 13.0356 41.1342 12.9456 41.1514C11.5538 40.3177 10.2651 39.3229 9.10625 38.1875H23.5ZM23.5 35.25H6.62406C5.97509 34.3196 5.40425 33.3371 4.91738 32.3125H23.5V35.25ZM3.78937 29.375C3.50213 28.413 3.28613 27.4312 3.14313 26.4375H23.5V29.375H3.78937ZM2.9375 23.5C2.9375 22.5012 3.008 21.5231 3.14313 20.5625H23.5V23.5H2.9375ZM3.78937 17.625C4.09194 16.6116 4.46794 15.6275 4.91738 14.6875H23.5V17.625H3.78937ZM6.62406 11.75C7.35844 10.6925 8.19269 9.71138 9.10919 8.8125H23.5V11.75H6.62406ZM12.9015 5.875C16.1001 3.94713 19.7653 2.93128 23.5 2.9375V5.875H12.9015Z" fill="url(#paint0_linear_390_124)"/>
</g>
<defs>
<linearGradient id="paint0_linear_390_124" x1="23.5" y1="0" x2="23.5" y2="47" gradientUnits="userSpaceOnUse">
<stop stop-color="#FF1CF7"/>
<stop offset="1" stop-color="#00F0FF"/>
</linearGradient>
<clipPath id="clip0_390_124">
<rect width="47" height="47" fill="white"/>
</clipPath>
</defs>
</svg>
