<svg width="50" height="50" viewBox="0 0 50 50" fill="none" xmlns="http://www.w3.org/2000/svg">
<path d="M43.1396 12.1376L35.775 4.77714C35.3867 4.38821 34.8604 4.16862 34.3109 4.16628C33.7614 4.16394 33.2332 4.37903 32.8416 4.76464L14.7833 22.5417C14.5018 22.8203 14.3047 23.1727 14.2146 23.5584L12.0812 32.8021L8.33331 37.5001H14.225L16.6041 35.148L24.0791 33.423C24.4541 33.3355 24.7979 33.1459 25.0729 32.8771L43.1291 15.0959C43.3251 14.9029 43.4809 14.673 43.5876 14.4195C43.6942 14.166 43.7496 13.8939 43.7506 13.6189C43.7516 13.3439 43.6981 13.0714 43.5932 12.8171C43.4883 12.5629 43.3342 12.3319 43.1396 12.1376ZM23.6208 28.4563L19.2021 24.0396L34.2916 9.18339L38.7083 13.6001L23.6208 28.4563ZM8.33331 41.6667H41.6666V45.8334H8.33331V41.6667Z" fill="url(#paint0_linear_390_121)"/>
<defs>
<linearGradient id="paint0_linear_390_121" x1="26.042" y1="4.16626" x2="26.042" y2="45.8334" gradientUnits="userSpaceOnUse">
<stop stop-color="#FF1CF7"/>
<stop offset="1" stop-color="#00F0FF"/>
</linearGradient>
</defs>
</svg>
