<svg width="72" height="72" viewBox="0 0 72 72" fill="none" xmlns="http://www.w3.org/2000/svg">
<path d="M36 18L39.2175 21.1342L26.6625 33.75H54V38.25H26.6625L39.2175 50.7892L36 54L18 36L36 18Z" fill="white"/>
<path d="M36 67.5C42.2301 67.5 48.3203 65.6526 53.5004 62.1913C58.6806 58.73 62.718 53.8104 65.1022 48.0545C67.4864 42.2987 68.1102 35.9651 66.8947 29.8547C65.6793 23.7443 62.6792 18.1315 58.2739 13.7261C53.8685 9.32078 48.2557 6.3207 42.1453 5.10526C36.0349 3.88983 29.7013 4.51363 23.9455 6.89779C18.1896 9.28195 13.27 13.3194 9.80869 18.4995C6.34743 23.6797 4.49999 29.7699 4.49999 36C4.50951 44.3514 7.83132 52.358 13.7366 58.2633C19.642 64.1687 27.6486 67.4905 36 67.5ZM36 9C41.3401 9 46.5603 10.5835 51.0004 13.5503C55.4405 16.5171 58.9012 20.7339 60.9447 25.6675C62.9883 30.6012 63.523 36.0299 62.4812 41.2674C61.4394 46.5049 58.8679 51.3159 55.0919 55.0919C51.3159 58.8679 46.5049 61.4394 41.2674 62.4812C36.0299 63.523 30.6011 62.9883 25.6675 60.9447C20.7339 58.9012 16.5171 55.4405 13.5503 51.0004C10.5835 46.5603 8.99999 41.3401 8.99999 36C9.00832 28.8417 11.8556 21.979 16.9173 16.9173C21.979 11.8556 28.8417 9.00834 36 9Z" fill="white"/>
</svg>
