<svg width="72" height="72" viewBox="0 0 72 72" fill="none" xmlns="http://www.w3.org/2000/svg">
<path d="M36 18L32.7825 21.1342L45.3375 33.75H18V38.25H45.3375L32.7825 50.7892L36 54L54 36L36 18Z" fill="white"/>
<path d="M36 67.5C29.7699 67.5 23.6797 65.6526 18.4996 62.1913C13.3194 58.73 9.28197 53.8104 6.89781 48.0545C4.51365 42.2987 3.88984 35.9651 5.10528 29.8547C6.32071 23.7443 9.3208 18.1315 13.7261 13.7261C18.1315 9.32078 23.7443 6.3207 29.8547 5.10526C35.9651 3.88983 42.2987 4.51363 48.0545 6.89779C53.8104 9.28195 58.73 13.3194 62.1913 18.4995C65.6526 23.6797 67.5 29.7699 67.5 36C67.4905 44.3514 64.1687 52.358 58.2634 58.2633C52.358 64.1687 44.3514 67.4905 36 67.5ZM36 9C30.6599 9 25.4397 10.5835 20.9996 13.5503C16.5595 16.5171 13.0988 20.7339 11.0553 25.6675C9.0117 30.6012 8.47701 36.0299 9.51881 41.2674C10.5606 46.5049 13.1321 51.3159 16.9081 55.0919C20.6841 58.8679 25.4951 61.4394 30.7326 62.4812C35.9701 63.523 41.3989 62.9883 46.3325 60.9447C51.2661 58.9012 55.4829 55.4405 58.4497 51.0004C61.4165 46.5603 63 41.3401 63 36C62.9917 28.8417 60.1444 21.979 55.0827 16.9173C50.021 11.8556 43.1583 9.00834 36 9Z" fill="white"/>
</svg>
