<svg width="47" height="47" viewBox="0 0 47 47" fill="none" xmlns="http://www.w3.org/2000/svg">
<path d="M44.0625 44.0625H5.875C5.09617 44.0617 4.34945 43.752 3.79873 43.2013C3.24801 42.6505 2.93828 41.9038 2.9375 41.125V2.9375H5.875V41.125H44.0625V44.0625Z" fill="url(#paint0_linear_390_127)"/>
<path d="M13.2188 13.2188C15.6523 13.2188 17.625 11.246 17.625 8.8125C17.625 6.379 15.6523 4.40625 13.2188 4.40625C10.7852 4.40625 8.8125 6.379 8.8125 8.8125C8.8125 11.246 10.7852 13.2188 13.2188 13.2188Z" fill="url(#paint1_linear_390_127)"/>
<path d="M13.2188 36.7188C15.6523 36.7188 17.625 34.746 17.625 32.3125C17.625 29.879 15.6523 27.9062 13.2188 27.9062C10.7852 27.9062 8.8125 29.879 8.8125 32.3125C8.8125 34.746 10.7852 36.7188 13.2188 36.7188Z" fill="url(#paint2_linear_390_127)"/>
<path d="M26.4375 24.9688C28.871 24.9688 30.8438 22.996 30.8438 20.5625C30.8438 18.129 28.871 16.1562 26.4375 16.1562C24.004 16.1562 22.0312 18.129 22.0312 20.5625C22.0312 22.996 24.004 24.9688 26.4375 24.9688Z" fill="url(#paint3_linear_390_127)"/>
<path d="M13.2188 24.9688C12.3473 24.9688 11.4954 24.7103 10.7708 24.2262C10.0462 23.742 9.48141 23.0538 9.14791 22.2487C8.81441 21.4436 8.72715 20.5576 8.89717 19.7029C9.06718 18.8482 9.48684 18.063 10.1031 17.4468C10.7193 16.8306 11.5044 16.4109 12.3591 16.2409C13.2139 16.0709 14.0998 16.1582 14.9049 16.4917C15.7101 16.8252 16.3982 17.3899 16.8824 18.1145C17.3666 18.8391 17.625 19.691 17.625 20.5625C17.6238 21.7308 17.1592 22.8508 16.3332 23.6769C15.5071 24.503 14.387 24.9676 13.2188 24.9688ZM13.2188 19.0938C12.9283 19.0938 12.6443 19.1799 12.4028 19.3413C12.1612 19.5027 11.973 19.7321 11.8618 20.0004C11.7506 20.2688 11.7216 20.5641 11.7782 20.849C11.8349 21.134 11.9748 21.3957 12.1802 21.6011C12.3856 21.8065 12.6473 21.9464 12.9322 22.003C13.2171 22.0597 13.5124 22.0306 13.7808 21.9195C14.0492 21.8083 14.2786 21.62 14.44 21.3785C14.6014 21.137 14.6875 20.853 14.6875 20.5625C14.6871 20.1731 14.5322 19.7997 14.2569 19.5244C13.9815 19.249 13.6082 19.0941 13.2188 19.0938Z" fill="url(#paint4_linear_390_127)"/>
<path d="M39.6562 13.2188C42.0898 13.2188 44.0625 11.246 44.0625 8.8125C44.0625 6.379 42.0898 4.40625 39.6562 4.40625C37.2227 4.40625 35.25 6.379 35.25 8.8125C35.25 11.246 37.2227 13.2188 39.6562 13.2188Z" fill="url(#paint5_linear_390_127)"/>
<path d="M39.6562 36.7188C42.0898 36.7188 44.0625 34.746 44.0625 32.3125C44.0625 29.879 42.0898 27.9062 39.6562 27.9062C37.2227 27.9062 35.25 29.879 35.25 32.3125C35.25 34.746 37.2227 36.7188 39.6562 36.7188Z" fill="url(#paint6_linear_390_127)"/>
<path d="M39.6563 24.9688C38.7848 24.9688 37.9329 24.7103 37.2083 24.2262C36.4837 23.742 35.9189 23.0538 35.5854 22.2487C35.2519 21.4436 35.1647 20.5576 35.3347 19.7029C35.5047 18.8482 35.9243 18.063 36.5406 17.4468C37.1568 16.8306 37.9419 16.4109 38.7966 16.2409C39.6514 16.0709 40.5373 16.1582 41.3425 16.4917C42.1476 16.8252 42.8358 17.3899 43.3199 18.1145C43.8041 18.8391 44.0625 19.691 44.0625 20.5625C44.0613 21.7308 43.5967 22.8508 42.7707 23.6769C41.9446 24.503 40.8245 24.9676 39.6563 24.9688ZM39.6563 19.0938C39.3658 19.0938 39.0818 19.1799 38.8403 19.3413C38.5987 19.5027 38.4105 19.7321 38.2993 20.0004C38.1881 20.2688 38.1591 20.5641 38.2157 20.849C38.2724 21.1339 38.4123 21.3957 38.6177 21.6011C38.8231 21.8065 39.0848 21.9464 39.3697 22.003C39.6546 22.0597 39.9499 22.0306 40.2183 21.9194C40.4867 21.8083 40.7161 21.62 40.8775 21.3785C41.0389 21.137 41.125 20.853 41.125 20.5625C41.1246 20.1731 40.9697 19.7997 40.6944 19.5244C40.419 19.249 40.0457 19.0941 39.6563 19.0938ZM26.4375 38.1875C25.566 38.1875 24.7141 37.9291 23.9895 37.4449C23.2649 36.9608 22.7002 36.2726 22.3667 35.4675C22.0332 34.6623 21.9459 33.7764 22.1159 32.9216C22.2859 32.0669 22.7056 31.2818 23.3218 30.6656C23.938 30.0493 24.7232 29.6297 25.5779 29.4597C26.4326 29.2897 27.3186 29.3769 28.1237 29.7104C28.9288 30.0439 29.617 30.6087 30.1012 31.3333C30.5853 32.0579 30.8438 32.9098 30.8438 33.7813C30.8426 34.9495 30.378 36.0696 29.5519 36.8957C28.7258 37.7217 27.6058 38.1863 26.4375 38.1875ZM26.4375 32.3125C26.147 32.3125 25.863 32.3986 25.6215 32.56C25.38 32.7214 25.1917 32.9508 25.0806 33.2192C24.9694 33.4876 24.9403 33.7829 24.997 34.0678C25.0536 34.3527 25.1935 34.6144 25.3989 34.8198C25.6043 35.0252 25.8661 35.1651 26.151 35.2218C26.4359 35.2785 26.7312 35.2494 26.9996 35.1382C27.2679 35.027 27.4973 34.8388 27.6587 34.5972C27.8201 34.3557 27.9063 34.0717 27.9063 33.7813C27.9059 33.3918 27.751 33.0185 27.4756 32.7431C27.2003 32.4678 26.8269 32.3129 26.4375 32.3125ZM26.4375 11.75C25.566 11.75 24.7141 11.4916 23.9895 11.0074C23.2649 10.5232 22.7002 9.83509 22.3667 9.02995C22.0332 8.22481 21.9459 7.33886 22.1159 6.48414C22.2859 5.62941 22.7056 4.84429 23.3218 4.22806C23.938 3.61184 24.7232 3.19218 25.5779 3.02217C26.4326 2.85215 27.3186 2.93941 28.1237 3.27291C28.9288 3.60641 29.617 4.17117 30.1012 4.89577C30.5853 5.62037 30.8438 6.47228 30.8438 7.34375C30.8426 8.512 30.378 9.63207 29.5519 10.4582C28.7258 11.2842 27.6058 11.7488 26.4375 11.75ZM26.4375 5.875C26.147 5.875 25.863 5.96114 25.6215 6.12253C25.38 6.28392 25.1917 6.51331 25.0806 6.78169C24.9694 7.05007 24.9403 7.34538 24.997 7.63029C25.0536 7.9152 25.1935 8.17691 25.3989 8.38231C25.6043 8.58772 25.8661 8.72761 26.151 8.78428C26.4359 8.84095 26.7312 8.81187 26.9996 8.7007C27.2679 8.58953 27.4973 8.40128 27.6587 8.15975C27.8201 7.91821 27.9063 7.63424 27.9063 7.34375C27.9059 6.95433 27.751 6.58098 27.4756 6.30562C27.2003 6.03026 26.8269 5.87539 26.4375 5.875Z" fill="url(#paint7_linear_390_127)"/>
<defs>
<linearGradient id="paint0_linear_390_127" x1="23.5" y1="2.9375" x2="23.5" y2="44.0625" gradientUnits="userSpaceOnUse">
<stop stop-color="#FF1CF7"/>
<stop offset="1" stop-color="#00F0FF"/>
</linearGradient>
<linearGradient id="paint1_linear_390_127" x1="13.2188" y1="4.40625" x2="13.2188" y2="13.2188" gradientUnits="userSpaceOnUse">
<stop stop-color="#FF1CF7"/>
<stop offset="1" stop-color="#00F0FF"/>
</linearGradient>
<linearGradient id="paint2_linear_390_127" x1="13.2188" y1="27.9062" x2="13.2188" y2="36.7188" gradientUnits="userSpaceOnUse">
<stop stop-color="#FF1CF7"/>
<stop offset="1" stop-color="#00F0FF"/>
</linearGradient>
<linearGradient id="paint3_linear_390_127" x1="26.4375" y1="16.1562" x2="26.4375" y2="24.9688" gradientUnits="userSpaceOnUse">
<stop stop-color="#FF1CF7"/>
<stop offset="1" stop-color="#00F0FF"/>
</linearGradient>
<linearGradient id="paint4_linear_390_127" x1="13.2188" y1="16.1562" x2="13.2188" y2="24.9688" gradientUnits="userSpaceOnUse">
<stop stop-color="#FF1CF7"/>
<stop offset="1" stop-color="#00F0FF"/>
</linearGradient>
<linearGradient id="paint5_linear_390_127" x1="39.6562" y1="4.40625" x2="39.6562" y2="13.2188" gradientUnits="userSpaceOnUse">
<stop stop-color="#FF1CF7"/>
<stop offset="1" stop-color="#00F0FF"/>
</linearGradient>
<linearGradient id="paint6_linear_390_127" x1="39.6562" y1="27.9062" x2="39.6562" y2="36.7188" gradientUnits="userSpaceOnUse">
<stop stop-color="#FF1CF7"/>
<stop offset="1" stop-color="#00F0FF"/>
</linearGradient>
<linearGradient id="paint7_linear_390_127" x1="33.0469" y1="2.9375" x2="33.0469" y2="38.1875" gradientUnits="userSpaceOnUse">
<stop stop-color="#FF1CF7"/>
<stop offset="1" stop-color="#00F0FF"/>
</linearGradient>
</defs>
</svg>
