<svg width="147" height="283" viewBox="0 0 147 283" fill="none" xmlns="http://www.w3.org/2000/svg">
<path d="M50.2516 277.905V269.239L34.7138 269.127L34.582 282.233L35.5449 282.304C39.8322 282.577 57.3566 282.983 60.2351 282.091C63.4379 281.098 50.2516 277.905 50.2516 277.905Z" fill="#AF4C4C"/>
<path d="M60.6001 281.28C60.6001 281.422 54.7823 281.544 47.6165 281.544C40.4507 281.544 34.6329 281.422 34.6329 281.28C34.6329 281.138 40.4507 281.017 47.6165 281.017C54.7823 281.017 60.6001 281.138 60.6001 281.28Z" fill="#263238"/>
<path d="M50.5254 279.679C50.3936 279.608 50.5254 279.152 50.8396 278.665C51.1538 278.179 51.5795 277.976 51.6808 278.077C51.7822 278.179 51.5693 278.564 51.2653 278.979C50.9612 279.395 50.6571 279.75 50.5254 279.679Z" fill="#263238"/>
<path d="M51.5187 280.246C51.3768 280.246 51.4478 279.679 51.7518 279.141C52.0559 278.604 52.4613 278.28 52.5728 278.361C52.6843 278.442 52.5018 278.898 52.2181 279.375C51.9343 279.851 51.6505 280.297 51.5187 280.246Z" fill="#263238"/>
<path d="M39.3155 281.24C39.2547 281.24 39.0216 281.057 38.6871 280.672C38.2788 280.177 37.824 279.722 37.329 279.314C36.8421 278.925 36.2622 278.67 35.6465 278.574C35.1701 278.513 34.866 278.574 34.8356 278.513C34.8052 278.452 35.0992 278.239 35.6566 278.199C36.3923 278.183 37.11 278.427 37.6837 278.888C38.2213 279.326 38.6746 279.859 39.0216 280.459C39.2547 280.905 39.3764 281.199 39.3155 281.24Z" fill="#263238"/>
<path d="M50.5761 278.047C50.6471 278.168 50.3835 278.472 49.9376 278.634C49.4916 278.797 49.0963 278.736 49.0761 278.634C49.0558 278.533 49.37 278.32 49.7551 278.178C50.1403 278.036 50.495 277.925 50.5761 278.047Z" fill="#263238"/>
<path d="M50.3328 277.206C50.3328 277.358 49.9273 277.479 49.4003 277.489C48.8733 277.5 48.4577 277.378 48.4678 277.236C48.478 277.094 48.8935 276.962 49.4003 276.952C49.9071 276.942 50.3125 277.064 50.3328 277.206Z" fill="#263238"/>
<path d="M88.5133 277.905V269.239L72.9755 269.127L72.8438 282.101L73.8066 282.172C78.094 282.446 95.6284 282.983 98.4968 282.091C101.7 281.098 88.5133 277.905 88.5133 277.905Z" fill="#AF4C4C"/>
<path d="M98.8616 281.3C98.8616 281.442 93.054 281.564 85.878 281.564C78.7021 281.564 72.9045 281.442 72.9045 281.3C72.9045 281.158 78.7122 281.037 85.878 281.037C93.0438 281.037 98.8616 281.158 98.8616 281.3Z" fill="#263238"/>
<path d="M88.7869 279.679C88.6652 279.608 88.7868 279.152 89.1011 278.665C89.4153 278.179 89.8409 277.976 89.9423 278.077C90.0437 278.179 89.8308 278.564 89.5267 278.979C89.2227 279.395 88.9186 279.75 88.7869 279.679Z" fill="#263238"/>
<path d="M89.7802 280.246C89.6484 280.246 89.7093 279.679 90.0235 279.141C90.3377 278.604 90.7329 278.28 90.8444 278.361C90.9559 278.442 90.7633 278.898 90.4796 279.375C90.1958 279.851 89.9221 280.297 89.7802 280.246Z" fill="#263238"/>
<path d="M77.5771 281.24C77.5163 281.24 77.2934 281.057 76.9487 280.672C76.5404 280.177 76.0856 279.722 75.5906 279.314C75.1037 278.925 74.5238 278.67 73.9081 278.574C73.4418 278.513 73.1276 278.574 73.0972 278.513C73.0668 278.452 73.3608 278.239 73.9182 278.199C74.6539 278.183 75.3716 278.427 75.9453 278.888C76.4857 279.323 76.9395 279.856 77.2832 280.459C77.5163 280.905 77.638 281.199 77.5771 281.24Z" fill="#263238"/>
<path d="M88.8377 278.047C88.9087 278.168 88.6451 278.472 88.1992 278.634C87.7532 278.797 87.3579 278.736 87.3377 278.634C87.3174 278.533 87.6316 278.32 88.0167 278.178C88.4019 278.036 88.7566 277.925 88.8377 278.047Z" fill="#263238"/>
<path d="M88.6146 277.206C88.6146 277.358 88.2092 277.479 87.6822 277.489C87.1551 277.5 86.7497 277.378 86.7598 277.236C86.77 277.094 87.1754 276.962 87.6822 276.952C88.1889 276.942 88.6146 277.064 88.6146 277.206Z" fill="#263238"/>
<path d="M145.759 20.5638C145.353 20.1483 144.35 20.351 144.35 20.351C144.451 19.7674 144.451 19.1709 144.35 18.5874C144.167 18.0198 142.89 18.1313 142.89 18.1313C142.832 17.6533 142.832 17.17 142.89 16.692C142.901 16.5861 142.878 16.4796 142.825 16.3871C142.773 16.2946 142.693 16.2205 142.596 16.1751C141.992 15.9288 141.343 15.8114 140.691 15.8305C139.911 15.2731 143.073 10.8438 144.249 9.42486C145.424 8.00589 145.211 6.90112 144.167 6.90112C143.448 6.90112 139.758 11.158 138.623 12.5872C137.488 14.0163 134.478 17.9894 134.377 14.817C134.275 11.6445 132.998 9.25256 132.197 8.84714C131.397 8.44172 130.545 9.39445 130.981 10.2762C131.364 11.278 131.603 12.3291 131.691 13.398C131.801 14.2494 131.763 15.1135 131.579 15.9521C131.243 17.5126 130.786 19.0443 130.211 20.5334H130.13C130.13 20.5334 108.014 41.7471 106.413 43.2573C104.983 44.6154 76.2391 41.6457 70.472 41.0376C68.5123 40.7508 66.5334 40.6153 64.5528 40.6322C62.0494 40.7437 61.6034 41.0984 59.1101 41.1288C52.8133 41.1987 46.5312 41.751 40.3188 42.7809C37.5058 43.2591 34.8782 44.5008 32.7227 46.3703C30.5672 48.2399 28.9665 50.6656 28.0953 53.3827C22.2877 71.5253 9.13177 114.47 6.81073 138.592C5.05684 141.773 3.47346 145.044 2.06731 148.393C0.43549 152.832 0.830776 152.985 1.37809 153.086C2.85788 153.36 4.54038 145.393 5.16878 147.319C5.79718 149.245 1.97609 156.816 3.52683 157.039C5.55394 157.323 7.16548 148.93 7.35806 148.261C7.55063 147.592 8.55405 147.805 8.37161 148.434C8.07768 149.326 5.2296 158.782 7.21616 159.086C8.3108 159.248 8.43242 157.252 8.43242 157.252C8.43242 157.252 10.4595 148.201 11.3819 148.383C12.3042 148.565 11.321 153.907 10.8548 155.691C10.3886 157.475 11.0372 158.377 11.99 157.941C12.6387 157.637 14.1894 152.214 14.6151 150.451C15.0408 148.687 16.105 143.802 17.5341 146.63C18.9632 149.457 21.1322 151.099 22.0242 151.14C22.2252 151.117 22.4146 151.034 22.5681 150.902C22.7217 150.77 22.8323 150.596 22.8857 150.401C22.9391 150.205 22.9329 149.999 22.8679 149.807C22.8028 149.616 22.682 149.448 22.5208 149.326C21.7536 148.576 21.0952 147.724 20.5647 146.792C20.0918 146.066 19.7489 145.263 19.5511 144.42C19.1427 142.739 18.905 141.02 18.8416 139.291L18.6794 138.278C20.9498 127.038 27.4872 94.0464 36.9234 72.9746L40.7952 80.9412L42.4777 86.84L32.1597 112.311L76.1682 111.733L69.6004 86.4549L77.577 60.1025C86.2023 60.2951 108.348 60.6194 112.038 58.9471C116.68 56.92 140.691 26.5945 140.691 26.5945C142.256 25.3783 143.755 24.0791 145.181 22.7024C145.181 22.7024 146.641 21.476 145.759 20.5638Z" fill="#FFBE9D"/>
<path d="M30.2239 93.4889C31.501 89.1306 38.0587 67.5825 38.0587 67.5825C38.0587 67.5825 41.2818 85.1474 40.4304 87.2657C39.6473 89.0792 38.722 90.8279 37.6634 92.4956C30.2239 103.817 31.197 109.483 31.197 109.483L76.148 108.114C76.2494 101.83 72.5296 87.215 71.7593 84.8838C70.989 82.5527 73.5533 74.9206 73.5533 74.9206C73.5533 74.9206 78.6211 69.7616 78.4387 67.1061C78.3424 64.7208 78.0474 62.3476 77.5569 60.0113L104.923 61.0248L104.061 42.4768L64.7557 38.5442C63.3874 42.4058 51.0119 40.5105 51.0119 40.5105C37.6533 40.9564 36.8222 43.4093 31.2679 47.727C25.7136 52.0447 16.5207 89.1002 16.5207 89.1002L30.2239 93.4889Z" fill="#4CAF7A"/>
<path d="M56.7994 89.1003C56.0204 89.2395 55.227 89.2804 54.4378 89.2219C52.9681 89.2219 50.9511 89.1206 48.7315 88.8976C46.5118 88.6746 44.505 88.3604 43.0759 88.0766C42.2878 87.9751 41.5152 87.7777 40.7751 87.4888C41.5675 87.4891 42.3582 87.5637 43.1367 87.7118C44.5759 87.8942 46.5726 88.1476 48.7821 88.3706C50.9917 88.5935 52.9985 88.7456 54.4479 88.8469C55.238 88.8569 56.0253 88.9418 56.7994 89.1003Z" fill="#263238"/>
<path d="M59.8804 85.2793C59.1012 85.661 58.2771 85.9437 57.4276 86.1205C53.3839 87.1831 49.212 87.6777 45.0319 87.5902C44.1669 87.6184 43.3019 87.5366 42.4575 87.3469C43.3111 87.2391 44.1717 87.1951 45.0319 87.2152C46.6232 87.1645 48.8124 87.053 51.2247 86.7692C53.6369 86.4854 55.7857 86.08 57.306 85.7557C58.1504 85.5302 59.0112 85.3709 59.8804 85.2793Z" fill="#263238"/>
<path d="M75.0027 68.2312C74.9822 69.0039 74.8768 69.7721 74.6884 70.5218C74.4249 71.9307 74.0195 73.8564 73.5026 75.9646C72.9857 78.0728 72.489 80.0188 72.0431 81.3364C71.8638 82.0907 71.5985 82.8218 71.2525 83.5156C71.309 82.7452 71.4518 81.9837 71.6782 81.2452C72.0633 79.6641 72.4992 77.8397 72.9857 75.843C73.4722 73.8463 73.9384 72.0219 74.3236 70.4407C74.4608 69.6797 74.6888 68.9379 75.0027 68.2312Z" fill="#263238"/>
<path d="M30.7003 90.9046C28.3554 90.5425 26.0413 90.0038 23.7777 89.293C21.4646 88.7522 19.1948 88.0407 16.9869 87.1646C19.3305 87.5325 21.6442 88.0712 23.9094 88.7761C26.223 89.315 28.493 90.0265 30.7003 90.9046Z" fill="#263238"/>
<path d="M78.0433 59.7885C77.661 59.8543 77.2702 59.8543 76.8878 59.7885C75.8292 59.6799 74.7896 59.4311 73.7965 59.0486C72.1385 58.4255 70.6291 57.4625 69.3653 56.2215C68.1015 54.9804 67.1114 53.4887 66.4584 51.8422C65.7366 50.031 65.4285 48.0814 65.5563 46.1359C65.6015 44.5312 66.0814 42.9688 66.9449 41.6155C67.5522 40.7037 68.4594 40.0332 69.5092 39.7201C69.7897 39.6427 70.0797 39.6052 70.3707 39.6086C70.5734 39.6086 70.6748 39.6086 70.6748 39.6086C70.6748 39.6086 70.2491 39.6086 69.57 39.8823C68.6069 40.2381 67.7901 40.9051 67.249 41.7776C65.8705 43.9466 65.4854 47.9096 66.955 51.6091C67.639 53.3534 68.7099 54.9198 70.0869 56.1903C71.2152 57.23 72.5148 58.0667 73.9283 58.6634C75.2547 59.1876 76.6347 59.5649 78.0433 59.7885Z" fill="#263238"/>
<path d="M101.669 60.66C101.416 57.5519 101.335 54.4321 101.426 51.315C101.347 48.2006 101.441 45.0841 101.71 41.9802C101.964 45.0849 102.045 48.2013 101.953 51.315C102.038 54.4329 101.944 57.5531 101.669 60.66Z" fill="#263238"/>
<path d="M64.4922 39.6796C64.6037 37.4193 64.8368 34.8652 64.8368 34.8652C64.8368 34.8652 70.4316 34.2469 70.7661 28.4697C71.1006 22.6924 70.7661 9.36419 70.7661 9.36419L60.6306 4.1748L49.3801 13.0231L51.1133 41.9094L61.4313 42.5682C62.22 42.59 62.9851 42.2982 63.5589 41.7567C64.1327 41.2152 64.4684 40.4682 64.4922 39.6796Z" fill="#FFBE9D"/>
<path d="M65.4955 23.8985C65.4955 23.8985 65.4955 24.01 65.4043 24.1418C65.3289 24.2373 65.2313 24.3131 65.1201 24.3626C65.0088 24.412 64.8872 24.4336 64.7658 24.4256C64.1171 24.4256 63.4887 23.6755 63.2657 22.8039C63.1597 22.3813 63.1597 21.9392 63.2657 21.5167C63.2865 21.3322 63.353 21.1559 63.4592 21.0037C63.5654 20.8515 63.7079 20.7282 63.8738 20.645C64.0101 20.5887 64.1632 20.5887 64.2995 20.645C64.4006 20.6952 64.4825 20.7771 64.5326 20.8781C64.6036 21.0504 64.5326 21.1619 64.5326 21.1518C64.5326 21.1417 64.5326 21.0504 64.4313 20.9491C64.3783 20.8765 64.3004 20.826 64.2125 20.8073C64.1246 20.7886 64.0329 20.803 63.9549 20.8477C63.8306 20.9229 63.7273 21.0283 63.6546 21.1541C63.582 21.2799 63.5423 21.4221 63.5394 21.5673C63.454 21.9443 63.454 22.3357 63.5394 22.7127C63.7421 23.5032 64.2894 24.1418 64.7759 24.2026C64.8711 24.2155 64.9679 24.2087 65.0603 24.1825C65.1527 24.1563 65.2388 24.1114 65.3131 24.0506C65.4347 23.9695 65.4752 23.8884 65.4955 23.8985Z" fill="#EB996E"/>
<path d="M74.2425 6.24232C73.462 3.58681 70.6342 2.2692 68.0598 1.53944C64.1374 0.424529 59.9007 -0.0619786 56.0695 1.34686C52.2382 2.7557 47.6367 5.22877 47.6367 9.45529C45.3765 9.27285 44.0791 11.2493 43.1872 13.7021C42.617 15.1964 42.2753 16.7682 42.1737 18.3644C41.8899 23.8984 40.3391 31.5406 36.7512 35.5948C34.724 37.8551 31.9165 39.4159 30.761 42.2336C29.7475 44.6763 30.2745 47.575 29.3319 50.0481C28.4907 52.2272 26.6359 53.778 25.2777 55.6733C23.894 57.8234 23.0797 60.2901 22.9113 62.8414C22.7429 65.3927 23.2258 67.945 24.3149 70.2583C25.4117 72.5124 26.9559 74.5195 28.8535 76.1575C30.7511 77.7955 32.9623 79.03 35.3524 79.7857C40.0868 81.2261 45.1354 81.2754 49.8969 79.9276C53.4705 79.0732 56.804 77.4202 59.6473 75.093C62.5566 72.7173 64.5547 69.4085 65.3029 65.7278C66.0226 61.5925 64.8671 57.3862 64.0056 53.2712C61.3095 40.2673 62.0798 39.5882 65.4854 27.5168C65.5665 27.304 65.607 27.081 65.6678 26.8681C65.7286 26.6553 65.759 26.5539 65.7996 26.3918C65.8963 25.9146 65.9472 25.4292 65.9516 24.9424C65.4542 25.1274 64.9143 25.1665 64.3954 25.0552C63.8765 24.9438 63.4002 24.6867 63.0224 24.314C62.6438 23.9166 62.3798 23.4241 62.2585 22.8887C62.1371 22.3534 62.163 21.7952 62.3332 21.2733C62.5724 20.7026 62.9287 20.1884 63.3792 19.7642C63.8296 19.3399 64.3642 19.015 64.9482 18.8104C66.0732 18.3442 67.2794 18.1009 68.3841 17.584C70.7254 16.4691 72.3471 14.1582 73.4519 11.7358C74.3602 10.0569 74.6405 8.10923 74.2425 6.24232Z" fill="#263238"/>
<path d="M65.9009 24.1721C66.1151 24.4885 66.292 24.8286 66.428 25.1857C66.7321 25.8242 67.1375 26.7263 67.5834 27.7702L67.6645 27.9628H67.4517L66.4381 28.054C65.7388 28.054 65.1509 28.1858 64.4617 28.1757C64.4017 28.1622 64.3461 28.1337 64.3 28.093C64.2539 28.0522 64.2189 28.0005 64.1982 27.9425C64.168 27.8503 64.168 27.7509 64.1982 27.6587C64.2216 27.5221 64.2521 27.3868 64.2894 27.2533L64.4718 26.5337C64.5635 26.0536 64.7062 25.5847 64.8975 25.135C64.8787 25.6243 64.8073 26.1103 64.6847 26.5844L64.5428 27.304C64.4921 27.5472 64.4009 27.9223 64.5428 27.8919C65.0496 27.8919 65.7692 27.7804 66.4381 27.7398L67.4517 27.6486L67.3199 27.8716C66.8841 26.858 66.5192 25.9053 66.3064 25.2465C66.1196 24.91 65.9831 24.5481 65.9009 24.1721Z" fill="#AF4C4C"/>
<path d="M31.197 109.483L76.1481 108.115L95.7097 184.476L92.1116 272.067H68.3437L71.2526 186.341L53.8702 133.18L56.546 275.462L32.5248 275.817L30.001 142.079C29.8895 138.359 28.6733 129.977 29.1294 126.288L31.197 109.483Z" fill="#263238"/>
<path d="M59.8501 134.264C59.1144 134.31 58.3757 134.266 57.6507 134.132C56.2926 133.97 54.4378 133.686 52.4005 133.281C50.3633 132.876 48.5389 132.409 47.2213 132.034C46.5169 131.879 45.8356 131.634 45.1942 131.305C45.1942 131.153 48.4983 131.943 52.5525 132.764C56.6068 133.585 59.8704 134.112 59.8501 134.264Z" fill="#455A64"/>
<path d="M91.868 267.263C91.868 267.404 86.4861 267.526 79.8473 267.526C73.2085 267.526 67.8164 267.404 67.8164 267.263C67.8164 267.121 73.1984 266.999 79.8473 266.999C86.4962 266.999 91.868 267.111 91.868 267.263Z" fill="#455A64"/>
<path d="M56.333 271.763C56.333 271.915 51.1031 272.026 44.6569 272.026C38.2107 272.026 32.9909 271.915 32.9909 271.763C32.9909 271.611 38.2208 271.499 44.6569 271.499C51.093 271.499 56.333 271.621 56.333 271.763Z" fill="#455A64"/>
<path d="M53.2316 271.398C53.0897 271.398 52.4613 240.312 51.8227 201.969C51.1842 163.627 50.8092 132.521 50.9409 132.521C51.0727 132.521 51.7214 163.596 52.3498 201.959C52.9782 240.322 53.3836 271.398 53.2316 271.398Z" fill="#455A64"/>
<path d="M88.6755 267.263C88.6643 267.124 88.6643 266.985 88.6755 266.847V265.631C88.6755 264.536 88.7565 262.965 88.8174 260.969C88.9592 256.914 89.162 251.026 89.4153 243.809C89.9627 229.295 90.733 209.287 91.5742 187.202C91.5742 186.989 91.5742 186.787 91.5742 186.604V186.675C86.2531 165.39 81.4387 146.072 77.9419 132.095L73.8877 115.564C73.4215 113.628 73.0667 112.118 72.8134 111.064C72.6917 110.567 72.6106 110.182 72.5397 109.888C72.5002 109.756 72.4764 109.62 72.4688 109.483C72.5214 109.611 72.5621 109.743 72.5904 109.878C72.6715 110.162 72.7728 110.547 72.9147 111.034C73.1884 112.047 73.5836 113.588 74.0904 115.514C75.104 119.426 76.5331 125.061 78.3169 132.004C81.8441 145.971 86.7092 165.238 92.1013 186.553V186.624C92.1013 186.807 92.1013 187.02 92.1013 187.222C91.1992 209.308 90.3782 229.305 89.7802 243.819C89.466 251.046 89.2025 256.894 89.0201 260.969C88.9187 262.996 88.8376 264.536 88.7869 265.631C88.7869 266.148 88.7261 266.553 88.716 266.847C88.7175 266.987 88.7039 267.126 88.6755 267.263Z" fill="#455A64"/>
<path d="M80.9219 184.82C79.2147 185.382 77.456 185.772 75.6717 185.986C73.4824 186.361 71.6175 186.624 70.7762 186.665V186.462C71.0499 186.543 71.1918 186.594 71.1918 186.635C71.1918 186.675 71.0195 186.635 70.7357 186.635H70.1276L70.7357 186.452C71.5263 186.219 73.3912 185.834 75.5805 185.439C77.3363 185.058 79.1255 184.851 80.9219 184.82Z" fill="#455A64"/>
<path d="M80.5064 187.729C78.9254 187.801 77.3412 187.73 75.7731 187.516C74.1899 187.484 72.6127 187.311 71.0601 186.999C74.2276 186.741 77.4161 186.987 80.5064 187.729Z" fill="#455A64"/>
<path opacity="0.2" d="M31.0043 111.094C31.5366 111.778 32.2072 112.342 32.9721 112.749C33.7371 113.155 34.5792 113.396 35.4436 113.456C37.254 113.67 39.0853 113.636 40.8864 113.355C52.4916 112.067 64.786 110.882 76.1479 108.115C61.4413 108.935 45.9035 108.662 31.1969 109.483L31.0448 110.74" fill="black"/>
<g opacity="0.2">
<path d="M46.157 131.822L54.4479 163.992L53.8702 133.18L46.157 131.822Z" fill="black"/>
</g>
</svg>
