<svg width="36" height="36" viewBox="0 0 36 36" fill="none" xmlns="http://www.w3.org/2000/svg">
<path d="M29.25 18C29.25 17.7016 29.3685 17.4155 29.5795 17.2045C29.7905 16.9935 30.0766 16.875 30.375 16.875C30.6734 16.875 30.9595 16.9935 31.1705 17.2045C31.3815 17.4155 31.5 17.7016 31.5 18V30.375C31.5 30.6734 31.3815 30.9595 31.1705 31.1705C30.9595 31.3815 30.6734 31.5 30.375 31.5H5.625C5.32663 31.5 5.04048 31.3815 4.82951 31.1705C4.61853 30.9595 4.5 30.6734 4.5 30.375V5.625C4.5 5.32663 4.61853 5.04048 4.82951 4.82951C5.04048 4.61853 5.32663 4.5 5.625 4.5H18C18.2984 4.5 18.5845 4.61853 18.7955 4.82951C19.0065 5.04048 19.125 5.32663 19.125 5.625C19.125 5.92337 19.0065 6.20952 18.7955 6.42049C18.5845 6.63147 18.2984 6.75 18 6.75H6.75V29.25H29.25V18Z" fill="#FCFCFC"/>
<path d="M16.5217 19.485L18.378 19.2195L29.781 7.81876C29.8884 7.71498 29.9741 7.59085 30.0331 7.45359C30.092 7.31634 30.1231 7.16872 30.1244 7.01934C30.1257 6.86996 30.0972 6.72182 30.0406 6.58356C29.9841 6.44531 29.9005 6.3197 29.7949 6.21407C29.6893 6.10844 29.5637 6.0249 29.4254 5.96834C29.2872 5.91177 29.139 5.88331 28.9896 5.88461C28.8403 5.8859 28.6926 5.91694 28.5554 5.9759C28.4181 6.03486 28.294 6.12056 28.1902 6.22801L16.785 17.6288L16.5195 19.485H16.5217ZM31.3717 4.63501C31.6853 4.94844 31.9341 5.32059 32.1039 5.73021C32.2736 6.13982 32.361 6.57887 32.361 7.02226C32.361 7.46566 32.2736 7.9047 32.1039 8.31432C31.9341 8.72393 31.6853 9.09609 31.3717 9.40951L19.7055 21.0758C19.5334 21.2484 19.31 21.3606 19.0687 21.3953L15.3562 21.9263C15.1832 21.9511 15.0068 21.9353 14.8409 21.8801C14.6751 21.8249 14.5244 21.7318 14.4008 21.6082C14.2772 21.4846 14.1841 21.3339 14.1289 21.168C14.0737 21.0022 14.0579 20.8258 14.0827 20.6528L14.6137 16.9403C14.6478 16.6993 14.7591 16.4759 14.931 16.3035L26.5995 4.63726C27.2324 4.00455 28.0907 3.64911 28.9856 3.64911C29.8805 3.64911 30.7388 4.00455 31.3717 4.63726V4.63501Z" fill="#FCFCFC"/>
</svg>
