<svg width="98" height="98" viewBox="0 0 98 98" fill="none" xmlns="http://www.w3.org/2000/svg">
<g clip-path="url(#clip0_219_1529)">
<path d="M36.4271 14.8409C32.0849 14.0752 27.6163 15.0659 24.0045 17.5949C20.3927 20.1239 17.9334 23.9842 17.1678 28.3264L12.9134 52.4542C12.5507 54.5111 13.02 56.6277 14.2179 58.3386C15.4159 60.0495 17.2444 61.2144 19.3013 61.577L20.163 61.729L25.1771 33.2927C25.701 30.3217 27.3836 27.6804 29.8548 25.9501C32.3261 24.2197 35.3835 23.5418 38.3545 24.0657L77.1313 30.9031L77.2833 30.0414C77.4629 29.023 77.4401 27.9791 77.2162 26.9695C76.9924 25.9598 76.5719 25.0041 75.9787 24.157C75.3856 23.3099 74.6313 22.5879 73.7591 22.0322C72.8869 21.4766 71.9138 21.0981 70.8954 20.9186L36.4271 14.8409ZM77.3991 34.5043L79.1087 34.8058C81.0739 35.152 82.8343 36.2314 84.0342 37.8258C85.2342 39.4201 85.7841 41.4105 85.5729 43.3948L85.4966 43.9286L84.8864 47.3892C84.7699 48.0437 84.4094 48.6296 83.8777 49.0287C83.346 49.4277 82.6827 49.6102 82.0217 49.5392C81.3607 49.4682 80.7513 49.1491 80.3164 48.6462C79.8816 48.1434 79.6537 47.4943 79.6789 46.83L79.7161 46.4776L80.3263 43.017C80.4364 42.3923 80.3166 41.7488 79.9891 41.2056C79.6615 40.6624 79.1483 40.2562 78.5443 40.0621L78.197 39.976L76.4874 39.6746C75.8325 39.5589 75.2458 39.1989 74.8461 38.6673C74.4463 38.1358 74.2633 37.4723 74.3338 36.811C74.4044 36.1497 74.7234 35.5398 75.2263 35.1046C75.7292 34.6694 76.3786 34.4413 77.0432 34.4665L77.3991 34.5043ZM29.5377 43.835C30.1629 43.9454 30.7269 44.2786 31.1252 44.773C31.5236 45.2673 31.7293 45.8892 31.7042 46.5236L31.6664 46.8794L30.1506 55.4758C30.0349 56.1308 29.6749 56.7174 29.1434 57.1171C28.6118 57.5169 27.9484 57.6999 27.287 57.6294C26.6257 57.5588 26.0158 57.2398 25.5806 56.7369C25.1454 56.234 24.9173 55.5846 24.9425 54.92L24.9803 54.5642L26.4961 45.9678C26.617 45.2822 27.0053 44.6726 27.5756 44.2733C28.1459 43.874 28.8514 43.7176 29.5371 43.8385L29.5377 43.835ZM28.669 63.737C28.6942 63.0724 28.4661 62.4231 28.0309 61.9201C27.5957 61.4172 26.9858 61.0982 26.3245 61.0277C25.6631 60.9571 24.9997 61.1402 24.4681 61.5399C23.9366 61.9397 23.5766 62.5263 23.4609 63.1812L22.8501 66.6453L22.7737 67.1791C22.5626 69.1634 23.1125 71.1538 24.3124 72.7481C25.5124 74.3425 27.2728 75.4219 29.238 75.7681L30.9614 76.072L31.3172 76.1099C31.9818 76.135 32.6312 75.9069 33.1341 75.4717C33.6371 75.0365 33.956 74.4266 34.0266 73.7653C34.0972 73.104 33.9141 72.4405 33.5144 71.909C33.1146 71.3774 32.528 71.0175 31.8731 70.9018L30.1496 70.5979L29.8023 70.5118C29.1984 70.3177 28.6852 69.9115 28.3576 69.3683C28.03 68.8251 27.9102 68.1816 28.0204 67.5569L28.6312 64.0929L28.669 63.737ZM80.3336 73.2094C80.4545 72.5238 80.298 71.8182 79.8987 71.2479C79.4994 70.6777 78.8899 70.2894 78.2043 70.1685C77.5187 70.0476 76.8131 70.204 76.2428 70.6033C75.6725 71.0026 75.2842 71.6121 75.1633 72.2978L74.5525 75.7618C74.4316 76.4474 74.0433 77.0569 73.473 77.4563C72.9027 77.8556 72.1972 78.012 71.5116 77.8911L68.0544 77.2815C67.3688 77.1606 66.6632 77.317 66.0929 77.7164C65.5227 78.1157 65.1343 78.7252 65.0135 79.4108C64.8926 80.0964 65.049 80.802 65.4483 81.3723C65.8476 81.9426 66.4571 82.3309 67.1428 82.4518L70.5999 83.0613C72.6568 83.424 74.7734 82.9548 76.4843 81.7568C78.1952 80.5589 79.3601 78.7303 79.7228 76.6735L80.3336 73.2094ZM54.2878 74.8541L59.4408 75.7627C60.0957 75.8784 60.6823 76.2384 61.0821 76.7699C61.4818 77.3015 61.6649 77.9649 61.5943 78.6262C61.5238 79.2876 61.2048 79.8975 60.7019 80.3327C60.1989 80.7679 59.5496 80.9959 58.885 80.9708L58.5291 80.9329L53.3761 80.0243C52.7212 79.9086 52.1346 79.5487 51.7348 79.0171C51.3351 78.4856 51.152 77.8221 51.2226 77.1608C51.2931 76.4995 51.6121 75.8896 52.115 75.4544C52.618 75.0192 53.2673 74.7911 53.9319 74.8162L54.2878 74.8541ZM45.6466 73.3304L40.4936 72.4218L40.1377 72.3839C39.4731 72.3588 38.8238 72.5869 38.3208 73.0221C37.8179 73.4573 37.4989 74.0672 37.4284 74.7285C37.3578 75.3898 37.5409 76.0533 37.9406 76.5848C38.3404 77.1164 38.927 77.4764 39.5819 77.592L44.7349 78.5007L45.0908 78.5385C45.7554 78.5637 46.4047 78.3356 46.9077 77.9004C47.4106 77.4652 47.7296 76.8553 47.8001 76.194C47.8707 75.5326 47.6876 74.8692 47.2879 74.3376C46.8881 73.8061 46.3015 73.4461 45.6466 73.3304ZM83.4066 55.6401C83.4318 54.9755 83.2037 54.3261 82.7685 53.8232C82.3333 53.3203 81.7234 53.0013 81.0621 52.9307C80.4007 52.8602 79.7373 53.0432 79.2057 53.443C78.6742 53.8427 78.3142 54.4294 78.1985 55.0843L76.6827 63.6807L76.6449 64.0365C76.6198 64.7011 76.8478 65.3505 77.283 65.8534C77.7182 66.3563 78.3281 66.6753 78.9894 66.7459C79.6508 66.8165 80.3142 66.6334 80.8458 66.2336C81.3773 65.8339 81.7373 65.2473 81.853 64.5923L83.3688 55.996L83.4066 55.6401ZM43.3332 31.1631C43.4541 30.4775 43.2977 29.7719 42.8984 29.2016C42.499 28.6313 41.8895 28.243 41.2039 28.1221L37.7468 27.5125C35.6899 27.1499 33.5732 27.6191 31.8624 28.8171C30.1515 30.015 28.9866 31.8436 28.6239 33.9004L28.0137 37.361C27.8928 38.0467 28.0492 38.7522 28.4486 39.3225C28.8479 39.8928 29.4574 40.2811 30.143 40.402C30.8286 40.5229 31.5342 40.3665 32.1045 39.9671C32.6748 39.5678 33.0631 38.9583 33.184 38.2727L33.7942 34.8121C33.915 34.1265 34.3033 33.517 34.8736 33.1176C35.4439 32.7183 36.1495 32.5619 36.8351 32.6828L40.2923 33.2924C40.9779 33.4133 41.6834 33.2569 42.2537 32.8575C42.824 32.4582 43.2123 31.8487 43.3332 31.1631ZM63.5945 32.0702L68.7751 32.9837C69.43 33.0994 70.0166 33.4594 70.4164 33.9909C70.8161 34.5224 70.9992 35.1859 70.9287 35.8472C70.8581 36.5086 70.5391 37.1184 70.0362 37.5536C69.5332 37.9888 68.8839 38.2169 68.2193 38.1918L67.8634 38.1539L62.6829 37.2404C62.0279 37.1248 61.4413 36.7648 61.0416 36.2332C60.6418 35.7017 60.4587 35.0382 60.5293 34.3769C60.5999 33.7156 60.9189 33.1057 61.4218 32.6705C61.9247 32.2353 62.5741 32.0072 63.2387 32.0323L63.5945 32.0702ZM54.9637 30.5483L49.8106 29.6397L49.4548 29.6019C48.7902 29.5767 48.1408 29.8048 47.6379 30.24C47.135 30.6752 46.816 31.2851 46.7454 31.9464C46.6749 32.6078 46.8579 33.2712 47.2577 33.8028C47.6574 34.3343 48.2441 34.6943 48.899 34.81L54.052 35.7186L54.4078 35.7565C55.0724 35.7816 55.7218 35.5535 56.2247 35.1183C56.7277 34.6831 57.0466 34.0732 57.1172 33.4119C57.1878 32.7506 57.0047 32.0871 56.605 31.5556C56.2052 31.024 55.6186 30.664 54.9637 30.5483Z" fill="#1D97D2"/>
</g>
<defs>
<clipPath id="clip0_219_1529">
<rect width="84" height="84" fill="white" transform="translate(14.9844 0.397949) rotate(10)"/>
</clipPath>
</defs>
</svg>
