<svg width="113" height="113" viewBox="0 0 113 113" fill="none" xmlns="http://www.w3.org/2000/svg">
<g clip-path="url(#clip0_219_1531)">
<path d="M29.5514 68.0634C29.0672 65.317 30.9031 62.695 33.6495 62.2107L49.5705 59.4034C52.3169 58.9192 54.9389 60.7551 55.4232 63.5015L56.8268 71.462C57.3111 74.2084 55.4752 76.8304 52.7288 77.3146L36.8077 80.1219C34.0613 80.6062 31.4394 78.7703 30.9551 76.0239L29.5514 68.0634ZM35.6973 68.0057L36.75 73.9761L50.681 71.5197L49.6282 65.5493L35.6973 68.0057ZM63.5015 56.947C60.7551 57.4313 58.9192 60.0533 59.4034 62.7997L60.8071 70.7602C61.2913 73.5066 63.9133 75.3425 66.6597 74.8582L82.5808 72.0509C85.3271 71.5667 87.1631 68.9447 86.6788 66.1983L85.2752 58.2378C84.7909 55.4914 82.1689 53.6555 79.4225 54.1397L63.5015 56.947ZM66.602 68.7124L65.5493 62.742L79.4802 60.2856L80.533 66.256L66.602 68.7124ZM25.6914 46.1719C25.2071 43.4255 27.0431 40.8036 29.7894 40.3193L45.7105 37.512C48.4569 37.0277 51.0788 38.8636 51.5631 41.61L52.9668 49.5706C53.451 52.3169 51.6151 54.9389 48.8687 55.4232L32.9477 58.2305C30.2013 58.7147 27.5793 56.8788 27.095 54.1324L25.6914 46.1719ZM31.8372 46.1142L32.89 52.0846L46.8209 49.6282L45.7682 43.6578L31.8372 46.1142ZM59.6414 35.0556C56.895 35.5398 55.0591 38.1618 55.5434 40.9082L56.947 48.8687C57.4313 51.6151 60.0533 53.451 62.7996 52.9668L78.7207 50.1595C81.4671 49.6752 83.303 47.0532 82.8188 44.3068L81.4151 36.3463C80.9308 33.5999 78.3089 31.764 75.5625 32.2483L59.6414 35.0556ZM62.742 46.8209L61.6892 40.8505L75.6202 38.3941L76.6729 44.3645L62.742 46.8209ZM12.6978 42.307C12.186 39.404 12.8483 36.4166 14.539 34.0019C16.2298 31.5872 18.8106 29.9431 21.7136 29.4312L79.4274 19.2547C82.3304 18.7429 85.3178 19.4052 87.7325 21.0959C90.1472 22.7867 91.7913 25.3674 92.3032 28.2704L99.6724 70.0632C99.9258 71.5006 99.8937 72.9739 99.5777 74.3989C99.2618 75.8239 98.6683 77.1727 97.8312 78.3683C96.994 79.5639 95.9295 80.5829 94.6985 81.3672C93.4675 82.1514 92.0941 82.6855 90.6566 82.939L32.9428 93.1155C31.5054 93.3689 30.0321 93.3368 28.6071 93.0209C27.1821 92.705 25.8333 92.1115 24.6377 91.2743C23.4421 90.4371 22.4231 89.3726 21.6388 88.1416C20.8546 86.9106 20.3205 85.5372 20.067 84.0998L12.6978 42.307ZM22.7663 35.4016C20.0199 35.8859 18.184 38.5079 18.6682 41.2543L26.0374 83.047C26.5217 85.7934 29.1437 87.6293 31.8901 87.1451L89.6039 76.9686C92.3503 76.4843 94.1862 73.8623 93.7019 71.116L86.3328 29.3232C85.8485 26.5768 83.2265 24.7409 80.4801 25.2251L22.7663 35.4016Z" fill="#1F8FF6"/>
</g>
<defs>
<clipPath id="clip0_219_1531">
<rect width="97" height="97" fill="white" transform="translate(0 16.8439) rotate(-10)"/>
</clipPath>
</defs>
</svg>
