<svg width="828" height="851" viewBox="0 0 828 851" fill="none" xmlns="http://www.w3.org/2000/svg">
<path d="M346.82 129.438C323.263 141.206 271.89 179.582 254.854 238.94L192.649 493.796" stroke="white" stroke-linecap="round"/>
<path d="M346.82 129.438C323.263 141.206 271.89 179.582 254.854 238.94L192.649 493.796" stroke="url(#paint0_linear_4_2878)" stroke-linecap="round"/>
<path d="M356.168 127.029C332.635 137.212 280.63 171.923 260.878 229.303L186.702 476.312" stroke="white" stroke-linecap="round"/>
<path d="M356.168 127.029C332.635 137.212 280.63 171.923 260.878 229.303L186.702 476.312" stroke="url(#paint1_linear_4_2878)" stroke-linecap="round"/>
<path d="M364.94 124.916C341.527 133.556 289.125 164.657 266.817 219.935L181.332 458.53" stroke="white" stroke-linecap="round"/>
<path d="M364.94 124.916C341.527 133.556 289.125 164.657 266.817 219.935L181.332 458.53" stroke="url(#paint2_linear_4_2878)" stroke-linecap="round"/>
<path d="M373.128 123.058C349.928 130.204 297.352 157.763 272.656 210.829L176.544 440.494" stroke="white" stroke-linecap="round"/>
<path d="M373.128 123.058C349.928 130.204 297.352 157.763 272.656 210.829L176.544 440.494" stroke="url(#paint3_linear_4_2878)" stroke-linecap="round"/>
<path d="M479.522 107.032C447.493 105.545 305.82 127.556 278.38 201.973L172.344 422.248" stroke="white" stroke-linecap="round"/>
<path d="M479.522 107.032C447.493 105.545 305.82 127.556 278.38 201.973L172.344 422.248" stroke="url(#paint4_linear_4_2878)" stroke-linecap="round"/>
<path d="M482.03 106.127C457.171 110.078 310.725 128.294 283.975 193.357L168.733 403.831" stroke="white" stroke-linecap="round"/>
<path d="M482.03 106.127C457.171 110.078 310.725 128.294 283.975 193.357L168.733 403.831" stroke="url(#paint5_linear_4_2878)" stroke-linecap="round"/>
<path d="M479.455 108.56C456.296 107.485 318.565 129.679 289.428 184.97L165.71 385.289" stroke="white" stroke-linecap="round"/>
<path d="M479.455 108.56C456.296 107.485 318.565 129.679 289.428 184.97L165.71 385.289" stroke="url(#paint6_linear_4_2878)" stroke-linecap="round"/>
<path d="M480.551 106.059C459.009 107.821 327.249 133.44 294.726 176.798L163.271 366.661" stroke="white" stroke-linecap="round"/>
<path d="M480.551 106.059C459.009 107.821 327.249 133.44 294.726 176.798L163.271 366.661" stroke="url(#paint7_linear_4_2878)" stroke-linecap="round"/>
<path d="M482.927 108.211C461.973 108.797 333.898 128.047 299.859 168.829L161.41 347.988" stroke="white" stroke-linecap="round"/>
<path d="M482.927 108.211C461.973 108.797 333.898 128.047 299.859 168.829L161.41 347.988" stroke="url(#paint8_linear_4_2878)" stroke-linecap="round"/>
<path d="M483.103 104.135C462.795 103.621 340.195 122.878 304.815 161.048L160.117 329.31" stroke="white" stroke-linecap="round"/>
<path d="M483.103 104.135C462.795 103.621 340.195 122.878 304.815 161.048L160.117 329.31" stroke="url(#paint9_linear_4_2878)" stroke-linecap="round"/>
<path d="M482.052 105.618C462.44 104.082 346.13 117.906 309.585 153.442L159.381 310.663" stroke="white" stroke-linecap="round"/>
<path d="M482.052 105.618C462.44 104.082 346.13 117.906 309.585 153.442L159.381 310.663" stroke="url(#paint10_linear_4_2878)" stroke-linecap="round"/>
<path d="M154.777 378.352C157.341 405.271 174.474 468.359 222.495 505.354L432.442 653.578" stroke="white" stroke-linecap="round"/>
<path d="M154.777 378.352C157.341 405.271 174.474 468.359 222.495 505.354L432.442 653.578" stroke="url(#paint11_linear_4_2878)" stroke-linecap="round"/>
<path d="M155.811 368.449C156.945 394.799 170.534 457.236 215.822 496.186L414.519 653.322" stroke="white" stroke-linecap="round"/>
<path d="M155.811 368.449C156.945 394.799 170.534 457.236 215.822 496.186L414.519 653.322" stroke="url(#paint12_linear_4_2878)" stroke-linecap="round"/>
<path d="M156.916 359.207C156.691 384.909 166.864 446.488 209.364 487.193L396.523 652.405" stroke="white" stroke-linecap="round"/>
<path d="M156.916 359.207C156.691 384.909 166.864 446.488 209.364 487.193L396.523 652.405" stroke="url(#paint13_linear_4_2878)" stroke-linecap="round"/>
<path d="M158.052 350.619C156.543 375.6 163.442 436.126 203.108 478.387L378.497 650.834" stroke="white" stroke-linecap="round"/>
<path d="M158.052 350.619C156.543 375.6 163.442 436.126 203.108 478.387L378.497 650.834" stroke="url(#paint14_linear_4_2878)" stroke-linecap="round"/>
<path d="M159.177 342.674C156.464 366.869 160.238 426.162 197.041 469.779L360.483 648.621" stroke="white" stroke-linecap="round"/>
<path d="M159.177 342.674C156.464 366.869 160.238 426.162 197.041 469.779L360.483 648.621" stroke="url(#paint15_linear_4_2878)" stroke-linecap="round"/>
<path d="M160.252 335.359C156.416 358.709 157.225 416.604 191.147 461.379L342.517 645.777" stroke="white" stroke-linecap="round"/>
<path d="M160.252 335.359C156.416 358.709 157.225 416.604 191.147 461.379L342.517 645.777" stroke="url(#paint16_linear_4_2878)" stroke-linecap="round"/>
<path d="M161.239 328.658C156.365 351.113 154.376 407.457 185.412 453.196L324.64 642.32" stroke="white" stroke-linecap="round"/>
<path d="M161.239 328.658C156.365 351.113 154.376 407.457 185.412 453.196L324.64 642.32" stroke="url(#paint17_linear_4_2878)" stroke-linecap="round"/>
<path d="M162.103 322.553C156.276 344.068 151.663 398.726 179.819 445.237L306.887 638.266" stroke="white" stroke-linecap="round"/>
<path d="M162.103 322.553C156.276 344.068 151.663 398.726 179.819 445.237L306.887 638.266" stroke="url(#paint18_linear_4_2878)" stroke-linecap="round"/>
<path d="M162.808 317.025C156.117 337.563 149.059 390.414 174.352 437.508L289.291 633.636" stroke="white" stroke-linecap="round"/>
<path d="M162.808 317.025C156.117 337.563 149.059 390.414 174.352 437.508L289.291 633.636" stroke="url(#paint19_linear_4_2878)" stroke-linecap="round"/>
<path d="M163.322 312.05C155.856 331.582 146.537 382.521 168.996 430.016L271.887 628.452" stroke="white" stroke-linecap="round"/>
<path d="M163.322 312.05C155.856 331.582 146.537 382.521 168.996 430.016L271.887 628.452" stroke="url(#paint20_linear_4_2878)" stroke-linecap="round"/>
<path d="M163.615 307.604C155.461 326.108 144.069 375.046 163.735 422.764L254.704 622.739" stroke="white" stroke-linecap="round"/>
<path d="M163.615 307.604C155.461 326.108 144.069 375.046 163.735 422.764L254.704 622.739" stroke="url(#paint21_linear_4_2878)" stroke-linecap="round"/>
<path d="M304.248 650.875C329.393 658.346 392.428 665.166 443.406 632.675L637.812 498.264" stroke="white" stroke-linecap="round"/>
<path d="M304.248 650.875C329.393 658.346 392.428 665.166 443.406 632.675L637.812 498.264" stroke="url(#paint22_linear_4_2878)" stroke-linecap="round"/>
<path d="M295.728 646.227C319.833 654.862 380.974 664.848 432.702 635.704L637.281 510.49" stroke="white" stroke-linecap="round"/>
<path d="M295.728 646.227C319.833 654.862 380.974 664.848 432.702 635.704L637.281 510.49" stroke="url(#paint23_linear_4_2878)" stroke-linecap="round"/>
<path d="M287.828 641.754C310.848 651.456 369.958 664.406 422.234 638.591L639.821 519.721" stroke="white" stroke-linecap="round"/>
<path d="M287.828 641.754C310.848 651.456 369.958 664.406 422.234 638.591L639.821 519.721" stroke="url(#paint24_linear_4_2878)" stroke-linecap="round"/>
<path d="M280.527 637.493C302.426 648.162 359.381 663.871 412.01 641.352L631.757 536.462" stroke="white" stroke-linecap="round"/>
<path d="M280.527 637.493C302.426 648.162 359.381 663.871 412.01 641.352L631.757 536.462" stroke="url(#paint25_linear_4_2878)" stroke-linecap="round"/>
<path d="M273.8 633.48C294.548 645.016 349.242 663.273 402.033 644.005L623.118 552.955" stroke="white" stroke-linecap="round"/>
<path d="M273.8 633.48C294.548 645.016 349.242 663.273 402.033 644.005L623.118 552.955" stroke="url(#paint26_linear_4_2878)" stroke-linecap="round"/>
<path d="M267.621 629.747C287.196 642.051 339.537 662.64 392.306 646.569L613.932 569.169" stroke="white" stroke-linecap="round"/>
<path d="M267.621 629.747C287.196 642.051 339.537 662.64 392.306 646.569L613.932 569.169" stroke="url(#paint27_linear_4_2878)" stroke-linecap="round"/>
<path d="M261.962 626.325C280.348 639.296 330.263 662.002 382.833 649.06L604.226 585.071" stroke="white" stroke-linecap="round"/>
<path d="M261.962 626.325C280.348 639.296 330.263 662.002 382.833 649.06L604.226 585.071" stroke="url(#paint28_linear_4_2878)" stroke-linecap="round"/>
<path d="M256.793 623.243C273.983 636.781 321.414 661.387 373.614 651.497L594.03 600.635" stroke="white" stroke-linecap="round"/>
<path d="M256.793 623.243C273.983 636.781 321.414 661.387 373.614 651.497L594.03 600.635" stroke="url(#paint29_linear_4_2878)" stroke-linecap="round"/>
<path d="M252.083 620.524C268.077 634.534 312.981 660.821 364.65 653.897L583.374 615.834" stroke="white" stroke-linecap="round"/>
<path d="M252.083 620.524C268.077 634.534 312.981 660.821 364.65 653.897L583.374 615.834" stroke="url(#paint30_linear_4_2878)" stroke-linecap="round"/>
<path d="M253.7 622.859C268.502 637.242 304.955 660.332 355.938 656.279L572.291 630.645" stroke="white" stroke-linecap="round"/>
<path d="M253.7 622.859C268.502 637.242 304.955 660.332 355.938 656.279L572.291 630.645" stroke="url(#paint31_linear_4_2878)" stroke-linecap="round"/>
<path d="M255.134 623.946C268.758 638.611 297.324 659.945 347.477 658.658L560.813 645.048" stroke="white" stroke-linecap="round"/>
<path d="M255.134 623.946C268.758 638.611 297.324 659.945 347.477 658.658L560.813 645.048" stroke="url(#paint32_linear_4_2878)" stroke-linecap="round"/>
<path d="M603.759 599.869C619.813 578.511 649.366 520.543 639.141 459.536L585.44 202.621" stroke="white" stroke-linecap="round"/>
<path d="M603.759 599.869C619.813 578.511 649.366 520.543 639.141 459.536L585.44 202.621" stroke="url(#paint33_linear_4_2878)" stroke-linecap="round"/>
<path d="M596.417 606.319C613.131 586.392 644.823 531.418 637.882 470.936L598.276 215.558" stroke="white" stroke-linecap="round"/>
<path d="M596.417 606.319C613.131 586.392 644.823 531.418 637.882 470.936L598.276 215.558" stroke="url(#paint34_linear_4_2878)" stroke-linecap="round"/>
<path d="M589.465 612.239C606.733 593.749 640.332 541.828 636.583 482.056L610.724 229.026" stroke="white" stroke-linecap="round"/>
<path d="M589.465 612.239C606.733 593.749 640.332 541.828 636.583 482.056L610.724 229.026" stroke="url(#paint35_linear_4_2878)" stroke-linecap="round"/>
<path d="M582.925 617.662C600.645 600.609 635.921 551.781 635.262 492.896L622.759 242.989" stroke="white" stroke-linecap="round"/>
<path d="M582.925 617.662C600.645 600.609 635.921 551.781 635.262 492.896L622.759 242.989" stroke="url(#paint36_linear_4_2878)" stroke-linecap="round"/>
<path d="M576.822 622.627C594.892 607.001 631.614 561.291 633.936 503.458L634.358 257.411" stroke="white" stroke-linecap="round"/>
<path d="M576.822 622.627C594.892 607.001 631.614 561.291 633.936 503.458L634.358 257.411" stroke="url(#paint37_linear_4_2878)" stroke-linecap="round"/>
<path d="M571.173 627.171C589.497 612.956 627.439 570.37 632.622 513.747L645.502 272.255" stroke="white" stroke-linecap="round"/>
<path d="M571.173 627.171C589.497 612.956 627.439 570.37 632.622 513.747L645.502 272.255" stroke="url(#paint38_linear_4_2878)" stroke-linecap="round"/>
<path d="M565.997 631.331C584.478 618.505 623.419 579.034 631.338 523.765L656.173 287.482" stroke="white" stroke-linecap="round"/>
<path d="M565.997 631.331C584.478 618.505 623.419 579.034 631.338 523.765L656.173 287.482" stroke="url(#paint39_linear_4_2878)" stroke-linecap="round"/>
<path d="M561.308 635.147C579.854 623.679 619.577 587.299 630.1 533.52L666.358 303.054" stroke="white" stroke-linecap="round"/>
<path d="M561.308 635.147C579.854 623.679 619.577 587.299 630.1 533.52L666.358 303.054" stroke="url(#paint40_linear_4_2878)" stroke-linecap="round"/>
<path d="M557.117 638.657C575.641 628.513 615.935 595.184 628.923 543.017L676.044 318.931" stroke="white" stroke-linecap="round"/>
<path d="M557.117 638.657C575.641 628.513 615.935 595.184 628.923 543.017L676.044 318.931" stroke="url(#paint41_linear_4_2878)" stroke-linecap="round"/>
<path d="M553.432 641.901C571.85 633.039 612.512 602.705 627.823 552.263L685.224 335.074" stroke="white" stroke-linecap="round"/>
<path d="M553.432 641.901C571.85 633.039 612.512 602.705 627.823 552.263L685.224 335.074" stroke="url(#paint42_linear_4_2878)" stroke-linecap="round"/>
<path d="M550.261 644.918C568.493 637.292 609.329 609.885 626.815 561.269L690.59 351.652" stroke="white" stroke-linecap="round"/>
<path d="M550.261 644.918C568.493 637.292 609.329 609.885 626.815 561.269L690.59 351.652" stroke="url(#paint43_linear_4_2878)" stroke-linecap="round"/>
<path d="M670.169 289.797C657.243 266.278 616.788 215.836 558.37 202.214L308.277 155.009" stroke="white" stroke-linecap="round"/>
<path d="M670.169 289.797C657.243 266.278 616.788 215.836 558.37 202.214L308.277 155.009" stroke="url(#paint44_linear_4_2878)" stroke-linecap="round"/>
<path d="M673.116 299.279C661.722 275.68 624.762 224.343 568.071 207.786L324.754 147.71" stroke="white" stroke-linecap="round"/>
<path d="M673.116 299.279C661.722 275.68 624.762 224.343 568.071 207.786L324.754 147.71" stroke="url(#paint45_linear_4_2878)" stroke-linecap="round"/>
<path d="M675.739 308.188C665.842 284.61 632.339 232.622 577.507 213.289L341.558 140.986" stroke="white" stroke-linecap="round"/>
<path d="M675.739 308.188C665.842 284.61 632.339 232.622 577.507 213.289L341.558 140.986" stroke="url(#paint46_linear_4_2878)" stroke-linecap="round"/>
<path d="M678.078 316.512C669.636 293.053 639.54 240.65 586.684 218.707L358.644 134.847" stroke="white" stroke-linecap="round"/>
<path d="M678.078 316.512C669.636 293.053 639.54 240.65 586.684 218.707L358.644 134.847" stroke="url(#paint47_linear_4_2878)" stroke-linecap="round"/>
<path d="M680.173 324.244C673.141 300.997 646.384 248.408 595.611 224.022L375.974 129.299" stroke="white" stroke-linecap="round"/>
<path d="M680.173 324.244C673.141 300.997 646.384 248.408 595.611 224.022L375.974 129.299" stroke="url(#paint48_linear_4_2878)" stroke-linecap="round"/>
<path d="M682.067 331.379C676.393 308.432 652.895 255.875 604.299 229.22L393.506 124.348" stroke="white" stroke-linecap="round"/>
<path d="M682.067 331.379C676.393 308.432 652.895 255.875 604.299 229.22L393.506 124.348" stroke="url(#paint49_linear_4_2878)" stroke-linecap="round"/>
<path d="M683.799 337.916C679.425 315.352 659.093 263.036 612.756 234.287L411.2 119.995" stroke="white" stroke-linecap="round"/>
<path d="M683.799 337.916C679.425 315.352 659.093 263.036 612.756 234.287L411.2 119.995" stroke="url(#paint50_linear_4_2878)" stroke-linecap="round"/>
<path d="M685.41 343.857C682.275 321.751 665.004 269.873 620.995 239.209L429.014 116.238" stroke="white" stroke-linecap="round"/>
<path d="M685.41 343.857C682.275 321.751 665.004 269.873 620.995 239.209L429.014 116.238" stroke="url(#paint51_linear_4_2878)" stroke-linecap="round"/>
<path d="M686.939 349.205C684.978 327.628 670.651 276.373 629.028 243.973L446.911 113.075" stroke="white" stroke-linecap="round"/>
<path d="M686.939 349.205C684.978 327.628 670.651 276.373 629.028 243.973L446.911 113.075" stroke="url(#paint52_linear_4_2878)" stroke-linecap="round"/>
<path d="M688.425 353.967C687.568 332.982 676.058 282.525 636.867 248.568L464.851 110.498" stroke="white" stroke-linecap="round"/>
<path d="M688.425 353.967C687.568 332.982 676.058 282.525 636.867 248.568L464.851 110.498" stroke="url(#paint53_linear_4_2878)" stroke-linecap="round"/>
<path d="M689.904 358.151C690.081 337.818 681.252 288.317 644.525 252.983L482.796 108.497" stroke="white" stroke-linecap="round"/>
<path d="M689.904 358.151C690.081 337.818 681.252 288.317 644.525 252.983L482.796 108.497" stroke="url(#paint54_linear_4_2878)" stroke-linecap="round"/>
<defs>
<linearGradient id="paint0_linear_4_2878" x1="215.34" y1="317.426" x2="326.363" y2="307.024" gradientUnits="userSpaceOnUse">
<stop stop-color="#FF1CF7"/>
<stop offset="0.220537" stop-color="#00F0FF"/>
</linearGradient>
<linearGradient id="paint1_linear_4_2878" x1="218.245" y1="304.169" x2="326.715" y2="300.078" gradientUnits="userSpaceOnUse">
<stop stop-color="#FF1CF7"/>
<stop offset="0.220537" stop-color="#00F0FF"/>
</linearGradient>
<linearGradient id="paint2_linear_4_2878" x1="221.334" y1="291.075" x2="326.926" y2="292.976" gradientUnits="userSpaceOnUse">
<stop stop-color="#FF1CF7"/>
<stop offset="0.220537" stop-color="#00F0FF"/>
</linearGradient>
<linearGradient id="paint3_linear_4_2878" x1="224.591" y1="278.154" x2="327.007" y2="285.718" gradientUnits="userSpaceOnUse">
<stop stop-color="#FF1CF7"/>
<stop offset="0.220537" stop-color="#00F0FF"/>
</linearGradient>
<linearGradient id="paint4_linear_4_2878" x1="249.624" y1="254.39" x2="405.269" y2="274.655" gradientUnits="userSpaceOnUse">
<stop stop-color="#FF1CF7"/>
<stop offset="0.220537" stop-color="#00F0FF"/>
</linearGradient>
<linearGradient id="paint5_linear_4_2878" x1="252.909" y1="240.833" x2="400.859" y2="268.562" gradientUnits="userSpaceOnUse">
<stop stop-color="#FF1CF7"/>
<stop offset="0.220537" stop-color="#00F0FF"/>
</linearGradient>
<linearGradient id="paint6_linear_4_2878" x1="255.172" y1="229.574" x2="392.959" y2="263.462" gradientUnits="userSpaceOnUse">
<stop stop-color="#FF1CF7"/>
<stop offset="0.220537" stop-color="#00F0FF"/>
</linearGradient>
<linearGradient id="paint7_linear_4_2878" x1="258.833" y1="216.091" x2="387.968" y2="255.632" gradientUnits="userSpaceOnUse">
<stop stop-color="#FF1CF7"/>
<stop offset="0.220537" stop-color="#00F0FF"/>
</linearGradient>
<linearGradient id="paint8_linear_4_2878" x1="262.665" y1="205.028" x2="384.717" y2="250.027" gradientUnits="userSpaceOnUse">
<stop stop-color="#FF1CF7"/>
<stop offset="0.220537" stop-color="#00F0FF"/>
</linearGradient>
<linearGradient id="paint9_linear_4_2878" x1="266.766" y1="191.667" x2="379.503" y2="240.595" gradientUnits="userSpaceOnUse">
<stop stop-color="#FF1CF7"/>
<stop offset="0.220537" stop-color="#00F0FF"/>
</linearGradient>
<linearGradient id="paint10_linear_4_2878" x1="270.128" y1="181.344" x2="374.37" y2="233.755" gradientUnits="userSpaceOnUse">
<stop stop-color="#FF1CF7"/>
<stop offset="0.220537" stop-color="#00F0FF"/>
</linearGradient>
<linearGradient id="paint11_linear_4_2878" x1="280.134" y1="570.759" x2="310.101" y2="459.73" gradientUnits="userSpaceOnUse">
<stop stop-color="#FF1CF7"/>
<stop offset="0.220537" stop-color="#00F0FF"/>
</linearGradient>
<linearGradient id="paint12_linear_4_2878" x1="269.099" y1="563.37" x2="304.588" y2="457.292" gradientUnits="userSpaceOnUse">
<stop stop-color="#FF1CF7"/>
<stop offset="0.220537" stop-color="#00F0FF"/>
</linearGradient>
<linearGradient id="paint13_linear_4_2878" x1="258.274" y1="555.859" x2="298.789" y2="454.992" gradientUnits="userSpaceOnUse">
<stop stop-color="#FF1CF7"/>
<stop offset="0.220537" stop-color="#00F0FF"/>
</linearGradient>
<linearGradient id="paint14_linear_4_2878" x1="247.666" y1="548.243" x2="292.699" y2="452.803" gradientUnits="userSpaceOnUse">
<stop stop-color="#FF1CF7"/>
<stop offset="0.220537" stop-color="#00F0FF"/>
</linearGradient>
<linearGradient id="paint15_linear_4_2878" x1="237.277" y1="540.54" x2="286.317" y2="450.695" gradientUnits="userSpaceOnUse">
<stop stop-color="#FF1CF7"/>
<stop offset="0.220537" stop-color="#00F0FF"/>
</linearGradient>
<linearGradient id="paint16_linear_4_2878" x1="227.11" y1="532.768" x2="279.641" y2="448.642" gradientUnits="userSpaceOnUse">
<stop stop-color="#FF1CF7"/>
<stop offset="0.220537" stop-color="#00F0FF"/>
</linearGradient>
<linearGradient id="paint17_linear_4_2878" x1="217.165" y1="524.943" x2="272.678" y2="446.616" gradientUnits="userSpaceOnUse">
<stop stop-color="#FF1CF7"/>
<stop offset="0.220537" stop-color="#00F0FF"/>
</linearGradient>
<linearGradient id="paint18_linear_4_2878" x1="207.442" y1="517.085" x2="265.434" y2="444.594" gradientUnits="userSpaceOnUse">
<stop stop-color="#FF1CF7"/>
<stop offset="0.220537" stop-color="#00F0FF"/>
</linearGradient>
<linearGradient id="paint19_linear_4_2878" x1="197.941" y1="509.209" x2="257.916" y2="442.55" gradientUnits="userSpaceOnUse">
<stop stop-color="#FF1CF7"/>
<stop offset="0.220537" stop-color="#00F0FF"/>
</linearGradient>
<linearGradient id="paint20_linear_4_2878" x1="188.658" y1="501.332" x2="250.137" y2="440.464" gradientUnits="userSpaceOnUse">
<stop stop-color="#FF1CF7"/>
<stop offset="0.220537" stop-color="#00F0FF"/>
</linearGradient>
<linearGradient id="paint21_linear_4_2878" x1="179.591" y1="493.472" x2="242.109" y2="438.317" gradientUnits="userSpaceOnUse">
<stop stop-color="#FF1CF7"/>
<stop offset="0.220537" stop-color="#00F0FF"/>
</linearGradient>
<linearGradient id="paint22_linear_4_2878" x1="513.907" y1="606.7" x2="424.882" y2="543.476" gradientUnits="userSpaceOnUse">
<stop stop-color="#FF1CF7"/>
<stop offset="0.220537" stop-color="#00F0FF"/>
</linearGradient>
<linearGradient id="paint23_linear_4_2878" x1="507.083" y1="612.609" x2="422.575" y2="545.018" gradientUnits="userSpaceOnUse">
<stop stop-color="#FF1CF7"/>
<stop offset="0.220537" stop-color="#00F0FF"/>
</linearGradient>
<linearGradient id="paint24_linear_4_2878" x1="502.011" y1="616.934" x2="422.25" y2="545.275" gradientUnits="userSpaceOnUse">
<stop stop-color="#FF1CF7"/>
<stop offset="0.220537" stop-color="#00F0FF"/>
</linearGradient>
<linearGradient id="paint25_linear_4_2878" x1="491.25" y1="624.317" x2="417.698" y2="550.163" gradientUnits="userSpaceOnUse">
<stop stop-color="#FF1CF7"/>
<stop offset="0.220537" stop-color="#00F0FF"/>
</linearGradient>
<linearGradient id="paint26_linear_4_2878" x1="480.491" y1="631.457" x2="413.189" y2="555.272" gradientUnits="userSpaceOnUse">
<stop stop-color="#FF1CF7"/>
<stop offset="0.220537" stop-color="#00F0FF"/>
</linearGradient>
<linearGradient id="paint27_linear_4_2878" x1="469.752" y1="638.359" x2="408.709" y2="560.607" gradientUnits="userSpaceOnUse">
<stop stop-color="#FF1CF7"/>
<stop offset="0.220537" stop-color="#00F0FF"/>
</linearGradient>
<linearGradient id="paint28_linear_4_2878" x1="459.048" y1="645.027" x2="404.239" y2="566.172" gradientUnits="userSpaceOnUse">
<stop stop-color="#FF1CF7"/>
<stop offset="0.220537" stop-color="#00F0FF"/>
</linearGradient>
<linearGradient id="paint29_linear_4_2878" x1="448.396" y1="651.469" x2="399.764" y2="571.97" gradientUnits="userSpaceOnUse">
<stop stop-color="#FF1CF7"/>
<stop offset="0.220537" stop-color="#00F0FF"/>
</linearGradient>
<linearGradient id="paint30_linear_4_2878" x1="437.809" y1="657.692" x2="395.262" y2="578.001" gradientUnits="userSpaceOnUse">
<stop stop-color="#FF1CF7"/>
<stop offset="0.220537" stop-color="#00F0FF"/>
</linearGradient>
<linearGradient id="paint31_linear_4_2878" x1="429.475" y1="664.242" x2="394.555" y2="588.425" gradientUnits="userSpaceOnUse">
<stop stop-color="#FF1CF7"/>
<stop offset="0.220537" stop-color="#00F0FF"/>
</linearGradient>
<linearGradient id="paint32_linear_4_2878" x1="421.368" y1="670.279" x2="393.012" y2="597.744" gradientUnits="userSpaceOnUse">
<stop stop-color="#FF1CF7"/>
<stop offset="0.220537" stop-color="#00F0FF"/>
</linearGradient>
<linearGradient id="paint33_linear_4_2878" x1="640.844" y1="371.071" x2="544.46" y2="429.078" gradientUnits="userSpaceOnUse">
<stop stop-color="#FF1CF7"/>
<stop offset="0.220537" stop-color="#00F0FF"/>
</linearGradient>
<linearGradient id="paint34_linear_4_2878" x1="643.934" y1="384.283" x2="547.199" y2="435.277" gradientUnits="userSpaceOnUse">
<stop stop-color="#FF1CF7"/>
<stop offset="0.220537" stop-color="#00F0FF"/>
</linearGradient>
<linearGradient id="paint35_linear_4_2878" x1="646.79" y1="397.434" x2="550.166" y2="441.593" gradientUnits="userSpaceOnUse">
<stop stop-color="#FF1CF7"/>
<stop offset="0.220537" stop-color="#00F0FF"/>
</linearGradient>
<linearGradient id="paint36_linear_4_2878" x1="649.419" y1="410.507" x2="553.345" y2="448.034" gradientUnits="userSpaceOnUse">
<stop stop-color="#FF1CF7"/>
<stop offset="0.220537" stop-color="#00F0FF"/>
</linearGradient>
<linearGradient id="paint37_linear_4_2878" x1="651.831" y1="423.488" x2="556.72" y2="454.61" gradientUnits="userSpaceOnUse">
<stop stop-color="#FF1CF7"/>
<stop offset="0.220537" stop-color="#00F0FF"/>
</linearGradient>
<linearGradient id="paint38_linear_4_2878" x1="654.037" y1="436.361" x2="560.275" y2="461.326" gradientUnits="userSpaceOnUse">
<stop stop-color="#FF1CF7"/>
<stop offset="0.220537" stop-color="#00F0FF"/>
</linearGradient>
<linearGradient id="paint39_linear_4_2878" x1="656.046" y1="449.113" x2="563.994" y2="468.186" gradientUnits="userSpaceOnUse">
<stop stop-color="#FF1CF7"/>
<stop offset="0.220537" stop-color="#00F0FF"/>
</linearGradient>
<linearGradient id="paint40_linear_4_2878" x1="657.871" y1="461.732" x2="567.863" y2="475.196" gradientUnits="userSpaceOnUse">
<stop stop-color="#FF1CF7"/>
<stop offset="0.220537" stop-color="#00F0FF"/>
</linearGradient>
<linearGradient id="paint41_linear_4_2878" x1="659.524" y1="474.207" x2="571.869" y2="482.357" gradientUnits="userSpaceOnUse">
<stop stop-color="#FF1CF7"/>
<stop offset="0.220537" stop-color="#00F0FF"/>
</linearGradient>
<linearGradient id="paint42_linear_4_2878" x1="661.018" y1="486.526" x2="575.998" y2="489.672" gradientUnits="userSpaceOnUse">
<stop stop-color="#FF1CF7"/>
<stop offset="0.220537" stop-color="#00F0FF"/>
</linearGradient>
<linearGradient id="paint43_linear_4_2878" x1="659.755" y1="498.765" x2="579.588" y2="497.265" gradientUnits="userSpaceOnUse">
<stop stop-color="#FF1CF7"/>
<stop offset="0.220537" stop-color="#00F0FF"/>
</linearGradient>
<linearGradient id="paint44_linear_4_2878" x1="479.995" y1="166.675" x2="499.321" y2="280.193" gradientUnits="userSpaceOnUse">
<stop stop-color="#FF1CF7"/>
<stop offset="0.220537" stop-color="#00F0FF"/>
</linearGradient>
<linearGradient id="paint45_linear_4_2878" x1="492.982" y1="168.79" x2="505.203" y2="280.301" gradientUnits="userSpaceOnUse">
<stop stop-color="#FF1CF7"/>
<stop offset="0.220537" stop-color="#00F0FF"/>
</linearGradient>
<linearGradient id="paint46_linear_4_2878" x1="505.825" y1="171.104" x2="511.242" y2="280.15" gradientUnits="userSpaceOnUse">
<stop stop-color="#FF1CF7"/>
<stop offset="0.220537" stop-color="#00F0FF"/>
</linearGradient>
<linearGradient id="paint47_linear_4_2878" x1="518.512" y1="173.605" x2="517.459" y2="279.755" gradientUnits="userSpaceOnUse">
<stop stop-color="#FF1CF7"/>
<stop offset="0.220537" stop-color="#00F0FF"/>
</linearGradient>
<linearGradient id="paint48_linear_4_2878" x1="531.032" y1="176.277" x2="523.876" y2="279.136" gradientUnits="userSpaceOnUse">
<stop stop-color="#FF1CF7"/>
<stop offset="0.220537" stop-color="#00F0FF"/>
</linearGradient>
<linearGradient id="paint49_linear_4_2878" x1="543.377" y1="179.106" x2="530.512" y2="278.312" gradientUnits="userSpaceOnUse">
<stop stop-color="#FF1CF7"/>
<stop offset="0.220537" stop-color="#00F0FF"/>
</linearGradient>
<linearGradient id="paint50_linear_4_2878" x1="555.539" y1="182.076" x2="537.381" y2="277.307" gradientUnits="userSpaceOnUse">
<stop stop-color="#FF1CF7"/>
<stop offset="0.220537" stop-color="#00F0FF"/>
</linearGradient>
<linearGradient id="paint51_linear_4_2878" x1="567.512" y1="185.171" x2="544.497" y2="276.146" gradientUnits="userSpaceOnUse">
<stop stop-color="#FF1CF7"/>
<stop offset="0.220537" stop-color="#00F0FF"/>
</linearGradient>
<linearGradient id="paint52_linear_4_2878" x1="579.289" y1="188.374" x2="551.869" y2="274.854" gradientUnits="userSpaceOnUse">
<stop stop-color="#FF1CF7"/>
<stop offset="0.220537" stop-color="#00F0FF"/>
</linearGradient>
<linearGradient id="paint53_linear_4_2878" x1="590.867" y1="191.67" x2="559.504" y2="273.456" gradientUnits="userSpaceOnUse">
<stop stop-color="#FF1CF7"/>
<stop offset="0.220537" stop-color="#00F0FF"/>
</linearGradient>
<linearGradient id="paint54_linear_4_2878" x1="602.242" y1="195.041" x2="567.407" y2="271.98" gradientUnits="userSpaceOnUse">
<stop stop-color="#FF1CF7"/>
<stop offset="0.220537" stop-color="#00F0FF"/>
</linearGradient>
</defs>
</svg>
