<svg width="49" height="49" viewBox="0 0 49 49" fill="none" xmlns="http://www.w3.org/2000/svg">
<path d="M37.2871 0H11.7128C5.48153 0 0.430054 5.05147 0.430054 11.2828V36.8571C0.430054 43.0884 5.48153 48.1399 11.7128 48.1399H37.2871C43.5184 48.1399 48.5699 43.0884 48.5699 36.8571V11.2828C48.5699 5.05147 43.5184 0 37.2871 0Z" fill="url(#paint0_radial_273_495)"/>
<path d="M37.2871 0H11.7128C5.48153 0 0.430054 5.05147 0.430054 11.2828V36.8571C0.430054 43.0884 5.48153 48.1399 11.7128 48.1399H37.2871C43.5184 48.1399 48.5699 43.0884 48.5699 36.8571V11.2828C48.5699 5.05147 43.5184 0 37.2871 0Z" fill="url(#paint1_radial_273_495)"/>
<path d="M24.5017 5.26514C19.3947 5.26514 18.7537 5.28751 16.748 5.37872C14.746 5.47048 13.3795 5.78734 12.1839 6.25238C10.9469 6.73265 9.8978 7.3752 8.85264 8.42074C7.80654 9.46609 7.16398 10.5152 6.68221 11.7516C6.21586 12.9476 5.89862 14.3147 5.80855 16.3157C5.71885 18.3216 5.69534 18.9628 5.69534 24.07C5.69534 29.1771 5.71791 29.8161 5.80892 31.8218C5.90107 33.8237 6.21792 35.1903 6.68259 36.3859C7.16323 37.6228 7.80579 38.6719 8.85132 39.7171C9.8963 40.7632 10.9454 41.4073 12.1814 41.8875C13.378 42.3526 14.7447 42.6694 16.7463 42.7612C18.7521 42.8524 19.3926 42.8748 24.4994 42.8748C29.6069 42.8748 30.2459 42.8524 32.2516 42.7612C34.2536 42.6694 35.6216 42.3526 36.8181 41.8875C38.0545 41.4073 39.1021 40.7632 40.1469 39.7171C41.193 38.6719 41.8354 37.6228 42.3174 36.3864C42.7796 35.1903 43.097 33.8234 43.191 31.8222C43.2811 29.8165 43.3046 29.1771 43.3046 24.07C43.3046 18.9628 43.2811 18.3219 43.191 16.3161C43.097 14.3141 42.7796 12.9478 42.3174 11.7522C41.8354 10.5152 41.193 9.46609 40.1469 8.42074C39.101 7.37483 38.0549 6.73227 36.817 6.25257C35.6182 5.78734 34.2509 5.4703 32.249 5.37872C30.2431 5.28751 29.6045 5.26514 24.4958 5.26514H24.5017ZM22.8147 8.65392C23.3155 8.65317 23.8742 8.65392 24.5017 8.65392C29.5227 8.65392 30.1177 8.67197 32.1004 8.76205C33.9339 8.84591 34.929 9.15224 35.5919 9.40968C36.4695 9.75042 37.0951 10.1579 37.7529 10.8163C38.4111 11.4744 38.8184 12.1012 39.1601 12.9788C39.4175 13.6407 39.7242 14.6359 39.8077 16.4693C39.8978 18.4517 39.9173 19.047 39.9173 24.0656C39.9173 29.0842 39.8978 29.6798 39.8077 31.6619C39.7238 33.4954 39.4175 34.4905 39.1601 35.1527C38.8193 36.0303 38.4111 36.6551 37.7529 37.3129C37.0948 37.9711 36.4699 38.3784 35.5919 38.7193C34.9298 38.9779 33.9339 39.2835 32.1004 39.3673C30.118 39.4574 29.5227 39.477 24.5017 39.477C19.4805 39.477 18.8853 39.4574 16.9031 39.3673C15.0696 39.2827 14.0745 38.9764 13.4111 38.7189C12.5336 38.378 11.9067 37.9707 11.2485 37.3126C10.5904 36.6544 10.1831 36.0291 9.84139 35.1511C9.58395 34.489 9.27725 33.4939 9.19376 31.6604C9.10368 29.6781 9.08563 29.0827 9.08563 24.0609C9.08563 19.0393 9.10368 18.447 9.19376 16.4646C9.27763 14.6312 9.58395 13.636 9.84139 12.9732C10.1823 12.0955 10.5904 11.4688 11.2487 10.8106C11.9069 10.1525 12.5336 9.74496 13.4113 9.40347C14.0741 9.14491 15.0696 8.83933 16.9031 8.75509C18.6378 8.67667 19.3101 8.65317 22.8147 8.64922V8.65392ZM34.5396 11.7762C33.2938 11.7762 32.283 12.786 32.283 14.032C32.283 15.2779 33.2938 16.2886 34.5396 16.2886C35.7854 16.2886 36.7961 15.2779 36.7961 14.032C36.7961 12.7862 35.7854 11.7755 34.5396 11.7755V11.7762ZM24.5017 14.4128C19.1687 14.4128 14.8447 18.7368 14.8447 24.07C14.8447 29.4031 19.1687 33.725 24.5017 33.725C29.8348 33.725 34.1573 29.4031 34.1573 24.07C34.1573 18.737 29.8345 14.4128 24.5013 14.4128H24.5017ZM24.5017 17.8016C27.9634 17.8016 30.77 20.6078 30.77 24.07C30.77 27.5317 27.9634 30.3383 24.5017 30.3383C21.0397 30.3383 18.2335 27.5317 18.2335 24.07C18.2335 20.6078 21.0397 17.8016 24.5017 17.8016Z" fill="white"/>
<defs>
<radialGradient id="paint0_radial_273_495" cx="0" cy="0" r="1" gradientUnits="userSpaceOnUse" gradientTransform="translate(13.2172 51.8476) rotate(-90) scale(47.7102 44.3742)">
<stop stop-color="#FFDD55"/>
<stop offset="0.1" stop-color="#FFDD55"/>
<stop offset="0.5" stop-color="#FF543E"/>
<stop offset="1" stop-color="#C837AB"/>
</radialGradient>
<radialGradient id="paint1_radial_273_495" cx="0" cy="0" r="1" gradientUnits="userSpaceOnUse" gradientTransform="translate(-7.63356 3.46776) rotate(78.681) scale(21.3267 87.9094)">
<stop stop-color="#3771C8"/>
<stop offset="0.128" stop-color="#3771C8"/>
<stop offset="1" stop-color="#6600FF" stop-opacity="0"/>
</radialGradient>
</defs>
</svg>
