<svg width="57" height="6" viewBox="0 0 57 6" fill="none" xmlns="http://www.w3.org/2000/svg">
<g opacity="0.2">
<path d="M4.44337 2.82371C4.41346 3.23141 4.26453 3.62135 4.01505 3.94518C3.76557 4.26902 3.42651 4.51249 3.03993 4.6454C2.65335 4.77832 2.23625 4.79483 1.84037 4.69288C1.44449 4.59094 1.08725 4.37504 0.812945 4.07194C0.538644 3.76884 0.359364 3.39186 0.297322 2.9878C0.23528 2.58375 0.293205 2.17037 0.463933 1.79893C0.63466 1.4275 0.91068 1.11436 1.25774 0.898339C1.60479 0.68232 2.00761 0.572927 2.41626 0.583738C2.98093 0.615202 3.51044 0.868035 3.88992 1.28736C4.2694 1.70669 4.46825 2.25872 4.44337 2.82371Z" fill="white"/>
<path d="M10.8998 2.85417C10.9197 3.13992 10.8806 3.42668 10.785 3.69668C10.6894 3.96668 10.5392 4.21412 10.3438 4.42359C10.1485 4.63307 9.9121 4.80011 9.64941 4.91431C9.38673 5.02852 9.10335 5.08747 8.81692 5.08747C8.53048 5.08747 8.2471 5.02852 7.98442 4.91431C7.72173 4.80011 7.48536 4.63307 7.29 4.42359C7.09464 4.21412 6.94447 3.96668 6.84883 3.69668C6.75319 3.42668 6.71413 3.13992 6.73407 2.85417C6.71413 2.56843 6.75319 2.28164 6.84883 2.01164C6.94447 1.74164 7.09464 1.4942 7.29 1.28473C7.48536 1.07525 7.72173 0.908211 7.98442 0.794002C8.2471 0.679794 8.53048 0.62085 8.81692 0.62085C9.10335 0.62085 9.38673 0.679794 9.64941 0.794002C9.9121 0.908211 10.1485 1.07525 10.3438 1.28473C10.5392 1.4942 10.6894 1.74164 10.785 2.01164C10.8806 2.28164 10.9197 2.56843 10.8998 2.85417Z" fill="white"/>
<path d="M17.3661 2.8845C17.3362 3.2922 17.1873 3.68214 16.9378 4.00598C16.6883 4.32981 16.3492 4.57328 15.9627 4.7062C15.5761 4.83911 15.159 4.85562 14.7631 4.75367C14.3672 4.65173 14.01 4.43583 13.7357 4.13273C13.4614 3.82963 13.2821 3.45265 13.2201 3.04859C13.158 2.64454 13.2159 2.23116 13.3867 1.85972C13.5574 1.48829 13.8334 1.17515 14.1805 0.95913C14.5275 0.743111 14.9303 0.633718 15.339 0.644529C15.9027 0.67856 16.4307 0.932136 16.8096 1.35087C17.1886 1.76961 17.3883 2.32019 17.3661 2.8845Z" fill="white"/>
<path d="M23.8225 2.91478C23.7926 3.32247 23.6437 3.71241 23.3942 4.03625C23.1447 4.36008 22.8057 4.60355 22.4191 4.73647C22.0325 4.86939 21.6154 4.88589 21.2195 4.78395C20.8236 4.682 20.4664 4.46611 20.1921 4.16301C19.9178 3.8599 19.7385 3.48296 19.6765 3.0789C19.6144 2.67484 19.6724 2.26143 19.8431 1.89C20.0138 1.51856 20.2898 1.20542 20.6369 0.989404C20.9839 0.773385 21.3868 0.663992 21.7954 0.674803C22.3592 0.708833 22.8871 0.962409 23.266 1.38115C23.645 1.79989 23.8448 2.35046 23.8225 2.91478Z" fill="white"/>
<path d="M30.2789 2.93517C30.2509 3.34347 30.1036 3.73455 29.8552 4.0598C29.6068 4.38505 29.2683 4.63012 28.8817 4.76456C28.4952 4.89901 28.0777 4.91688 27.681 4.81597C27.2844 4.71506 26.9262 4.49983 26.6509 4.19701C26.3756 3.89418 26.1954 3.51713 26.1326 3.11271C26.0698 2.7083 26.1273 2.29438 26.2979 1.92236C26.4685 1.55034 26.7446 1.23665 27.092 1.02028C27.4394 0.803911 27.8427 0.694375 28.2518 0.705339C28.8137 0.739358 29.3401 0.991527 29.7187 1.40806C30.0974 1.8246 30.2984 2.37257 30.2789 2.93517Z" fill="white"/>
<path d="M36.7452 2.96543C36.7176 3.37162 36.5717 3.76085 36.3257 4.08523C36.0797 4.40962 35.7442 4.65503 35.3605 4.79121C34.9768 4.92738 34.5617 4.94841 34.1662 4.85171C33.7707 4.75501 33.4122 4.54477 33.1346 4.24691C32.8571 3.94905 32.6726 3.57655 32.6041 3.17524C32.5355 2.77392 32.5857 2.36132 32.7486 1.98819C32.9115 1.61506 33.1799 1.29768 33.5209 1.07513C33.8618 0.852588 34.2603 0.734567 34.6674 0.735602C35.2383 0.756737 35.7776 1.0033 36.167 1.42125C36.5565 1.8392 36.7644 2.39448 36.7452 2.96543Z" fill="white"/>
<path d="M43.2015 2.99599C43.2215 3.28173 43.1824 3.56852 43.0868 3.83852C42.9911 4.10852 42.841 4.35596 42.6456 4.56544C42.4502 4.77491 42.2138 4.94195 41.9512 5.05616C41.6885 5.17037 41.4051 5.22928 41.1187 5.22928C40.8322 5.22928 40.5488 5.17037 40.2862 5.05616C40.0235 4.94195 39.7871 4.77491 39.5918 4.56544C39.3964 4.35596 39.2462 4.10852 39.1506 3.83852C39.0549 3.56852 39.0159 3.28173 39.0358 2.99599C39.0159 2.71025 39.0549 2.42345 39.1506 2.15345C39.2462 1.88346 39.3964 1.63602 39.5918 1.42654C39.7871 1.21707 40.0235 1.05006 40.2862 0.935848C40.5488 0.82164 40.8322 0.762695 41.1187 0.762695C41.4051 0.762695 41.6885 0.82164 41.9512 0.935848C42.2138 1.05006 42.4502 1.21707 42.6456 1.42654C42.841 1.63602 42.9911 1.88346 43.0868 2.15345C43.1824 2.42345 43.2215 2.71025 43.2015 2.99599Z" fill="white"/>
<path d="M49.6579 3.02644C49.6303 3.43263 49.4844 3.82188 49.2384 4.14627C48.9924 4.47065 48.6569 4.71603 48.2732 4.85221C47.8895 4.98839 47.4744 5.00941 47.0789 4.91271C46.6834 4.81601 46.3249 4.60578 46.0473 4.30791C45.7698 4.01005 45.5854 3.63756 45.5168 3.23624C45.4482 2.83493 45.4984 2.42232 45.6613 2.0492C45.8242 1.67607 46.0926 1.35868 46.4335 1.13614C46.7745 0.913592 47.173 0.795603 47.5802 0.796638C48.1511 0.817772 48.6903 1.06431 49.0797 1.48226C49.4692 1.90021 49.6771 2.45548 49.6579 3.02644Z" fill="white"/>
<path d="M56.1144 3.05672C56.0865 3.46502 55.9391 3.8561 55.6907 4.18135C55.4423 4.5066 55.1039 4.75167 54.7173 4.88611C54.3308 5.02056 53.9132 5.03846 53.5166 4.93755C53.12 4.83665 52.7618 4.62138 52.4865 4.31856C52.2112 4.01573 52.0309 3.63868 51.9682 3.23426C51.9054 2.82985 51.9629 2.41593 52.1335 2.04391C52.304 1.67189 52.5802 1.3582 52.9275 1.14183C53.2749 0.925462 53.6782 0.815958 54.0873 0.826922C54.6492 0.86094 55.1756 1.11308 55.5543 1.52962C55.933 1.94615 56.134 2.49412 56.1144 3.05672Z" fill="white"/>
</g>
</svg>
