<svg width="39" height="39" viewBox="0 0 39 39" fill="none" xmlns="http://www.w3.org/2000/svg">
<path d="M34.125 16.25V6.5C34.125 4.7125 32.6625 3.25 30.875 3.25H4.875C3.0875 3.25 1.64125 4.7125 1.64125 6.5L1.625 26C1.625 27.7875 3.0875 29.25 4.875 29.25H22.75V21.125C22.75 18.4275 24.9275 16.25 27.625 16.25H34.125ZM17.875 17.875L4.875 9.75V6.5L17.875 14.625L30.875 6.5V9.75L17.875 17.875Z" fill="#FFA800"/>
<path d="M34.125 22.75V29.25C34.125 31.0375 32.6625 32.5 30.875 32.5C29.0875 32.5 27.625 31.0375 27.625 29.25V21.9375C27.625 21.4825 27.9825 21.125 28.4375 21.125C28.8925 21.125 29.25 21.4825 29.25 21.9375V29.25H32.5V21.9375C32.5 20.8601 32.072 19.8267 31.3101 19.0649C30.5483 18.303 29.5149 17.875 28.4375 17.875C27.3601 17.875 26.3267 18.303 25.5649 19.0649C24.803 19.8267 24.375 20.8601 24.375 21.9375V29.25C24.375 32.8413 27.2838 35.75 30.875 35.75C34.4663 35.75 37.375 32.8413 37.375 29.25V22.75H34.125Z" fill="#FFA800"/>
</svg>
