<svg width="421" height="351" viewBox="0 0 421 351" fill="none" xmlns="http://www.w3.org/2000/svg">
<path d="M236.208 0H34.6451V230.979H236.208V0Z" fill="#E6E6E6"/>
<path d="M396.5 14.3027H260.993V137.512H396.5V14.3027Z" fill="#E6E6E6"/>
<path d="M420.606 158.173H324.015V205.517H420.606V158.173Z" fill="#E6E6E6"/>
<path opacity="0.08" d="M204.166 124.514C204.166 124.514 193.815 121.89 191.227 129.048C188.64 136.207 164.618 126.887 161.728 148.137C160.118 159.984 137.074 181.319 107.1 187.831C77.1266 194.344 75.114 230.993 75.114 230.993H156.582L210.649 153.583L204.166 124.514Z" fill="black"/>
<path opacity="0.45" d="M220.581 350.889C309.639 350.889 381.835 335.022 381.835 315.448C381.835 295.874 309.639 280.007 220.581 280.007C131.523 280.007 59.3275 295.874 59.3275 315.448C59.3275 335.022 131.523 350.889 220.581 350.889Z" fill="#1CFF5B"/>
<path d="M195.956 156.391C195.956 156.391 125.414 149.092 128.073 185.53C130.733 221.967 170.281 299.559 170.281 299.559H256.924C256.924 299.559 322.679 201.096 290.692 169.43C258.706 137.765 251.389 164.953 195.956 156.391Z" fill="#2945FF"/>
<path d="M170.151 311.406L222.882 325.301L269.661 302.114L276.762 289.762H229.61H154.597L170.151 311.406Z" fill="#24285B"/>
<path d="M161.929 195.846C168.528 174.273 156.049 150.706 132.444 167.97C116.257 179.803 97.0653 217.546 96.0734 252.454C93.7733 332.727 194.62 246.376 207.155 200.408L194.749 193.249C194.749 193.249 173.832 231.751 151.047 240.088C134.601 246.11 152.168 227.722 161.929 195.846Z" fill="#68E1FD"/>
<path opacity="0.46" d="M161.929 195.846C168.528 174.273 156.049 150.706 132.444 167.97C116.257 179.803 97.0653 217.546 96.0734 252.454C93.7733 332.727 194.62 246.376 207.155 200.408L194.749 193.249C194.749 193.249 173.832 231.751 151.047 240.088C134.601 246.11 152.168 227.722 161.929 195.846Z" fill="#2945FF"/>
<path d="M195.956 156.391C195.956 156.391 185.102 173.066 195.74 179.031C206.378 184.996 209.785 178.189 209.785 178.189C209.785 178.189 217.707 187.312 224.794 180.238C231.881 173.164 230.875 159.072 223.658 152.573C216.441 146.074 195.956 156.391 195.956 156.391Z" fill="#24285B"/>
<path d="M198.428 156.896C198.941 159.982 199.272 163.093 199.42 166.216C199.564 170.427 200.959 176.813 207.859 178.048C218.483 179.971 221.3 163.577 221.3 163.577C221.3 163.577 227.985 148.137 216.484 146.102C206.076 144.137 196.315 142.79 198.428 156.896Z" fill="#F4A28C"/>
<path opacity="0.08" d="M239.372 180.027C239.372 180.027 232.788 193.53 249.435 221.223C258.966 237.084 229.597 263.542 229.597 263.542L156.524 270.687L170.282 299.559H256.925C256.925 299.559 294.992 239.091 297.925 207.987C300.857 176.883 239.372 180.027 239.372 180.027Z" fill="#2945FF"/>
<path d="M220.583 164.18C220.583 164.18 221.187 159.198 225.629 159.408C230.071 159.619 228.331 168.925 220.583 164.18Z" fill="#F4A28C"/>
<path d="M200.987 161.401C200.987 161.401 202.54 156.629 198.414 155.015C194.288 153.401 191.916 162.595 200.987 161.401Z" fill="#F4A28C"/>
<path d="M347.778 194.709C355.059 194.709 360.961 188.946 360.961 181.838C360.961 174.729 355.059 168.967 347.778 168.967C340.498 168.967 334.596 174.729 334.596 181.838C334.596 188.946 340.498 194.709 347.778 194.709Z" fill="#FF5454" fill-opacity="0.53"/>
<path d="M173.588 285.369L167.478 230.993H260.993L251.663 288.148L253 295.475L172.596 296.092L173.588 285.369Z" fill="#27114B"/>
<path opacity="0.08" d="M339.57 183.831C339.57 183.831 364.742 186.751 369.759 205.517H352.709L339.57 183.831Z" fill="black"/>
<path d="M211.224 311.406C211.224 311.406 228.978 317.469 222.882 325.302C216.787 333.134 207.155 320.122 207.155 320.122L211.224 311.406Z" fill="#68E1FD"/>
<path opacity="0.08" d="M260.992 230.993L242.461 254.854C231.642 268.802 217.027 279.501 200.283 285.734L172.595 296.05L246.745 295.475H252.999L251.662 288.148L260.992 230.993Z" fill="black"/>
<path d="M198.429 156.896C198.429 156.896 181.178 154.482 188.912 142.13C196.647 129.778 198.3 139.028 201.937 129.497C205.574 119.967 208.852 118.072 214.171 122.156C219.49 126.241 214.343 134.789 222.394 132.417C230.444 130.045 235.964 127.757 237.488 134.27C239.012 140.782 237.488 143.912 232.299 146.144C227.109 148.376 235.26 157.148 222.236 160.728C209.211 164.307 202.411 150.397 202.411 150.397L198.429 156.896Z" fill="#24285B"/>
<path d="M211.77 308.388C211.77 308.388 140.049 272.638 133.939 291.657C127.83 310.676 177.254 321.722 209.154 322.873L211.77 308.388Z" fill="#24285B"/>
<path d="M215.163 268.09C219.585 268.09 223.17 264.59 223.17 260.272C223.17 255.954 219.585 252.454 215.163 252.454C210.74 252.454 207.155 255.954 207.155 260.272C207.155 264.59 210.74 268.09 215.163 268.09Z" fill="white" fill-opacity="0.8"/>
<path d="M229.208 311.181C229.208 311.181 286.409 255.837 298.212 272.147C310.014 288.457 266.297 313.651 236.266 324.207L229.208 311.181Z" fill="#24285B"/>
<path d="M231.451 315.364C231.451 315.364 214.502 330.102 224.263 334.439C234.024 338.776 236.166 324.207 236.166 324.207L231.451 315.364Z" fill="#68E1FD"/>
<path d="M239.371 180.027C238.735 173.807 240.646 167.594 244.686 162.744C248.726 157.895 254.567 154.803 260.934 154.145C273.873 152.741 290.865 153.625 305.974 162.861C335.3 180.813 367.79 195.144 359.725 227.652C351.66 260.16 293.596 273.845 293.596 273.845L285.833 261.493C285.833 261.493 337.126 244.65 327.796 218.107C319.343 194.288 244.891 234.108 239.371 180.027Z" fill="#68E1FD"/>
<path opacity="0.46" d="M239.371 180.027C238.735 173.807 240.646 167.594 244.686 162.744C248.726 157.895 254.567 154.803 260.934 154.145C273.873 152.741 290.865 153.625 305.974 162.861C335.3 180.813 367.79 195.144 359.725 227.652C351.66 260.16 293.596 273.845 293.596 273.845L285.833 261.493C285.833 261.493 337.126 244.65 327.796 218.107C319.343 194.288 244.891 234.108 239.371 180.027Z" fill="#2945FF"/>
<path d="M287.113 263.542C287.113 263.542 270.926 274.224 276.806 277.171C282.686 280.119 292.619 272.287 292.619 272.287L287.113 263.542Z" fill="#F4A28C"/>
<path d="M196.919 194.499C196.919 194.499 202.67 180.631 210.648 181.754C218.627 182.877 206.206 199.861 206.206 199.861L196.919 194.499Z" fill="#F4A28C"/>
<path d="M115.724 27.5527H57.2288V105.846H115.724V27.5527Z" fill="#FF5454" fill-opacity="0.53"/>
<path d="M321.413 29.3774H276.172V70.2366H321.413V29.3774Z" fill="#FF5454" fill-opacity="0.53"/>
<path opacity="0.44" d="M321.413 81.6482H276.172V122.507H321.413V81.6482Z" fill="#FF5454" fill-opacity="0.53"/>
<path opacity="0.44" d="M381.476 81.6482H336.235V122.507H381.476V81.6482Z" fill="#FF5454" fill-opacity="0.53"/>
<path opacity="0.63" d="M279.553 62.5449L288.394 49.2106L298.802 61.0992L308.736 44.0312L318.037 62.7976V67.5137H279.553V62.5449Z" fill="#24285B"/>
<path d="M298.442 46.8247C300.935 46.8247 302.955 44.8515 302.955 42.4174C302.955 39.9832 300.935 38.01 298.442 38.01C295.949 38.01 293.927 39.9832 293.927 42.4174C293.927 44.8515 295.949 46.8247 298.442 46.8247Z" fill="#24285B"/>
<path d="M381.836 29.3774H336.595V70.2366H381.836V29.3774Z" fill="#FF5454" fill-opacity="0.53"/>
<path opacity="0.63" d="M339.973 62.5449L348.814 49.2106L359.208 61.0992L369.156 44.0312L378.457 62.7976V67.5137H339.973V62.5449Z" fill="#24285B"/>
<path d="M358.849 46.8247C361.342 46.8247 363.363 44.8515 363.363 42.4174C363.363 39.9832 361.342 38.01 358.849 38.01C356.356 38.01 354.335 39.9832 354.335 42.4174C354.335 44.8515 356.356 46.8247 358.849 46.8247Z" fill="#24285B"/>
<path d="M87.2468 133.722H0V182.61H87.2468V133.722Z" fill="#27114B"/>
<path d="M31.9002 170.202C31.4498 170.211 31.0111 170.061 30.6639 169.781L17.7257 159.787C17.4897 159.607 17.2986 159.377 17.1666 159.115C17.0347 158.852 16.9653 158.564 16.9637 158.271C16.9645 157.978 17.032 157.689 17.1613 157.424C17.2905 157.16 17.4784 156.927 17.7113 156.742L30.6495 146.565C31.0632 146.241 31.5917 146.091 32.1188 146.148C32.6458 146.205 33.1283 146.463 33.46 146.867C33.7917 147.271 33.9455 147.787 33.8875 148.302C33.8296 148.816 33.5646 149.287 33.1509 149.611L22.1534 158.243L33.1365 166.665C33.4617 166.916 33.6988 167.26 33.8149 167.649C33.931 168.037 33.9203 168.452 33.7845 168.834C33.6486 169.217 33.3943 169.549 33.0566 169.784C32.719 170.019 32.3149 170.145 31.9002 170.146V170.202Z" fill="#FCFCFC"/>
<path d="M55.3327 170.202C55.0306 170.204 54.7321 170.138 54.4604 170.009C54.1887 169.88 53.951 169.691 53.7657 169.458C53.4384 169.052 53.2894 168.536 53.3514 168.023C53.4134 167.51 53.6813 167.042 54.0964 166.721L65.0795 158.3L54.082 149.667C53.6607 149.343 53.3884 148.869 53.3251 148.35C53.2617 147.83 53.4125 147.307 53.7442 146.895C54.0759 146.484 54.5614 146.218 55.0938 146.156C55.6263 146.094 56.1621 146.242 56.5834 146.565L69.5216 156.742C69.7545 156.927 69.9424 157.16 70.0717 157.424C70.2009 157.689 70.2684 157.978 70.2692 158.271C70.2676 158.564 70.1983 158.852 70.0663 159.115C69.9344 159.377 69.7432 159.607 69.5073 159.787L56.569 169.781C56.2205 170.059 55.7827 170.208 55.3327 170.202Z" fill="#FCFCFC"/>
<path d="M38.1823 170.202C37.8957 170.2 37.6123 170.143 37.3485 170.034C36.8679 169.814 36.4955 169.418 36.3124 168.932C36.1293 168.445 36.1504 167.908 36.371 167.437L45.8015 147.281C45.9056 147.041 46.0579 146.825 46.2492 146.643C46.4406 146.462 46.6672 146.32 46.9157 146.225C47.1642 146.131 47.4296 146.086 47.6961 146.093C47.9627 146.1 48.2252 146.159 48.4679 146.267C48.7107 146.375 48.929 146.529 49.1098 146.72C49.2906 146.912 49.4304 147.136 49.5208 147.381C49.6113 147.626 49.6506 147.886 49.6365 148.146C49.6224 148.406 49.5551 148.661 49.4386 148.895L40.008 169.023C39.8527 169.371 39.5977 169.667 39.2737 169.876C38.9497 170.085 38.5707 170.199 38.1823 170.202Z" fill="#FCFCFC"/>
<path d="M86.4989 53.8147C90.9688 53.8147 94.5924 50.2767 94.5924 45.9124C94.5924 41.548 90.9688 38.01 86.4989 38.01C82.0289 38.01 78.4053 41.548 78.4053 45.9124C78.4053 50.2767 82.0289 53.8147 86.4989 53.8147Z" fill="#24285B"/>
<path opacity="0.56" d="M103.736 63.7661H70.2833V70.2368H103.736V63.7661Z" fill="#24285B"/>
<path opacity="0.19" d="M103.736 78.4058H70.2833V84.8764H103.736V78.4058Z" fill="#24285B"/>
<path opacity="0.46" d="M219.015 27.5527H135.419V75.9072H219.015V27.5527Z" fill="#24285B"/>
<path d="M219.015 89.719H135.419V105.847H219.015V89.719Z" fill="#24285B"/>
<path d="M219.015 89.719H194.749V105.847H219.015V89.719Z" fill="#FF5454" fill-opacity="0.53"/>
<path d="M403.312 173.655H370.967V179.382H403.312V173.655Z" fill="#FF5454" fill-opacity="0.53"/>
<path opacity="0.45" d="M403.312 184.294H370.967V190.021H403.312V184.294Z" fill="#FF5454" fill-opacity="0.53"/>
</svg>
