<svg width="55" height="65" viewBox="0 0 55 65" fill="none" xmlns="http://www.w3.org/2000/svg">
<g clip-path="url(#clip0_273_463)">
<path d="M2.27388 33.6038V26.567H3.80701V34.1416C3.87824 34.752 3.82581 35.3705 3.65284 35.9602C3.47987 36.5499 3.18991 37.0987 2.80025 37.5739C2.07591 38.1988 1.14774 38.5367 0.191187 38.5237L0.0311279 37.3797C0.647996 37.38 1.24311 37.1518 1.70154 36.739C2.11339 36.2584 2.27367 35.6062 2.27367 33.604L2.27388 33.6038ZM13.7079 32.7013C13.7079 33.5593 13.7079 34.3259 13.7766 34.9896H12.4149L12.3234 33.6281C12.0386 34.1098 11.6313 34.5075 11.143 34.7808C10.6546 35.0541 10.1027 35.1932 9.54312 35.184C8.21581 35.184 6.63693 34.4632 6.63693 31.5228V26.6373H8.17005V31.2139C8.17005 32.8042 8.66205 33.8683 10.0465 33.8683C10.3313 33.8714 10.6139 33.8175 10.8776 33.7099C11.1414 33.6024 11.381 33.4432 11.5824 33.2418C11.7838 33.0404 11.943 32.8008 12.0506 32.537C12.1581 32.2733 12.212 31.9907 12.2089 31.7059V26.5799H13.742V32.6555L13.7079 32.7013ZM16.6141 29.3594C16.6141 28.2952 16.6141 27.4258 16.5453 26.6362H17.9182L17.9869 28.0664C18.2928 27.5497 18.7332 27.1257 19.2611 26.8396C19.7891 26.5535 20.3847 26.416 20.9846 26.4418C23.0213 26.4418 24.5545 28.1466 24.5545 30.6864C24.5545 33.6842 22.7124 35.1717 20.7217 35.1717C20.2121 35.1945 19.7052 35.0853 19.2502 34.8548C18.7951 34.6242 18.4073 34.2802 18.1242 33.8558V38.4324H16.6138L16.6141 29.3594ZM18.1244 31.5905C18.1285 31.798 18.1515 32.0047 18.1929 32.2082C18.3227 32.7162 18.6182 33.1665 19.0327 33.4877C19.4471 33.809 19.9569 33.9828 20.4812 33.9817C22.0945 33.9817 23.0443 32.666 23.0443 30.7552C23.0443 29.0848 22.1517 27.6546 20.5384 27.6546C19.9 27.7069 19.3025 27.9902 18.8581 28.4515C18.4136 28.9128 18.1527 29.5204 18.1242 30.1603L18.1244 31.5905ZM27.2862 26.6287L29.1283 31.56C29.3253 32.1225 29.5046 32.691 29.666 33.2648C29.8261 32.7612 29.9977 32.1205 30.2038 31.5256L31.8742 26.6287H33.4875L31.1992 32.5781C30.0549 35.4386 29.3571 36.9146 28.3043 37.807C27.7742 38.2913 27.1278 38.6303 26.4279 38.791L26.0504 37.5095C26.5397 37.3487 26.9939 37.0963 27.3889 36.7659C27.9472 36.311 28.3902 35.7308 28.682 35.0725C28.7443 34.9586 28.7869 34.8347 28.8077 34.7064C28.7947 34.5683 28.76 34.4332 28.7048 34.3059L25.5928 26.6059H27.2632L27.2862 26.6287ZM37.5577 24.2282V26.6308H39.7544V27.7751H37.5577V32.2832C37.5577 33.3129 37.855 33.9078 38.7017 33.9078C39.0025 33.9128 39.3024 33.8782 39.5942 33.8047L39.6629 34.9489C39.2255 35.1005 38.7639 35.1704 38.3012 35.155C37.9949 35.1741 37.6879 35.1268 37.4016 35.0161C37.1152 34.9055 36.8562 34.7343 36.6422 34.5141C36.1761 33.8908 35.9635 33.1141 36.0471 32.3403V27.7637H34.743V26.6192H36.0701V24.5825L37.5577 24.228V24.2282ZM42.5786 31.0768C42.5476 31.4648 42.6012 31.855 42.7357 32.2202C42.8702 32.5855 43.0824 32.9172 43.3577 33.1925C43.6329 33.4677 43.9647 33.6799 44.3299 33.8144C44.6952 33.9489 45.0854 34.0024 45.4734 33.9714C46.2582 33.9889 47.038 33.8408 47.7617 33.5366L48.0249 34.6808C47.1367 35.0466 46.1817 35.222 45.2216 35.1956C44.6618 35.2339 44.1005 35.1507 43.5759 34.9517C43.0513 34.7527 42.5761 34.4426 42.1826 34.0426C41.7892 33.6426 41.4869 33.1623 41.2966 32.6345C41.1062 32.1068 41.0323 31.5441 41.0798 30.9851C41.0798 28.468 42.5786 26.4772 45.0271 26.4772C47.7731 26.4772 48.4597 28.8798 48.4597 30.4132C48.4743 30.6495 48.4743 30.8862 48.4597 31.1226H42.5444L42.5786 31.0768ZM47.0639 29.9326C47.1081 29.6267 47.0862 29.3148 46.9996 29.0181C46.9131 28.7214 46.764 28.4466 46.5623 28.2124C46.3606 27.9782 46.111 27.79 45.8304 27.6604C45.5498 27.5308 45.2447 27.4629 44.9356 27.4612C44.307 27.5068 43.7181 27.7854 43.2842 28.2426C42.8503 28.6997 42.6028 29.3024 42.5902 29.9326H47.0639ZM50.7858 29.2302C50.7858 28.2462 50.7858 27.3998 50.7171 26.6216H52.0901V28.2579H52.1589C52.303 27.7529 52.6007 27.3053 53.0108 26.9772C53.4209 26.6492 53.9229 26.4569 54.4472 26.4272C54.5915 26.4082 54.7377 26.4082 54.882 26.4272V27.8574C54.7072 27.8371 54.5305 27.8371 54.3557 27.8574C53.8363 27.8775 53.3419 28.0859 52.965 28.4439C52.5881 28.8018 52.3544 29.2847 52.3076 29.8024C52.2648 30.0365 52.2418 30.2738 52.2388 30.5118V34.9625H50.7287V29.2418L50.7858 29.2302Z" fill="#4E4E4E"/>
<path d="M50.1141 3.64419C50.161 4.4128 49.9781 5.178 49.5887 5.8423C49.1993 6.50661 48.6209 7.03996 47.9273 7.37441C47.2336 7.70886 46.4562 7.82927 45.6939 7.7203C44.9316 7.61133 44.219 7.27792 43.6468 6.76253C43.0747 6.24715 42.6689 5.57312 42.4812 4.8263C42.2934 4.07949 42.3323 3.2937 42.5927 2.56903C42.8531 1.84436 43.3234 1.21361 43.9435 0.757129C44.5637 0.30065 45.3057 0.0391035 46.075 0.00580667C46.5794 -0.0219916 47.0844 0.050212 47.5608 0.218265C48.0373 0.386318 48.4758 0.646904 48.8512 0.985036C49.2265 1.32317 49.5314 1.73217 49.7481 2.18853C49.9648 2.64489 50.0892 3.13959 50.1141 3.64419Z" fill="#767677"/>
<path d="M27.4899 48.4559C17.1925 48.4559 8.14216 44.7604 3.46265 39.3027C5.27839 44.2124 8.55463 48.448 12.8504 51.4395C17.1461 54.4309 22.2552 56.0345 27.4899 56.0345C32.7246 56.0345 37.8337 54.4309 42.1294 51.4395C46.4252 48.448 49.7014 44.2124 51.5172 39.3027C46.8491 44.7604 37.8331 48.4559 27.4899 48.4559ZM27.4899 12.9665C37.7874 12.9665 46.8377 16.6623 51.5172 22.1197C49.7014 17.2101 46.4251 12.9745 42.1294 9.983C37.8336 6.99155 32.7246 5.38783 27.4899 5.3877C22.2552 5.38771 17.1461 6.99138 12.8503 9.98285C8.55458 12.9743 5.27836 17.21 3.46265 22.1197C8.14216 16.6509 17.1469 12.9665 27.4899 12.9665Z" fill="#F37726"/>
<path d="M13.3144 59.0767C13.3747 60.0448 13.1456 61.0091 12.656 61.8465C12.1664 62.684 11.4386 63.3567 10.5653 63.7791C9.69206 64.2014 8.71281 64.3542 7.75237 64.218C6.79192 64.0818 5.89376 63.6628 5.17232 63.0143C4.45088 62.3659 3.93881 61.5173 3.70136 60.5768C3.46391 59.6362 3.51183 58.6463 3.83901 57.7331C4.16619 56.8198 4.75782 56.0247 5.53852 55.4489C6.31923 54.8732 7.25366 54.5429 8.22277 54.5001C8.85762 54.4661 9.49295 54.5576 10.0925 54.7692C10.692 54.9808 11.2439 55.3085 11.7167 55.7335C12.1896 56.1585 12.574 56.6725 12.8481 57.2462C13.1223 57.8198 13.2807 58.4418 13.3144 59.0767Z" fill="#9E9E9E"/>
<path d="M4.63287 11.7229C4.07793 11.7383 3.53084 11.5893 3.0604 11.2945C2.58995 10.9998 2.21716 10.5725 1.98892 10.0665C1.76067 9.5604 1.68715 8.99815 1.77762 8.45043C1.86808 7.9027 2.11848 7.39395 2.49733 6.98816C2.87618 6.58238 3.36656 6.29767 3.90679 6.16986C4.44703 6.04205 5.01299 6.07683 5.53351 6.26983C6.05403 6.46284 6.50585 6.80545 6.83216 7.25457C7.15847 7.70369 7.34469 8.23928 7.3674 8.79396C7.3891 9.54388 7.1141 10.2721 6.60212 10.8205C6.09014 11.3688 5.38251 11.6931 4.63287 11.7229Z" fill="#616262"/>
</g>
<defs>
<clipPath id="clip0_273_463">
<rect width="55" height="64.4531" fill="white"/>
</clipPath>
</defs>
</svg>
