<svg width="37" height="55" viewBox="0 0 37 55" fill="none" xmlns="http://www.w3.org/2000/svg">
<g clip-path="url(#clip0_273_476)">
<path d="M9.16667 54.9998C14.2267 54.9998 18.3333 50.8932 18.3333 45.8332V36.6665H9.16667C4.10667 36.6665 0 40.7732 0 45.8332C0 50.8932 4.10667 54.9998 9.16667 54.9998Z" fill="#0ACF83"/>
<path d="M0 27.5002C0 22.4402 4.10667 18.3335 9.16667 18.3335H18.3333V36.6668H9.16667C4.10667 36.6668 0 32.5602 0 27.5002Z" fill="#A259FF"/>
<path d="M0 9.16667C0 4.10667 4.10667 0 9.16667 0H18.3333V18.3333H9.16667C4.10667 18.3333 0 14.2267 0 9.16667Z" fill="#F24E1E"/>
<path d="M18.3334 0H27.5C32.56 0 36.6667 4.10667 36.6667 9.16667C36.6667 14.2267 32.56 18.3333 27.5 18.3333H18.3334V0Z" fill="#FF7262"/>
<path d="M36.6667 27.5002C36.6667 32.5602 32.56 36.6668 27.5 36.6668C22.44 36.6668 18.3334 32.5602 18.3334 27.5002C18.3334 22.4402 22.44 18.3335 27.5 18.3335C32.56 18.3335 36.6667 22.4402 36.6667 27.5002Z" fill="#1ABCFE"/>
</g>
<defs>
<clipPath id="clip0_273_476">
<rect width="36.6667" height="55" fill="white"/>
</clipPath>
</defs>
</svg>
