<svg width="948" height="1162" viewBox="0 0 948 1162" fill="none" xmlns="http://www.w3.org/2000/svg">
<path opacity="0.0144928" d="M793.05 801.868C798.74 810.476 797.762 821.995 790.671 829.894L702.319 928.315C698.261 932.835 692.637 935.651 686.645 936.164L482.588 953.616C477.931 954.015 473.304 952.999 469.317 950.705L320.745 865.186C313.266 860.882 309.004 852.658 309.743 843.958L318.999 734.906C319.737 726.206 325.349 718.529 333.485 715.09L495.117 646.754C499.454 644.921 504.209 644.425 508.755 645.333L707.953 685.123C713.803 686.292 718.898 689.701 722.154 694.627L793.05 801.868Z" stroke="url(#paint0_linear_273_182)" stroke-width="4"/>
<path opacity="0.0289855" d="M790.166 779.595C796.308 787.901 795.951 799.452 789.299 807.701L707.114 909.617C703.305 914.34 697.841 917.44 691.883 918.257L490.704 945.858C486.073 946.494 481.396 945.714 477.291 943.624L325.621 866.391C317.923 862.471 313.227 854.475 313.496 845.749L316.842 737.336C317.112 728.61 322.301 720.658 330.238 716.808L486.634 640.941C490.867 638.888 495.591 638.15 500.181 638.826L699.602 668.205C705.507 669.075 710.779 672.223 714.295 676.978L790.166 779.595Z" stroke="url(#paint1_linear_273_182)" stroke-width="4"/>
<path opacity="0.0434783" d="M786.608 757.593C793.182 765.574 793.449 777.118 787.258 785.691L711.385 890.743C707.836 895.655 702.545 899.031 696.637 900.151L498.88 937.628C494.287 938.499 489.571 937.957 485.355 936.075L331.064 867.185C323.169 863.66 318.05 855.915 317.848 847.19L315.363 739.702C315.161 730.977 319.911 722.775 327.627 718.526L478.406 635.493C482.525 633.225 487.207 632.247 491.83 632.691L690.895 651.771C696.841 652.342 702.277 655.22 706.045 659.794L786.608 757.593Z" stroke="url(#paint2_linear_273_182)" stroke-width="4"/>
<path opacity="0.057971" d="M782.396 735.895C789.384 743.528 790.274 755.028 784.563 763.896L715.125 871.721C711.848 876.811 706.743 880.453 700.9 881.872L507.091 928.926C502.546 930.03 497.8 929.726 493.484 928.057L337.047 867.544C328.975 864.421 323.447 856.95 322.774 848.252L314.55 741.97C313.877 733.272 318.175 724.845 325.646 720.211L470.451 630.394C474.446 627.916 479.075 626.701 483.722 626.91L681.862 635.837C687.836 636.107 693.424 638.709 697.434 643.089L782.396 735.895Z" stroke="url(#paint3_linear_273_182)" stroke-width="4"/>
<path opacity="0.0724638" d="M777.555 714.534C784.934 721.796 786.444 733.215 781.232 742.348L718.332 852.582C715.335 857.834 710.43 861.734 704.665 863.448L515.31 919.753C510.822 921.088 506.057 921.024 501.649 919.571L343.54 867.441C335.314 864.728 329.393 857.553 328.25 848.909L314.394 744.104C313.251 735.461 317.082 726.836 324.289 721.83L462.786 625.627C466.647 622.945 471.212 621.495 475.873 621.47L672.533 620.416C678.521 620.384 684.247 622.704 688.491 626.881L777.555 714.534Z" stroke="url(#paint4_linear_273_182)" stroke-width="4"/>
<path opacity="0.0869565" d="M772.109 693.538C779.857 700.41 781.98 711.709 777.284 721.077L721.002 833.353C718.295 838.755 713.603 842.902 707.93 844.907L523.51 910.114C519.09 911.677 514.316 911.853 509.825 910.619L350.514 866.855C342.155 864.559 335.858 857.7 334.249 849.138L314.879 746.072C313.27 737.51 316.625 728.715 323.545 723.353L455.428 621.175C459.146 618.295 463.637 616.612 468.302 616.353L662.94 605.52C668.928 605.186 674.78 607.218 679.248 611.18L772.109 693.538Z" stroke="url(#paint5_linear_273_182)" stroke-width="4"/>
<path opacity="0.101449" d="M766.085 672.937C774.177 679.399 776.905 690.539 772.739 700.11L723.136 814.064C720.726 819.599 716.259 823.983 710.692 826.276L531.666 900.011C527.324 901.799 522.55 902.216 517.985 901.205L357.937 865.764C349.467 863.889 342.812 857.367 340.742 848.913L315.99 747.84C313.92 739.387 316.789 730.449 323.403 724.749L448.392 617.02C451.956 613.947 456.364 612.035 461.023 611.541L653.115 591.157C659.088 590.523 665.054 592.261 669.734 595.999L766.085 672.937Z" stroke="url(#paint6_linear_273_182)" stroke-width="4"/>
<path opacity="0.115942" d="M759.511 652.756C767.922 658.79 771.243 669.735 767.619 679.476L724.733 794.742C722.629 800.396 718.399 805.006 712.952 807.581L539.751 889.451C535.496 891.462 530.733 892.119 526.103 891.334L365.775 864.15C357.218 862.699 350.225 856.534 347.701 848.215L317.711 749.378C315.187 741.06 317.563 732.009 323.852 725.986L441.691 613.142C445.094 609.883 449.408 607.745 454.052 607.016L643.088 577.337C649.034 576.403 655.099 577.843 659.982 581.346L759.511 652.756Z" stroke="url(#paint7_linear_273_182)" stroke-width="4"/>
<path opacity="0.130435" d="M752.417 633.019C761.12 638.61 765.019 649.324 761.946 659.201L725.797 775.415C724.005 781.174 720.023 785.999 714.709 788.851L547.741 878.44C543.583 880.671 538.84 881.569 534.154 881.013L373.997 861.996C365.375 860.972 358.065 855.181 355.096 847.023L320.022 750.658C317.052 742.499 318.93 733.364 324.876 727.038L435.34 609.523C438.572 606.085 442.782 603.724 447.401 602.761L632.894 564.065C638.798 562.833 644.949 563.97 650.023 567.23L752.417 633.019Z" stroke="url(#paint8_linear_273_182)" stroke-width="4"/>
<path opacity="0.144928" d="M744.833 613.749C753.799 618.883 758.259 629.329 755.746 639.308L726.331 756.112C724.858 761.959 721.136 766.987 715.967 770.11L555.609 866.987C551.558 869.435 546.845 870.573 542.113 870.248L382.567 859.286C373.905 858.69 366.3 853.291 362.896 845.318L322.902 751.649C319.498 743.676 320.874 734.486 326.461 727.876L429.35 606.142C432.402 602.532 436.5 599.952 441.084 598.754L622.564 551.346C628.413 549.818 634.637 550.648 639.89 553.656L744.833 613.749Z" stroke="url(#paint9_linear_273_182)" stroke-width="4"/>
<path opacity="0.15942" d="M736.79 594.966C745.99 599.63 750.991 609.776 749.042 619.823L726.341 736.859C725.193 742.779 721.74 747.998 716.731 751.385L563.332 855.103C559.398 857.763 554.725 859.142 549.956 859.05L391.452 856.007C382.771 855.841 374.895 850.847 371.068 843.085L326.331 752.326C322.505 744.564 323.377 735.347 328.588 728.474L423.733 602.98C426.596 599.204 430.57 596.408 435.11 594.977L612.131 539.182C617.912 537.36 624.194 537.88 629.615 540.628L736.79 594.966Z" stroke="url(#paint10_linear_273_182)" stroke-width="4"/>
<path opacity="0.173913" d="M728.319 576.688C737.724 580.873 743.244 590.686 741.863 600.766L725.835 717.683C725.016 723.659 721.842 729.057 717.005 732.702L570.886 842.796C567.078 845.665 562.455 847.284 557.658 847.428L400.615 852.149C391.94 852.41 383.816 847.837 379.582 840.309L330.284 752.664C326.05 745.135 326.419 735.921 331.239 728.806L418.497 600.015C421.163 596.081 425.005 593.074 429.491 591.41L601.628 527.575C607.327 525.462 613.653 525.668 619.229 528.149L728.319 576.688Z" stroke="url(#paint11_linear_273_182)" stroke-width="4"/>
<path opacity="0.188406" d="M719.455 558.932C729.034 562.628 735.049 572.08 734.234 582.159L724.82 698.611C724.334 704.626 721.449 710.189 716.797 714.084L578.247 830.08C574.576 833.154 570.013 835.012 565.198 835.394L410.022 847.703C401.374 848.389 393.029 844.249 388.402 836.977L334.738 752.639C330.111 745.367 329.979 736.184 334.396 728.849L413.653 597.226C416.112 593.142 419.812 589.927 424.233 588.032L591.089 516.523C596.692 514.122 603.047 514.012 608.764 516.218L719.455 558.932Z" stroke="url(#paint12_linear_273_182)" stroke-width="4"/>
<path opacity="0.202899" d="M710.229 541.712C719.952 544.914 726.435 553.976 726.185 564.019L723.307 679.666C723.156 685.704 720.57 691.419 716.115 695.557L585.393 816.969C581.869 820.242 577.377 822.338 572.553 822.96L419.636 842.661C411.039 843.769 402.498 840.072 397.495 833.078L339.666 752.23C334.663 745.236 334.034 736.113 338.036 728.58L409.207 594.592C411.451 590.366 414.998 586.948 419.345 584.823L580.545 506.023C586.039 503.337 592.408 502.91 598.254 504.835L710.229 541.712Z" stroke="url(#paint13_linear_273_182)" stroke-width="4"/>
<path opacity="0.217391" d="M700.675 525.04C710.513 527.744 717.435 536.391 717.745 546.365L721.306 660.874C721.494 666.917 719.214 672.771 714.969 677.143L592.303 803.475C588.934 806.945 584.524 809.277 579.703 810.14L429.421 837.02C420.897 838.544 412.187 835.3 406.827 828.603L345.043 751.417C339.683 744.72 338.563 735.684 342.137 727.977L405.165 592.09C407.187 587.731 410.571 584.116 414.833 581.762L570.029 496.07C575.4 493.105 581.769 492.359 587.729 493.997L700.675 525.04Z" stroke="url(#paint14_linear_273_182)" stroke-width="4"/>
<path opacity="0.231884" d="M690.828 508.927C700.749 511.13 708.081 519.34 708.944 529.211L718.831 642.258C719.359 648.29 717.393 654.267 713.371 658.864L598.955 789.616C595.753 793.275 591.435 795.843 586.626 796.947L439.341 830.775C430.913 832.711 422.061 829.926 416.362 823.545L350.842 750.182C345.143 743.801 343.539 734.879 346.678 727.021L401.533 589.699C403.324 585.215 406.535 581.408 410.701 578.829L559.574 486.658C564.807 483.418 571.16 482.352 577.221 483.698L690.828 508.927Z" stroke="url(#paint15_linear_273_182)" stroke-width="4"/>
<path opacity="0.246377" d="M680.722 493.382C690.695 495.084 698.407 502.835 699.814 512.573L715.896 623.842C716.763 629.844 715.119 635.93 711.332 640.742L605.33 775.408C602.305 779.251 598.09 782.052 593.305 783.399L449.36 823.927C441.049 826.267 432.083 823.946 426.067 817.898L357.034 748.507C351.017 742.459 348.939 733.678 351.634 725.693L398.314 587.396C399.866 582.798 402.894 578.805 406.954 576.002L549.21 477.779C554.293 474.269 560.614 472.884 566.761 473.933L680.722 493.382Z" stroke="url(#paint16_linear_273_182)" stroke-width="4"/>
<path opacity="0.26087" d="M670.391 478.411C680.386 479.613 688.446 486.889 690.386 496.461L712.514 605.646C713.721 611.601 712.406 617.781 708.865 622.798L611.409 760.868C608.57 764.889 604.471 767.92 599.72 769.511L459.442 816.476C451.27 819.212 442.217 817.36 435.904 811.66L363.591 746.379C357.278 740.68 354.735 732.064 356.979 723.977L395.511 585.16C396.817 580.458 399.651 576.286 403.594 573.261L538.968 469.422C543.887 465.649 550.16 463.945 556.378 464.693L670.391 478.411Z" stroke="url(#paint17_linear_273_182)" stroke-width="4"/>
<path opacity="0.275362" d="M659.868 464.018C669.857 464.725 678.233 471.51 680.692 480.888L708.703 587.692C710.247 593.582 709.268 599.84 705.985 605.05L617.174 746.015C614.533 750.207 610.56 753.465 605.854 755.299L469.551 808.426C461.54 811.549 452.428 810.167 445.84 804.829L370.484 743.784C363.896 738.447 360.901 730.021 362.689 721.857L393.126 582.968C394.176 578.173 396.807 573.828 400.621 570.586L528.878 461.576C533.619 457.547 539.828 455.526 546.102 455.97L659.868 464.018Z" stroke="url(#paint18_linear_273_182)" stroke-width="4"/>
<path opacity="0.289855" d="M649.189 450.208C659.143 450.424 667.802 456.705 670.766 465.861L704.479 569.999C706.359 575.806 705.72 582.125 702.707 587.518L622.608 730.869C620.175 735.224 616.341 738.706 611.693 740.783L479.653 799.782C471.822 803.281 462.678 802.369 455.838 797.407L377.684 740.711C370.843 735.748 367.409 727.535 368.738 719.32L391.157 580.798C391.946 575.921 394.362 571.411 398.037 567.956L518.97 454.228C523.519 449.95 529.648 447.614 535.962 447.751L649.189 450.208Z" stroke="url(#paint19_linear_273_182)" stroke-width="4"/>
<path opacity="0.304348" d="M638.387 436.98C648.279 436.712 657.188 442.48 660.64 451.386L699.861 552.585C702.073 558.293 701.78 564.656 699.047 570.217L627.697 715.45C625.481 719.96 621.799 723.66 617.22 725.979L489.714 790.55C482.083 794.415 472.933 793.971 465.864 789.394L385.16 737.15C378.091 732.573 374.231 724.594 375.099 716.352L389.605 578.628C390.126 573.681 392.317 569.016 395.839 565.352L509.272 447.362C513.616 442.844 519.648 440.196 525.987 440.024L638.387 436.98Z" stroke="url(#paint20_linear_273_182)" stroke-width="4"/>
<path opacity="0.318841" d="M627.496 424.335C637.299 423.592 646.427 428.838 650.348 437.47L694.868 535.468C697.408 541.058 697.463 547.448 695.022 553.165L632.426 699.779C630.438 704.434 626.919 708.349 622.422 710.908L499.698 780.74C492.286 784.958 483.158 784.98 475.882 780.798L392.884 733.092C385.608 728.91 381.338 721.188 381.744 712.943L388.465 576.436C388.712 571.433 390.668 566.62 394.027 562.753L499.811 440.962C503.936 436.213 509.854 433.257 516.202 432.776L627.496 424.335Z" stroke="url(#paint21_linear_273_182)" stroke-width="4"/>
<path opacity="0.333333" d="M616.55 412.27C626.237 411.061 635.552 415.781 639.924 424.115L689.52 518.665C692.381 524.119 692.789 530.518 690.649 536.377L636.782 683.878C635.032 688.669 631.69 692.792 627.286 695.589L509.573 770.363C502.398 774.92 493.318 775.403 485.859 771.623L400.824 728.533C393.365 724.753 388.703 717.306 388.647 709.085L387.736 574.2C387.702 569.154 389.413 564.205 392.597 560.14L490.613 435.011C494.506 430.041 500.294 426.782 506.635 425.99L616.55 412.27Z" stroke="url(#paint22_linear_273_182)" stroke-width="4"/>
<path opacity="0.347826" d="M605.581 400.781C615.13 399.117 624.599 403.307 629.4 411.321L683.837 502.189C687.013 507.491 687.776 513.88 685.947 519.866L640.754 667.77C639.252 672.686 636.098 677.009 631.801 680.041L519.307 759.43C512.387 764.313 503.38 765.25 495.761 761.879L408.952 723.466C401.333 720.095 396.294 712.943 395.779 704.769L387.411 571.9C387.092 566.825 388.548 561.751 391.545 557.496L481.703 429.489C485.352 424.309 490.993 420.753 497.311 419.652L605.581 400.781Z" stroke="url(#paint23_linear_273_182)" stroke-width="4"/>
<path opacity="0.362319" d="M594.622 389.862C604.009 387.755 613.603 391.414 618.812 399.088L677.841 486.054C681.325 491.186 682.443 497.548 680.934 503.645L644.332 651.476C643.087 656.506 640.134 661.023 635.957 664.286L528.869 747.955C522.22 753.15 513.31 754.534 505.555 751.576L417.235 717.89C409.481 714.932 404.084 708.091 403.113 699.99L387.485 569.515C386.875 564.426 388.067 559.237 390.865 554.8L473.104 424.376C476.496 418.997 481.974 415.151 488.252 413.742L594.622 389.862Z" stroke="url(#paint24_linear_273_182)" stroke-width="4"/>
<path opacity="0.376812" d="M583.706 379.506C592.908 376.969 602.597 380.098 608.191 387.414L671.553 470.272C675.336 475.219 676.811 481.534 675.629 487.725L647.508 635.022C646.528 640.152 643.788 644.853 639.744 648.343L538.227 735.955C531.865 741.446 523.077 743.267 515.209 740.726L425.646 711.801C417.778 709.26 412.042 702.748 410.621 694.743L387.949 567.024C387.046 561.936 387.965 556.646 390.552 552.036L464.839 419.649C467.962 414.084 473.261 409.957 479.483 408.241L583.706 379.506Z" stroke="url(#paint25_linear_273_182)" stroke-width="4"/>
<path opacity="0.391304" d="M572.863 369.704C581.861 366.751 591.615 369.352 597.572 376.293L664.997 454.855C669.069 459.6 670.899 465.849 670.051 472.118L650.273 618.43C649.568 623.647 647.054 628.524 643.156 632.235L547.354 723.446C541.293 729.217 532.649 731.466 524.691 729.344L434.154 705.202C426.196 703.08 420.139 696.91 418.274 689.026L388.796 564.408C387.597 559.337 388.234 553.96 390.599 549.186L456.929 415.287C459.771 409.55 464.874 405.149 471.024 403.131L572.863 369.704Z" stroke="url(#paint26_linear_273_182)" stroke-width="4"/>
<path opacity="0.405797" d="M562.125 360.445C570.898 357.09 580.69 359.167 586.986 365.718L658.195 439.812C662.545 444.338 664.728 450.503 664.222 456.831L652.623 601.724C652.2 607.015 649.923 612.055 646.184 615.981L556.221 710.447C550.475 716.481 541.997 719.147 533.971 717.445L442.73 698.093C434.704 696.39 428.346 690.577 426.045 682.836L390.016 561.647C388.519 556.611 388.866 551.161 390.998 546.233L449.392 411.265C451.942 405.371 456.834 400.706 462.896 398.388L562.125 360.445Z" stroke="url(#paint27_linear_273_182)" stroke-width="4"/>
<path opacity="0.42029" d="M551.52 351.717C560.052 347.976 569.855 349.534 576.466 355.682L651.169 425.15C655.786 429.444 658.32 435.504 658.159 441.873L654.554 584.929C654.419 590.277 652.392 595.47 648.825 599.604L564.802 696.978C559.384 703.258 551.092 706.329 543.02 705.046L451.344 690.477C443.272 689.194 436.633 683.749 433.905 676.175L391.598 558.724C389.802 553.738 389.853 548.231 391.741 543.161L442.247 407.559C444.495 401.522 449.16 396.606 455.118 393.993L551.52 351.717Z" stroke="url(#paint28_linear_273_182)" stroke-width="4"/>
<path opacity="0.434783" d="M541.079 343.508C549.352 339.395 559.14 340.441 566.042 346.173L643.945 410.878C648.816 414.924 651.695 420.861 651.885 427.251L656.062 568.068C656.222 573.458 654.455 578.791 651.073 583.124L573.072 683.06C567.993 689.568 559.906 693.031 551.811 692.166L459.968 682.358C451.872 681.494 444.973 676.43 441.828 669.045L393.531 555.621C391.436 550.703 391.184 545.155 392.818 539.955L435.508 404.144C437.445 397.981 441.869 392.824 447.707 389.921L541.079 343.508Z" stroke="url(#paint29_linear_273_182)" stroke-width="4"/>
<path opacity="0.449275" d="M530.829 335.801C538.827 331.334 548.577 331.874 555.746 337.181L636.545 397C641.656 400.784 644.875 406.578 645.418 412.97L657.147 551.165C657.607 556.581 656.11 562.04 652.925 566.564L581.005 668.716C576.276 675.433 568.415 679.275 560.316 678.826L468.574 673.744C460.475 673.296 453.337 668.623 449.787 661.448L395.801 552.321C393.41 547.488 392.85 541.916 394.22 536.601L429.19 400.993C430.808 394.72 434.976 389.335 440.679 386.15L530.829 335.801Z" stroke="url(#paint30_linear_273_182)" stroke-width="4"/>
<path opacity="0.463768" d="M520.798 328.58C528.507 323.775 538.194 323.818 545.605 328.69L628.992 383.52C634.33 387.029 637.882 392.661 638.779 399.036L657.809 534.245C658.573 539.669 657.356 545.239 654.381 549.944L588.582 653.969C584.212 660.877 576.593 665.083 568.512 665.047L477.134 664.642C469.053 664.606 461.696 660.334 457.754 653.389L398.394 548.808C395.71 544.079 394.838 538.499 395.936 533.083L423.306 398.08C424.597 391.715 428.496 386.116 434.049 382.655L520.798 328.58Z" stroke="url(#paint31_linear_273_182)" stroke-width="4"/>
<path opacity="0.478261" d="M511.011 321.829C518.419 316.701 528.02 316.256 535.648 320.687L621.312 370.441C626.86 373.664 630.738 379.114 631.99 385.451L658.05 517.33C659.12 522.745 658.192 528.411 655.438 533.285L595.78 638.843C591.778 645.924 584.418 650.479 576.375 650.852L485.622 655.059C477.579 655.432 470.024 651.569 465.704 644.873L401.298 545.067C398.324 540.459 397.137 534.891 397.955 529.388L417.867 395.378C418.824 388.939 422.442 383.14 427.829 379.411L511.011 321.829Z" stroke="url(#paint32_linear_273_182)" stroke-width="4"/>
<path opacity="0.492754" d="M501.493 315.527C508.587 310.094 518.081 309.17 525.903 313.153L613.526 357.765C619.269 360.689 623.463 365.94 625.069 372.219L657.873 500.444C659.251 505.833 658.62 511.578 656.098 516.61L602.581 623.365C598.954 630.599 591.868 635.488 583.884 636.265L494.01 645.007C486.025 645.784 478.294 642.336 473.611 635.91L404.496 541.085C401.238 536.615 399.734 531.077 400.264 525.503L412.882 392.86C413.5 386.365 416.824 380.382 422.032 376.393L501.493 315.527Z" stroke="url(#paint33_linear_273_182)" stroke-width="4"/>
<path opacity="0.507246" d="M492.269 309.656C499.037 303.933 508.403 302.542 516.395 306.071L605.66 345.492C611.581 348.107 616.079 353.14 618.037 359.34L657.282 483.611C658.969 488.953 658.641 494.761 656.361 499.938L608.966 607.56C605.721 614.928 598.925 620.135 591.017 621.31L502.273 634.497C494.366 635.672 486.481 632.647 481.45 626.508L407.972 536.847C404.437 532.534 402.616 527.045 402.852 521.417L408.357 390.497C408.632 383.965 411.652 377.815 416.667 373.575L492.269 309.656Z" stroke="url(#paint34_linear_273_182)" stroke-width="4"/>
<path opacity="0.521739" d="M483.36 304.193C489.792 298.198 499.011 296.349 507.148 299.421L597.735 333.621C603.817 335.916 608.609 340.714 610.915 346.816L656.284 466.852C658.279 472.129 658.26 477.981 656.232 483.292L614.922 591.455C612.063 598.939 605.569 604.447 597.757 606.014L510.388 623.541C502.576 625.108 494.558 622.51 489.197 616.675L411.709 532.343C407.905 528.203 405.768 522.783 405.706 517.118L404.3 388.263C404.228 381.714 406.934 375.411 411.742 370.931L483.36 304.193Z" stroke="url(#paint35_linear_273_182)" stroke-width="4"/>
<path opacity="0.536232" d="M474.787 299.116C480.875 292.866 489.927 290.571 498.185 293.182L589.776 322.148C596 324.117 601.073 328.662 603.722 334.645L654.886 450.188C657.186 455.382 657.481 461.261 655.714 466.69L620.432 575.078C617.965 582.658 611.786 588.452 604.088 590.404L518.329 612.153C510.631 614.105 502.503 611.94 496.829 606.425L415.692 527.562C411.628 523.612 409.177 518.279 408.813 512.595L400.712 386.13C400.293 379.582 402.677 373.145 407.265 368.435L474.787 299.116Z" stroke="url(#paint36_linear_273_182)" stroke-width="4"/>
<path opacity="0.550725" d="M466.57 294.402C472.304 287.914 481.172 285.184 489.527 287.333L581.804 311.073C588.152 312.706 593.491 316.983 596.477 322.826L653.096 433.642C655.697 438.734 656.309 444.621 654.811 450.154L625.485 558.457C623.412 566.114 617.56 572.176 609.994 574.506L526.074 600.349C518.508 602.679 510.291 600.949 504.323 595.769L419.901 522.493C415.588 518.749 412.828 513.524 412.159 507.838L397.598 384.07C396.83 377.544 398.883 370.99 403.24 366.061L466.57 294.402Z" stroke="url(#paint37_linear_273_182)" stroke-width="4"/>
<path opacity="0.565217" d="M458.728 290.027C464.1 283.318 472.766 280.164 481.194 281.85L573.842 300.387C580.295 301.678 585.886 305.672 589.2 311.357L650.924 417.233C653.822 422.203 654.752 428.08 653.53 433.702L630.071 541.621C628.395 549.335 622.88 555.649 615.463 558.349L533.602 588.144C526.184 590.844 517.901 589.551 511.659 584.72L424.319 517.128C419.769 513.606 416.704 508.507 415.729 502.837L394.957 382.055C393.841 375.57 395.557 368.918 399.67 363.781L458.728 290.027Z" stroke="url(#paint38_linear_273_182)" stroke-width="4"/>
<path opacity="0.57971" d="M451.276 285.966C456.28 279.052 464.725 275.487 473.203 276.711L565.912 290.088C572.45 291.031 578.276 294.726 581.91 300.234L648.381 400.981C651.569 405.812 652.818 411.659 651.878 417.355L634.181 524.599C632.902 532.35 627.735 538.9 620.484 541.96L540.891 575.556C533.639 578.616 525.311 577.763 518.815 573.294L428.929 511.459C424.154 508.175 420.791 503.221 419.509 497.585L392.788 380.06C391.327 373.635 392.7 366.902 396.559 361.57L451.276 285.966Z" stroke="url(#paint39_linear_273_182)" stroke-width="4"/>
<path opacity="0.594203" d="M444.23 282.192C448.859 275.091 457.068 271.128 465.572 271.889L558.035 280.167C564.639 280.758 570.682 284.14 574.625 289.453L645.479 384.904C648.949 389.578 650.516 395.376 649.863 401.131L637.808 507.419C636.927 515.189 632.116 521.956 625.047 525.369L547.921 562.602C540.853 566.014 532.503 565.601 525.773 561.505L433.71 505.481C428.725 502.447 425.072 497.657 423.485 492.073L391.088 378.057C389.285 371.711 390.311 364.916 393.906 359.401L444.23 282.192Z" stroke="url(#paint40_linear_273_182)" stroke-width="4"/>
<path opacity="0.608696" d="M437.603 278.68C441.851 271.408 449.807 267.06 458.314 267.361L550.231 270.616C556.88 270.851 563.123 273.909 567.364 279.008L642.231 369.02C645.974 373.52 647.856 379.251 647.495 385.049L640.946 490.112C640.462 497.881 636.016 504.848 629.147 508.603L554.675 549.302C547.806 553.056 539.456 553.082 532.514 549.371L438.645 499.187C433.465 496.418 429.531 491.808 427.641 486.294L389.854 376.019C387.713 369.772 388.389 362.933 391.709 357.249L437.603 278.68Z" stroke="url(#paint41_linear_273_182)" stroke-width="4"/>
<path opacity="0.623188" d="M431.407 275.402C435.268 267.977 442.956 263.257 451.442 263.101L542.52 261.426C549.195 261.303 555.619 264.025 560.145 268.895L638.649 353.345C642.655 357.656 644.85 363.301 644.783 369.125L643.593 472.705C643.504 480.456 639.431 487.605 632.776 491.691L561.135 535.675C554.48 539.761 546.153 540.225 539.022 536.907L443.714 492.573C438.355 490.08 434.151 485.669 431.962 480.242L389.079 373.922C386.606 367.792 386.93 360.927 389.967 355.087L431.407 275.402Z" stroke="url(#paint42_linear_273_182)" stroke-width="4"/>
<path opacity="0.637681" d="M425.652 272.331C429.122 264.77 436.525 259.693 444.968 259.083L534.922 252.588C541.601 252.105 548.186 254.481 552.984 259.105L634.749 337.897C639.007 342.001 641.51 347.543 641.739 353.378L645.747 455.229C646.05 462.942 642.356 470.256 635.932 474.662L567.285 521.743C560.861 526.149 552.579 527.048 545.28 524.133L448.9 485.636C443.378 483.43 438.914 479.234 436.431 473.912L388.756 371.74C385.958 365.744 385.928 358.872 388.674 352.89L425.652 272.331Z" stroke="url(#paint43_linear_273_182)" stroke-width="4"/>
<path opacity="0.652174" d="M420.345 269.439C423.421 261.76 430.524 256.339 438.899 255.281L527.454 244.09C534.118 243.248 540.844 245.269 545.899 249.632L630.545 322.689C635.044 326.572 637.849 331.993 638.376 337.824L647.407 437.711C648.1 445.369 644.792 452.829 638.613 457.544L573.11 507.526C566.931 512.241 558.718 513.572 551.274 511.066L454.182 478.374C448.514 476.465 443.805 472.499 441.033 467.298L388.876 369.449C385.762 363.605 385.378 356.744 387.825 350.634L420.345 269.439Z" stroke="url(#paint44_linear_273_182)" stroke-width="4"/>
<path opacity="0.666667" d="M415.494 266.698C418.171 258.918 424.96 253.17 433.244 251.668L520.135 235.921C526.762 234.72 533.609 236.378 538.905 240.466L626.055 307.736C630.78 311.384 633.88 316.667 634.705 322.477L648.577 420.182C649.654 427.766 646.737 435.355 640.819 440.365L578.598 493.048C572.679 498.058 564.556 499.818 556.992 497.726L459.543 470.785C453.747 469.183 448.805 465.461 445.751 460.397L389.43 367.025C386.008 361.35 385.272 354.518 387.414 348.294L415.494 266.698Z" stroke="url(#paint45_linear_273_182)" stroke-width="4"/>
<path opacity="0.681159" d="M411.102 264.079C413.379 256.216 419.838 250.156 428.009 248.219L512.981 228.068C519.551 226.51 526.498 227.799 532.02 231.599L621.294 293.051C626.233 296.45 629.62 301.579 630.742 307.354L649.26 402.669C650.716 410.162 648.195 417.86 642.551 423.154L583.735 478.329C578.092 483.623 570.082 485.804 562.421 484.132L464.964 462.87C459.059 461.582 453.897 458.117 450.569 453.207L390.407 364.446C386.685 358.956 385.599 352.17 387.43 345.847L411.102 264.079Z" stroke="url(#paint46_linear_273_182)" stroke-width="4"/>
<path opacity="0.695652" d="M407.173 261.555C409.047 253.627 415.163 247.272 423.197 244.906L506.008 220.518C512.501 218.606 519.525 219.52 525.256 223.021L616.279 278.644C621.417 281.784 625.084 286.743 626.501 292.468L649.462 385.2C651.29 392.584 649.169 400.373 643.814 405.936L588.513 463.394C583.158 468.957 575.285 471.553 567.551 470.305L470.426 454.629C464.43 453.661 459.065 450.466 455.47 445.723L391.793 361.689C387.784 356.398 386.35 349.676 387.864 343.269L407.173 261.555Z" stroke="url(#paint47_linear_273_182)" stroke-width="4"/>
<path opacity="0.710145" d="M403.708 259.097C405.177 251.123 410.936 244.49 418.81 241.705L499.231 213.258C505.627 210.995 512.707 211.53 518.629 214.722L611.028 264.528C616.35 267.397 620.287 272.171 621.998 277.831L649.189 367.802C651.382 375.061 649.664 382.921 644.612 388.74L592.922 448.265C587.87 454.084 580.155 457.086 572.372 456.263L475.911 446.064C469.843 445.422 464.289 442.509 460.438 437.946L393.574 358.734C389.289 353.657 387.512 347.016 388.705 340.539L403.708 259.097Z" stroke="url(#paint48_linear_273_182)" stroke-width="4"/>
<path opacity="0.724638" d="M400.706 256.677C401.77 248.675 407.159 241.784 414.85 238.59L492.664 206.271C498.942 203.664 506.057 203.816 512.152 206.689L605.56 250.712C611.05 253.299 615.247 257.876 617.248 263.457L648.45 350.501C651.001 357.618 649.688 365.532 644.951 371.589L596.955 432.968C592.218 439.025 584.683 442.425 576.876 442.029L481.402 437.177C475.28 436.865 469.554 434.244 465.456 429.875L395.737 355.56C391.188 350.711 389.071 344.166 389.94 337.635L400.706 256.677Z" stroke="url(#paint49_linear_273_182)" stroke-width="4"/>
<path opacity="0.73913" d="M398.164 254.267C398.823 246.257 403.829 239.126 411.314 235.535L486.321 199.544C492.461 196.597 499.588 196.367 505.839 198.911L599.892 237.204C605.535 239.502 609.982 243.868 612.269 249.356L647.256 333.323C650.156 340.283 649.25 348.23 644.841 354.511L600.605 417.525C596.196 423.805 588.864 427.593 581.058 427.622L486.881 427.971C480.725 427.994 474.842 425.673 470.508 421.511L398.265 352.149C393.464 347.539 391.014 341.108 391.555 334.537L398.164 254.267Z" stroke="url(#paint50_linear_273_182)" stroke-width="4"/>
<path opacity="0.753623" d="M396.077 251.841C396.334 243.841 400.944 236.491 408.201 232.515L480.213 193.059C486.195 189.781 493.313 189.167 499.7 191.376L594.043 224.013C599.824 226.013 604.51 230.156 607.079 235.538L645.619 316.294C648.858 323.081 648.36 331.041 644.29 337.528L603.869 401.96C599.8 408.447 592.693 412.609 584.912 413.062L492.33 418.452C486.159 418.811 480.136 416.799 475.576 412.855L401.142 348.482C396.102 344.124 393.324 337.821 393.535 331.226L396.077 251.841Z" stroke="url(#paint51_linear_273_182)" stroke-width="4"/>
<path opacity="0.768116" d="M394.441 249.371C394.296 241.401 398.5 233.854 405.507 229.507L474.35 186.802C480.156 183.201 487.243 182.203 493.748 184.071L588.033 211.145C593.935 212.84 598.849 216.749 601.695 222.013L643.552 299.437C647.119 306.035 647.028 313.99 643.309 320.665L606.745 386.299C603.026 392.974 596.165 397.498 588.435 398.372L497.734 408.623C491.567 409.32 485.42 407.625 480.644 403.908L404.349 344.543C399.084 340.447 395.985 334.288 395.865 327.684L394.441 249.371Z" stroke="url(#paint52_linear_273_182)" stroke-width="4"/>
<path opacity="0.782609" d="M393.246 246.832C392.703 238.911 396.491 231.188 403.226 226.488L468.744 180.755C474.354 176.84 481.388 175.461 487.993 176.982L581.88 198.606C587.888 199.99 593.019 203.654 596.137 208.788L641.07 282.775C644.954 289.17 645.269 297.099 641.911 303.944L609.23 370.564C605.872 377.409 599.278 382.28 591.623 383.57L503.075 398.492C496.931 399.527 490.676 398.154 485.696 394.676L407.867 340.316C402.392 336.492 398.979 330.49 398.527 323.892L393.246 246.832Z" stroke="url(#paint53_linear_273_182)" stroke-width="4"/>
<path opacity="0.797101" d="M392.483 244.197C391.546 236.345 394.909 228.471 401.351 223.433L463.403 174.902C468.799 170.682 475.758 168.925 482.444 170.095L575.605 186.401C581.702 187.468 587.038 190.878 590.423 195.871L638.188 266.329C642.378 272.509 643.097 280.391 640.109 287.386L611.325 354.781C608.338 361.776 602.03 366.978 594.476 368.678L508.338 388.064C502.235 389.437 495.889 388.392 490.717 385.16L411.678 335.786C406.006 332.243 402.287 326.413 401.503 319.836L392.483 244.197Z" stroke="url(#paint54_linear_273_182)" stroke-width="4"/>
<path opacity="0.811594" d="M392.141 241.443C390.817 233.679 393.746 225.679 399.875 220.322L458.335 169.225C463.498 164.712 470.362 162.581 477.109 163.397L569.227 174.533C575.398 175.279 580.927 178.426 584.572 183.266L634.925 250.121C639.407 256.071 640.526 263.887 637.918 271.011L613.033 338.971C610.425 346.096 604.424 351.612 596.993 353.715L513.508 377.346C507.464 379.056 501.044 378.343 495.689 375.367L415.761 330.94C409.907 327.686 405.89 322.041 404.774 315.5L392.141 241.443Z" stroke="url(#paint55_linear_273_182)" stroke-width="4"/>
<path opacity="0.826087" d="M392.208 238.546C390.502 230.891 392.992 222.789 398.788 217.134L453.546 163.706C458.459 158.912 465.206 156.413 471.996 156.872L562.765 163.006C568.994 163.427 574.705 166.301 578.605 170.978L631.299 234.169C636.059 239.878 637.575 247.607 635.352 254.84L614.357 323.16C612.135 330.393 606.458 336.204 599.177 338.701L518.569 366.346C512.603 368.393 506.124 368.016 500.599 365.303L420.095 325.766C414.073 322.808 409.768 317.361 408.322 310.872L392.208 238.546Z" stroke="url(#paint56_linear_273_182)" stroke-width="4"/>
<path opacity="0.84058" d="M392.669 235.483C390.59 227.956 392.635 219.779 398.08 213.847L449.042 158.329C453.688 153.267 460.298 150.405 467.112 150.506L556.239 151.82C562.511 151.912 568.393 154.507 572.542 159.011L627.33 218.493C632.354 223.948 634.26 231.57 632.429 238.889L615.303 307.369C613.472 314.688 608.138 320.774 601.029 323.656L523.507 355.074C517.637 357.453 511.115 357.417 505.431 354.974L424.659 320.252C418.484 317.597 413.899 312.361 412.125 305.938L392.669 235.483Z" stroke="url(#paint57_linear_273_182)" stroke-width="4"/>
<path opacity="0.855072" d="M393.509 232.234C391.066 224.854 392.663 216.629 397.74 210.444L444.827 153.074C449.19 147.759 455.643 144.542 462.462 144.283L549.67 140.977C555.968 140.738 562.01 143.045 566.401 147.367L623.037 203.108C628.311 208.299 630.6 215.793 629.166 223.176L615.875 291.62C614.442 299.004 609.467 305.343 602.553 308.597L528.308 343.538C522.552 346.247 516.002 346.553 510.171 344.387L429.43 314.389C423.117 312.043 418.262 307.03 416.163 300.687L393.509 232.234Z" stroke="url(#paint58_linear_273_182)" stroke-width="4"/>
<path opacity="0.869565" d="M394.711 228.778C391.915 221.564 393.063 213.319 397.756 206.904L440.905 147.926C444.969 142.371 451.245 138.807 458.051 138.19L543.077 130.476C549.387 129.903 555.577 131.917 560.204 136.046L618.443 188.031C623.951 192.947 626.615 200.293 625.581 207.718L616.084 275.936C615.05 283.36 610.449 289.931 603.754 293.544L532.958 331.748C527.334 334.783 520.773 335.435 514.806 333.551L434.387 308.169C427.95 306.137 422.835 301.357 420.415 295.11L394.711 228.778Z" stroke="url(#paint59_linear_273_182)" stroke-width="4"/>
<path opacity="0.884058" d="M396.257 225.097C393.12 218.067 393.819 209.83 398.114 203.212L437.278 142.864C441.028 137.086 447.108 133.185 453.881 132.209L536.48 120.315C542.786 119.407 549.113 121.12 553.969 125.049L613.571 173.274C619.296 177.906 622.325 185.085 621.693 192.527L615.937 260.335C615.306 267.777 611.092 274.555 604.638 278.513L537.446 319.714C531.971 323.071 525.414 324.07 519.321 322.475L439.505 301.584C432.959 299.871 427.596 295.336 424.857 289.198L396.257 225.097Z" stroke="url(#paint60_linear_273_182)" stroke-width="4"/>
<path opacity="0.898551" d="M398.127 221.172C394.664 214.346 394.917 206.145 398.801 199.351L433.948 137.873C437.369 131.888 443.233 127.659 449.957 126.328L529.898 110.494C536.185 109.248 542.639 110.654 547.718 114.374L608.443 158.85C614.369 163.191 617.751 170.183 617.522 177.618L615.447 244.839C615.217 252.275 611.404 259.235 605.212 263.522L541.758 307.447C536.451 311.121 529.912 312.469 523.704 311.168L444.762 294.629C438.122 293.238 432.521 288.959 429.47 282.945L398.127 221.172Z" stroke="url(#paint61_linear_273_182)" stroke-width="4"/>
<path opacity="0.913043" d="M400.303 216.989C396.527 210.383 396.339 202.246 399.802 195.304L430.913 132.934C433.993 126.76 439.623 122.214 446.278 120.529L523.352 101.007C529.604 99.4235 536.173 100.515 541.469 104.018L603.082 144.771C609.192 148.812 612.916 155.599 613.087 163.003L614.624 229.466C614.795 236.871 611.392 243.988 605.483 248.586L545.884 294.959C540.761 298.945 534.257 300.642 527.944 299.641L450.134 287.3C443.415 286.234 437.587 282.22 434.229 276.344L400.303 216.989Z" stroke="url(#paint62_linear_273_182)" stroke-width="4"/>
<path opacity="0.927536" d="M402.763 212.533C398.69 206.163 398.068 198.12 401.101 191.058L428.174 128.03C430.899 121.686 436.277 116.835 442.845 114.799L516.859 91.8521C523.063 89.9288 529.736 90.7007 535.242 93.9785L597.514 131.046C603.79 134.781 607.841 141.343 608.41 148.694L613.481 214.235C614.05 221.585 611.067 228.832 605.459 233.723L549.811 282.261C544.891 286.553 538.436 288.602 532.03 287.905L455.597 279.593C448.814 278.855 442.771 275.116 439.112 269.392L402.763 212.533Z" stroke="url(#paint63_linear_273_182)" stroke-width="4"/>
<path opacity="0.942029" d="M405.485 207.792C401.134 201.673 400.086 193.751 402.683 186.6L425.728 123.144C428.087 116.648 433.196 111.506 439.659 109.123L510.44 83.0229C516.579 80.7593 523.346 81.2053 529.057 84.25L591.764 117.681C598.186 121.106 602.55 127.427 603.512 134.698L612.034 199.16C612.996 206.432 610.439 213.781 605.152 218.945L553.531 269.365C548.83 273.957 542.44 276.358 535.95 275.971L461.128 271.506C454.296 271.099 448.05 267.644 444.097 262.085L405.485 207.792Z" stroke="url(#paint64_linear_273_182)" stroke-width="4"/>
<path opacity="0.956522" d="M408.447 202.753C403.836 196.9 402.375 189.126 404.531 181.916L423.571 118.26C425.554 111.632 430.377 106.211 436.716 103.486L504.113 74.5134C510.172 71.9088 517.022 72.0228 522.93 74.8266L585.855 104.685C592.406 107.794 597.066 113.857 598.413 121.026L610.297 184.258C611.644 191.427 609.519 198.852 604.57 204.267L557.033 256.285C552.569 261.169 546.258 263.923 539.696 263.85L466.703 263.04C459.836 262.964 453.4 259.802 449.161 254.422L408.447 202.753Z" stroke="url(#paint65_linear_273_182)" stroke-width="4"/>
<path opacity="0.971014" d="M411.627 197.407C406.775 191.834 404.914 184.234 406.629 176.996L421.7 113.36C423.296 106.622 427.817 100.937 434.016 97.8748L497.896 66.3167C503.86 63.3708 510.781 63.1465 516.882 65.7017L579.813 92.0611C586.475 94.8513 591.413 100.641 593.137 107.684L608.286 169.544C610.011 176.587 608.32 184.058 603.725 189.703L560.308 243.033C556.099 248.203 549.884 251.31 543.259 251.557L472.297 254.196C465.411 254.452 458.797 251.591 454.281 246.403L411.627 197.407Z" stroke="url(#paint66_linear_273_182)" stroke-width="4"/>
<path opacity="0.985507" d="M415.002 191.747C409.93 186.464 407.685 179.064 408.958 171.828L420.11 108.43C421.311 101.602 425.515 95.6685 431.554 92.2756L491.808 58.4246C497.66 55.1371 504.643 54.5683 510.929 56.8673L573.665 79.8124C580.417 82.282 585.614 87.7841 587.706 94.6779L606.018 155.029C608.11 161.923 606.855 169.412 602.627 175.263L563.348 229.623C559.413 235.07 553.308 238.531 546.631 239.102L477.888 244.975C470.997 245.564 464.22 243.012 459.434 238.027L415.002 191.747Z" stroke="url(#paint67_linear_273_182)" stroke-width="4"/>
<path d="M418.547 185.765C413.277 180.783 410.666 173.607 411.5 166.404L418.795 103.453C419.594 96.5576 423.464 90.392 429.326 86.6752L485.867 50.8281C491.591 47.1991 498.624 46.2794 505.088 48.3144L567.434 67.9405C574.258 70.0887 579.694 75.29 582.141 82.0127L603.511 140.726C605.958 147.449 605.137 154.927 601.29 160.959L566.146 216.069C562.502 221.783 556.523 225.6 549.806 226.499L483.451 235.382C476.571 236.303 469.643 234.068 464.599 229.299L418.547 185.765Z" stroke="url(#paint68_linear_273_182)" stroke-width="4"/>
<defs>
<linearGradient id="paint0_linear_273_182" x1="805.235" y1="816.622" x2="268.59" y2="771.071" gradientUnits="userSpaceOnUse">
<stop stop-color="#FF1CF7"/>
<stop offset="1" stop-color="#00F0FF"/>
</linearGradient>
<linearGradient id="paint1_linear_273_182" x1="803.12" y1="793.707" x2="268.751" y2="777.213" gradientUnits="userSpaceOnUse">
<stop stop-color="#FF1CF7"/>
<stop offset="1" stop-color="#00F0FF"/>
</linearGradient>
<linearGradient id="paint2_linear_273_182" x1="800.291" y1="771.023" x2="269.859" y2="783.286" gradientUnits="userSpaceOnUse">
<stop stop-color="#FF1CF7"/>
<stop offset="1" stop-color="#00F0FF"/>
</linearGradient>
<linearGradient id="paint3_linear_273_182" x1="796.767" y1="748.603" x2="271.918" y2="789.216" gradientUnits="userSpaceOnUse">
<stop stop-color="#FF1CF7"/>
<stop offset="1" stop-color="#00F0FF"/>
</linearGradient>
<linearGradient id="paint4_linear_273_182" x1="792.569" y1="726.483" x2="274.921" y2="794.923" gradientUnits="userSpaceOnUse">
<stop stop-color="#FF1CF7"/>
<stop offset="1" stop-color="#00F0FF"/>
</linearGradient>
<linearGradient id="paint5_linear_273_182" x1="787.72" y1="704.695" x2="278.855" y2="800.329" gradientUnits="userSpaceOnUse">
<stop stop-color="#FF1CF7"/>
<stop offset="1" stop-color="#00F0FF"/>
</linearGradient>
<linearGradient id="paint6_linear_273_182" x1="782.242" y1="683.27" x2="283.696" y2="805.358" gradientUnits="userSpaceOnUse">
<stop stop-color="#FF1CF7"/>
<stop offset="1" stop-color="#00F0FF"/>
</linearGradient>
<linearGradient id="paint7_linear_273_182" x1="776.163" y1="662.236" x2="289.412" y2="809.932" gradientUnits="userSpaceOnUse">
<stop stop-color="#FF1CF7"/>
<stop offset="1" stop-color="#00F0FF"/>
</linearGradient>
<linearGradient id="paint8_linear_273_182" x1="769.509" y1="641.623" x2="295.963" y2="813.98" gradientUnits="userSpaceOnUse">
<stop stop-color="#FF1CF7"/>
<stop offset="1" stop-color="#00F0FF"/>
</linearGradient>
<linearGradient id="paint9_linear_273_182" x1="762.308" y1="621.456" x2="303.3" y2="817.434" gradientUnits="userSpaceOnUse">
<stop stop-color="#FF1CF7"/>
<stop offset="1" stop-color="#00F0FF"/>
</linearGradient>
<linearGradient id="paint10_linear_273_182" x1="754.592" y1="601.758" x2="311.369" y2="820.233" gradientUnits="userSpaceOnUse">
<stop stop-color="#FF1CF7"/>
<stop offset="1" stop-color="#00F0FF"/>
</linearGradient>
<linearGradient id="paint11_linear_273_182" x1="746.39" y1="582.552" x2="320.106" y2="822.321" gradientUnits="userSpaceOnUse">
<stop stop-color="#FF1CF7"/>
<stop offset="1" stop-color="#00F0FF"/>
</linearGradient>
<linearGradient id="paint12_linear_273_182" x1="737.735" y1="563.859" x2="329.445" y2="823.652" gradientUnits="userSpaceOnUse">
<stop stop-color="#FF1CF7"/>
<stop offset="1" stop-color="#00F0FF"/>
</linearGradient>
<linearGradient id="paint13_linear_273_182" x1="728.66" y1="545.696" x2="339.315" y2="824.186" gradientUnits="userSpaceOnUse">
<stop stop-color="#FF1CF7"/>
<stop offset="1" stop-color="#00F0FF"/>
</linearGradient>
<linearGradient id="paint14_linear_273_182" x1="719.199" y1="528.08" x2="349.641" y2="823.893" gradientUnits="userSpaceOnUse">
<stop stop-color="#FF1CF7"/>
<stop offset="1" stop-color="#00F0FF"/>
</linearGradient>
<linearGradient id="paint15_linear_273_182" x1="709.386" y1="511.025" x2="360.349" y2="822.751" gradientUnits="userSpaceOnUse">
<stop stop-color="#FF1CF7"/>
<stop offset="1" stop-color="#00F0FF"/>
</linearGradient>
<linearGradient id="paint16_linear_273_182" x1="699.257" y1="494.545" x2="371.362" y2="820.746" gradientUnits="userSpaceOnUse">
<stop stop-color="#FF1CF7"/>
<stop offset="1" stop-color="#00F0FF"/>
</linearGradient>
<linearGradient id="paint17_linear_273_182" x1="688.847" y1="478.648" x2="382.606" y2="817.876" gradientUnits="userSpaceOnUse">
<stop stop-color="#FF1CF7"/>
<stop offset="1" stop-color="#00F0FF"/>
</linearGradient>
<linearGradient id="paint18_linear_273_182" x1="678.191" y1="463.343" x2="394.008" y2="814.144" gradientUnits="userSpaceOnUse">
<stop stop-color="#FF1CF7"/>
<stop offset="1" stop-color="#00F0FF"/>
</linearGradient>
<linearGradient id="paint19_linear_273_182" x1="667.327" y1="448.635" x2="405.499" y2="809.56" gradientUnits="userSpaceOnUse">
<stop stop-color="#FF1CF7"/>
<stop offset="1" stop-color="#00F0FF"/>
</linearGradient>
<linearGradient id="paint20_linear_273_182" x1="656.29" y1="434.531" x2="417.014" y2="804.142" gradientUnits="userSpaceOnUse">
<stop stop-color="#FF1CF7"/>
<stop offset="1" stop-color="#00F0FF"/>
</linearGradient>
<linearGradient id="paint21_linear_273_182" x1="645.115" y1="421.03" x2="428.49" y2="797.915" gradientUnits="userSpaceOnUse">
<stop stop-color="#FF1CF7"/>
<stop offset="1" stop-color="#00F0FF"/>
</linearGradient>
<linearGradient id="paint22_linear_273_182" x1="633.84" y1="408.134" x2="439.874" y2="790.908" gradientUnits="userSpaceOnUse">
<stop stop-color="#FF1CF7"/>
<stop offset="1" stop-color="#00F0FF"/>
</linearGradient>
<linearGradient id="paint23_linear_273_182" x1="622.5" y1="395.84" x2="451.116" y2="783.154" gradientUnits="userSpaceOnUse">
<stop stop-color="#FF1CF7"/>
<stop offset="1" stop-color="#00F0FF"/>
</linearGradient>
<linearGradient id="paint24_linear_273_182" x1="611.129" y1="384.145" x2="462.17" y2="774.687" gradientUnits="userSpaceOnUse">
<stop stop-color="#FF1CF7"/>
<stop offset="1" stop-color="#00F0FF"/>
</linearGradient>
<linearGradient id="paint25_linear_273_182" x1="599.763" y1="373.042" x2="473" y2="765.548" gradientUnits="userSpaceOnUse">
<stop stop-color="#FF1CF7"/>
<stop offset="1" stop-color="#00F0FF"/>
</linearGradient>
<linearGradient id="paint26_linear_273_182" x1="588.436" y1="362.524" x2="483.572" y2="755.776" gradientUnits="userSpaceOnUse">
<stop stop-color="#FF1CF7"/>
<stop offset="1" stop-color="#00F0FF"/>
</linearGradient>
<linearGradient id="paint27_linear_273_182" x1="577.181" y1="352.582" x2="493.862" y2="745.41" gradientUnits="userSpaceOnUse">
<stop stop-color="#FF1CF7"/>
<stop offset="1" stop-color="#00F0FF"/>
</linearGradient>
<linearGradient id="paint28_linear_273_182" x1="566.031" y1="343.205" x2="503.846" y2="734.49" gradientUnits="userSpaceOnUse">
<stop stop-color="#FF1CF7"/>
<stop offset="1" stop-color="#00F0FF"/>
</linearGradient>
<linearGradient id="paint29_linear_273_182" x1="555.017" y1="334.379" x2="513.51" y2="723.057" gradientUnits="userSpaceOnUse">
<stop stop-color="#FF1CF7"/>
<stop offset="1" stop-color="#00F0FF"/>
</linearGradient>
<linearGradient id="paint30_linear_273_182" x1="544.17" y1="326.09" x2="522.841" y2="711.146" gradientUnits="userSpaceOnUse">
<stop stop-color="#FF1CF7"/>
<stop offset="1" stop-color="#00F0FF"/>
</linearGradient>
<linearGradient id="paint31_linear_273_182" x1="533.52" y1="318.322" x2="531.832" y2="698.795" gradientUnits="userSpaceOnUse">
<stop stop-color="#FF1CF7"/>
<stop offset="1" stop-color="#00F0FF"/>
</linearGradient>
<linearGradient id="paint32_linear_273_182" x1="523.094" y1="311.058" x2="540.478" y2="686.035" gradientUnits="userSpaceOnUse">
<stop stop-color="#FF1CF7"/>
<stop offset="1" stop-color="#00F0FF"/>
</linearGradient>
<linearGradient id="paint33_linear_273_182" x1="512.92" y1="304.278" x2="548.777" y2="672.897" gradientUnits="userSpaceOnUse">
<stop stop-color="#FF1CF7"/>
<stop offset="1" stop-color="#00F0FF"/>
</linearGradient>
<linearGradient id="paint34_linear_273_182" x1="503.023" y1="297.963" x2="556.731" y2="659.41" gradientUnits="userSpaceOnUse">
<stop stop-color="#FF1CF7"/>
<stop offset="1" stop-color="#00F0FF"/>
</linearGradient>
<linearGradient id="paint35_linear_273_182" x1="493.428" y1="292.092" x2="564.342" y2="645.599" gradientUnits="userSpaceOnUse">
<stop stop-color="#FF1CF7"/>
<stop offset="1" stop-color="#00F0FF"/>
</linearGradient>
<linearGradient id="paint36_linear_273_182" x1="484.157" y1="286.64" x2="571.613" y2="631.485" gradientUnits="userSpaceOnUse">
<stop stop-color="#FF1CF7"/>
<stop offset="1" stop-color="#00F0FF"/>
</linearGradient>
<linearGradient id="paint37_linear_273_182" x1="475.232" y1="281.587" x2="578.549" y2="617.09" gradientUnits="userSpaceOnUse">
<stop stop-color="#FF1CF7"/>
<stop offset="1" stop-color="#00F0FF"/>
</linearGradient>
<linearGradient id="paint38_linear_273_182" x1="466.673" y1="276.905" x2="585.153" y2="602.427" gradientUnits="userSpaceOnUse">
<stop stop-color="#FF1CF7"/>
<stop offset="1" stop-color="#00F0FF"/>
</linearGradient>
<linearGradient id="paint39_linear_273_182" x1="458.497" y1="272.572" x2="591.431" y2="587.514" gradientUnits="userSpaceOnUse">
<stop stop-color="#FF1CF7"/>
<stop offset="1" stop-color="#00F0FF"/>
</linearGradient>
<linearGradient id="paint40_linear_273_182" x1="450.72" y1="268.559" x2="597.384" y2="572.363" gradientUnits="userSpaceOnUse">
<stop stop-color="#FF1CF7"/>
<stop offset="1" stop-color="#00F0FF"/>
</linearGradient>
<linearGradient id="paint41_linear_273_182" x1="443.358" y1="264.842" x2="603.016" y2="556.982" gradientUnits="userSpaceOnUse">
<stop stop-color="#FF1CF7"/>
<stop offset="1" stop-color="#00F0FF"/>
</linearGradient>
<linearGradient id="paint42_linear_273_182" x1="436.423" y1="261.391" x2="608.326" y2="541.383" gradientUnits="userSpaceOnUse">
<stop stop-color="#FF1CF7"/>
<stop offset="1" stop-color="#00F0FF"/>
</linearGradient>
<linearGradient id="paint43_linear_273_182" x1="429.927" y1="258.182" x2="613.315" y2="525.573" gradientUnits="userSpaceOnUse">
<stop stop-color="#FF1CF7"/>
<stop offset="1" stop-color="#00F0FF"/>
</linearGradient>
<linearGradient id="paint44_linear_273_182" x1="423.878" y1="255.184" x2="617.981" y2="509.559" gradientUnits="userSpaceOnUse">
<stop stop-color="#FF1CF7"/>
<stop offset="1" stop-color="#00F0FF"/>
</linearGradient>
<linearGradient id="paint45_linear_273_182" x1="418.285" y1="252.37" x2="622.319" y2="493.349" gradientUnits="userSpaceOnUse">
<stop stop-color="#FF1CF7"/>
<stop offset="1" stop-color="#00F0FF"/>
</linearGradient>
<linearGradient id="paint46_linear_273_182" x1="413.153" y1="249.713" x2="626.322" y2="476.95" gradientUnits="userSpaceOnUse">
<stop stop-color="#FF1CF7"/>
<stop offset="1" stop-color="#00F0FF"/>
</linearGradient>
<linearGradient id="paint47_linear_273_182" x1="408.486" y1="247.183" x2="629.985" y2="460.369" gradientUnits="userSpaceOnUse">
<stop stop-color="#FF1CF7"/>
<stop offset="1" stop-color="#00F0FF"/>
</linearGradient>
<linearGradient id="paint48_linear_273_182" x1="404.287" y1="244.753" x2="633.297" y2="443.616" gradientUnits="userSpaceOnUse">
<stop stop-color="#FF1CF7"/>
<stop offset="1" stop-color="#00F0FF"/>
</linearGradient>
<linearGradient id="paint49_linear_273_182" x1="400.557" y1="242.395" x2="636.247" y2="426.701" gradientUnits="userSpaceOnUse">
<stop stop-color="#FF1CF7"/>
<stop offset="1" stop-color="#00F0FF"/>
</linearGradient>
<linearGradient id="paint50_linear_273_182" x1="397.293" y1="240.081" x2="638.825" y2="409.637" gradientUnits="userSpaceOnUse">
<stop stop-color="#FF1CF7"/>
<stop offset="1" stop-color="#00F0FF"/>
</linearGradient>
<linearGradient id="paint51_linear_273_182" x1="394.494" y1="237.784" x2="641.016" y2="392.437" gradientUnits="userSpaceOnUse">
<stop stop-color="#FF1CF7"/>
<stop offset="1" stop-color="#00F0FF"/>
</linearGradient>
<linearGradient id="paint52_linear_273_182" x1="392.154" y1="235.477" x2="642.809" y2="375.117" gradientUnits="userSpaceOnUse">
<stop stop-color="#FF1CF7"/>
<stop offset="1" stop-color="#00F0FF"/>
</linearGradient>
<linearGradient id="paint53_linear_273_182" x1="390.269" y1="233.134" x2="644.189" y2="357.698" gradientUnits="userSpaceOnUse">
<stop stop-color="#FF1CF7"/>
<stop offset="1" stop-color="#00F0FF"/>
</linearGradient>
<linearGradient id="paint54_linear_273_182" x1="388.83" y1="230.731" x2="645.144" y2="340.201" gradientUnits="userSpaceOnUse">
<stop stop-color="#FF1CF7"/>
<stop offset="1" stop-color="#00F0FF"/>
</linearGradient>
<linearGradient id="paint55_linear_273_182" x1="387.827" y1="228.24" x2="645.662" y2="322.649" gradientUnits="userSpaceOnUse">
<stop stop-color="#FF1CF7"/>
<stop offset="1" stop-color="#00F0FF"/>
</linearGradient>
<linearGradient id="paint56_linear_273_182" x1="387.252" y1="225.641" x2="645.733" y2="305.072" gradientUnits="userSpaceOnUse">
<stop stop-color="#FF1CF7"/>
<stop offset="1" stop-color="#00F0FF"/>
</linearGradient>
<linearGradient id="paint57_linear_273_182" x1="387.09" y1="222.908" x2="645.348" y2="287.497" gradientUnits="userSpaceOnUse">
<stop stop-color="#FF1CF7"/>
<stop offset="1" stop-color="#00F0FF"/>
</linearGradient>
<linearGradient id="paint58_linear_273_182" x1="387.33" y1="220.021" x2="644.5" y2="269.959" gradientUnits="userSpaceOnUse">
<stop stop-color="#FF1CF7"/>
<stop offset="1" stop-color="#00F0FF"/>
</linearGradient>
<linearGradient id="paint59_linear_273_182" x1="387.957" y1="216.958" x2="643.187" y2="252.49" gradientUnits="userSpaceOnUse">
<stop stop-color="#FF1CF7"/>
<stop offset="1" stop-color="#00F0FF"/>
</linearGradient>
<linearGradient id="paint60_linear_273_182" x1="388.954" y1="213.698" x2="641.409" y2="235.127" gradientUnits="userSpaceOnUse">
<stop stop-color="#FF1CF7"/>
<stop offset="1" stop-color="#00F0FF"/>
</linearGradient>
<linearGradient id="paint61_linear_273_182" x1="390.306" y1="210.225" x2="639.17" y2="217.907" gradientUnits="userSpaceOnUse">
<stop stop-color="#FF1CF7"/>
<stop offset="1" stop-color="#00F0FF"/>
</linearGradient>
<linearGradient id="paint62_linear_273_182" x1="391.994" y1="206.52" x2="636.478" y2="200.868" gradientUnits="userSpaceOnUse">
<stop stop-color="#FF1CF7"/>
<stop offset="1" stop-color="#00F0FF"/>
</linearGradient>
<linearGradient id="paint63_linear_273_182" x1="393.999" y1="202.568" x2="633.345" y2="184.047" gradientUnits="userSpaceOnUse">
<stop stop-color="#FF1CF7"/>
<stop offset="1" stop-color="#00F0FF"/>
</linearGradient>
<linearGradient id="paint64_linear_273_182" x1="396.302" y1="198.352" x2="629.788" y2="167.482" gradientUnits="userSpaceOnUse">
<stop stop-color="#FF1CF7"/>
<stop offset="1" stop-color="#00F0FF"/>
</linearGradient>
<linearGradient id="paint65_linear_273_182" x1="398.882" y1="193.86" x2="625.827" y2="151.209" gradientUnits="userSpaceOnUse">
<stop stop-color="#FF1CF7"/>
<stop offset="1" stop-color="#00F0FF"/>
</linearGradient>
<linearGradient id="paint66_linear_273_182" x1="401.718" y1="189.081" x2="621.487" y2="135.262" gradientUnits="userSpaceOnUse">
<stop stop-color="#FF1CF7"/>
<stop offset="1" stop-color="#00F0FF"/>
</linearGradient>
<linearGradient id="paint67_linear_273_182" x1="404.789" y1="184.002" x2="616.798" y2="119.671" gradientUnits="userSpaceOnUse">
<stop stop-color="#FF1CF7"/>
<stop offset="1" stop-color="#00F0FF"/>
</linearGradient>
<linearGradient id="paint68_linear_273_182" x1="408.072" y1="178.614" x2="611.791" y2="104.467" gradientUnits="userSpaceOnUse">
<stop stop-color="#FF1CF7"/>
<stop offset="1" stop-color="#00F0FF"/>
</linearGradient>
</defs>
</svg>
