<svg width="1462" height="1935" viewBox="0 0 1462 1935" fill="none" xmlns="http://www.w3.org/2000/svg">
<path d="M181.988 247.514C266.136 336.884 376.719 398.922 479.224 298.788C532.065 247.203 601.896 107.892 532.984 44.1223C438.012 -43.7373 383.49 100.015 312.523 119.5C263.85 132.826 222.926 55.834 164.666 107.27C118.61 147.913 147 210.366 181.988 247.514Z" fill="#1F8FF6"/>
<path d="M181.988 247.514C266.136 336.884 376.719 398.922 479.224 298.788C532.065 247.203 601.896 107.892 532.984 44.1223C438.012 -43.7373 383.49 100.015 312.523 119.5C263.85 132.826 222.926 55.834 164.666 107.27C118.61 147.913 147 210.366 181.988 247.514Z" fill="white"/>
<path d="M348.071 528.564C501.997 528.564 626.778 521.06 626.778 511.804C626.778 502.547 501.997 495.043 348.071 495.043C194.145 495.043 69.3633 502.547 69.3633 511.804C69.3633 521.06 194.145 528.564 348.071 528.564Z" fill="#3282BD"/>
<path d="M490.738 137.49L476.478 131.567C476.478 131.567 457.662 166.91 452.272 168.701C444.941 171.129 429.761 177.881 420.763 179.065C419.541 180.546 417.543 185.151 417.73 186.824C429.819 190.984 456.383 185.462 462.075 181.109C475.026 171.233 490.738 137.49 490.738 137.49Z" fill="#E58A7B"/>
<path d="M495.122 129.45C497.781 139.563 483.378 159.906 483.378 159.906L464.504 149.009C464.504 149.009 468.04 140.643 472.353 132.13C479.267 118.375 492.089 117.916 495.122 129.45Z" fill="#A5D9D0"/>
<path d="M495.122 129.45C497.781 139.563 483.378 159.906 483.378 159.906L464.504 149.009C464.504 149.009 468.04 140.643 472.353 132.13C479.267 118.375 492.089 117.916 495.122 129.45Z" fill="black"/>
<path d="M471.993 153.362L479.425 157.656L480.733 134.158C476.406 137.579 473.359 147.884 471.993 153.362Z" fill="black"/>
<path d="M482.702 121.84C482.702 121.84 468.012 155.509 476.579 218.198H534.465C535.385 209.048 532.338 164.393 543.363 121.277C537.013 119.999 530.588 119.153 524.13 118.745C515.938 118.256 507.726 118.256 499.535 118.745C493.857 119.339 488.23 120.374 482.702 121.84Z" fill="#A5D9D0"/>
<path d="M482.702 121.84C482.702 121.84 468.012 155.509 476.579 218.198H534.465C535.385 209.048 532.338 164.393 543.363 121.277C537.013 119.999 530.588 119.153 524.13 118.745C515.938 118.256 507.726 118.256 499.535 118.745C493.857 119.339 488.23 120.374 482.702 121.84Z" fill="#A5D9D0"/>
<path d="M469.277 513.136C469.19 514.735 491.14 516.023 518.294 516.023C545.447 516.023 567.555 514.735 567.641 513.136C567.728 511.537 545.792 510.264 518.624 510.264C491.456 510.264 469.377 511.552 469.277 513.136Z" fill="#E8ECF1"/>
<path d="M507.916 471.121L497.649 475.214L506.493 498.747L516.76 494.653L507.916 471.121Z" fill="#E58A7B"/>
<path d="M553.698 501.75H542.874L538.907 475.943H549.731L553.698 501.75Z" fill="#E58A7B"/>
<path d="M542.127 500.462H554.287C554.498 500.463 554.702 500.541 554.863 500.682C555.023 500.823 555.13 501.018 555.164 501.232L556.731 511.137C556.764 511.386 556.745 511.639 556.675 511.879C556.604 512.119 556.485 512.341 556.324 512.529C556.163 512.717 555.964 512.868 555.742 512.97C555.52 513.072 555.278 513.124 555.035 513.121C550.794 513.047 548.753 512.781 543.406 512.781C540.114 512.781 533.344 513.136 528.773 513.136C524.202 513.136 523.9 508.517 525.783 508.087C534.235 506.207 537.512 503.646 540.33 501.158C540.827 500.709 541.465 500.461 542.127 500.462Z" fill="#263238"/>
<path d="M506.19 496.642L517.69 493.178C517.895 493.118 518.114 493.133 518.31 493.219C518.506 493.305 518.668 493.458 518.768 493.651L523.08 502.535C523.181 502.76 523.232 503.006 523.23 503.254C523.229 503.501 523.175 503.746 523.072 503.97C522.97 504.194 522.821 504.393 522.636 504.551C522.451 504.71 522.235 504.826 522.002 504.889C517.819 506.074 515.016 506.799 509.784 508.369C506.176 509.45 502.496 511.211 498.931 512.381C496.459 513.195 490.652 513.225 487.647 513.225C483.206 513.225 482.214 508.398 484.125 508.176C488.941 507.628 489.588 507.88 492.247 506.503C496.598 504.544 500.542 501.739 503.862 498.241C504.488 497.506 505.291 496.955 506.19 496.642Z" fill="#263238"/>
<path d="M422.574 179.006L410.672 173.868L405.77 187.461C410.648 188.226 415.611 188.226 420.49 187.461L422.574 179.006Z" fill="#E58A7B"/>
<path d="M401.817 173.513L401.501 182.545L405.77 187.431L410.672 173.839L401.817 173.513Z" fill="#E58A7B"/>
<path d="M509.325 473.119L499.026 477.214L503.587 489.383L513.886 485.288L509.325 473.119Z" fill="#CF6F64"/>
<path d="M549.731 475.943H538.907L540.962 489.254H551.786L549.731 475.943Z" fill="#CF6F64"/>
<path d="M474.739 201.245C474.955 203.925 475.199 206.664 475.515 209.477L518.552 195.086C525.273 193.034 531.114 188.683 535.112 182.752C535.284 178.799 535.5 174.638 535.831 170.3C535.974 168.198 536.147 166.036 536.334 163.845C536.521 161.653 536.779 159.225 537.052 156.886L474.739 201.245Z" fill="black"/>
<path d="M488.797 152.681L487.36 152.503C488.208 145.1 493.57 139.267 499.219 139.415V140.895C494.274 140.792 489.559 146.048 488.797 152.681Z" fill="white"/>
<path d="M496.459 166.347H496.214V164.866C501.159 165.059 505.802 159.743 506.564 153.125L508.002 153.303C507.24 160.543 502.051 166.347 496.459 166.347Z" fill="white"/>
<path d="M523.325 90.2138C521.298 98.372 518.912 113.311 524.13 118.745C524.13 118.745 520.479 127.022 505.773 127.022C492.333 127.022 499.535 118.745 499.535 118.745C508.476 116.584 508.634 109.862 507.455 103.495L523.325 90.2138Z" fill="#E58A7B"/>
<path d="M516.856 95.6328L507.47 103.495C507.761 104.958 507.929 106.444 507.973 107.937C510.718 110.75 516.224 103.628 516.784 99.9858C517.069 98.5519 517.094 97.0759 516.856 95.6328Z" fill="#CF6F64"/>
<path d="M491.327 90.1101C491.98 91.2762 492.86 92.2909 493.911 93.0909C494.962 93.8908 496.162 94.4588 497.436 94.7593C500.886 95.544 502.611 92.2718 501.662 88.9849C500.814 86.0236 497.983 82.0408 494.475 82.7219C493.724 82.8813 493.021 83.2238 492.424 83.7207C491.828 84.2177 491.356 84.8546 491.047 85.5781C490.739 86.3016 490.604 87.0906 490.652 87.8791C490.701 88.6676 490.932 89.4327 491.327 90.1101Z" fill="#CF6F64"/>
<path d="M497.034 64.0069C491.658 66.5388 489.76 88.5407 496.516 91.7981C503.272 95.0554 507.211 59.195 497.034 64.0069Z" fill="#263238"/>
<path d="M524.963 77.9395C523.67 88.9849 523.526 95.4848 517.776 101.141C515.994 103.018 513.744 104.351 511.273 104.993C508.802 105.636 506.207 105.562 503.773 104.781C501.34 104 499.164 102.541 497.485 100.566C495.807 98.5913 494.69 96.1769 494.26 93.5896C492.52 83.6695 494.921 67.2791 505.673 62.8817C507.932 61.8553 510.417 61.47 512.869 61.7657C515.321 62.0614 517.652 63.0274 519.62 64.5635C521.588 66.0995 523.121 68.1498 524.061 70.5018C525 72.8537 525.312 75.4217 524.963 77.9395Z" fill="#E58A7B"/>
<path d="M507.297 69.7221C515.261 67.6345 521.111 66.2131 519.012 73.0387C516.238 82.1593 512.903 90.9837 517.374 91.3835C520.105 91.6352 532.18 86.3642 530.641 81.0192C529.305 76.3701 534.954 75.0967 535.96 72.7426C539.683 64.2142 529.031 65.3395 530.929 60.1573C532.826 54.9752 522.304 46.6245 516.554 50.7851C507.197 57.507 491.14 57.4034 499.578 46.3432C505.63 38.4516 494.835 40.0654 494.835 40.0654C494.835 40.0654 501.361 44.0483 490.378 50.2076C478.764 56.7816 489.415 74.4453 507.297 69.7221Z" fill="#263238"/>
<path d="M529.19 90.1101C527.617 92.4533 525.255 94.1104 522.563 94.7593C519.012 95.544 517.647 92.2718 518.984 88.9849C520.177 86.0236 523.454 82.0408 526.847 82.7219C530.239 83.403 531.015 87.2081 529.19 90.1101Z" fill="#E58A7B"/>
<path d="M476.579 218.198C476.579 218.198 466.862 307.775 466.1 341.77C465.324 377.127 499.032 487.448 499.032 487.448L516.281 480.045C516.281 480.045 496.157 379.244 499.032 344.524C502.079 306.665 514.671 218.257 514.671 218.257L476.579 218.198Z" fill="#263238"/>
<path d="M500.728 242.791C492.98 259.344 498.198 292.081 502.395 311.477C503.991 297.781 505.889 282.916 507.685 269.161C507.513 248.018 505.917 231.686 500.728 242.791Z" fill="black"/>
<path d="M515.519 474.181C515.606 474.181 517.561 479.837 517.561 479.837L497.666 488.454L494.533 482.443L515.519 474.181Z" fill="#A5D9D0"/>
<path d="M497.12 218.198C497.12 218.198 504.552 303.393 509.468 335.3C514.873 370.257 536.061 486.678 536.061 486.678H555.883C555.883 486.678 544.01 373.085 541.767 338.468C539.324 300.92 534.465 218.198 534.465 218.198L497.12 218.198Z" fill="#455A64"/>
<path d="M556.185 481.362C556.271 481.362 556.846 487.063 556.846 487.063H535.054L533.502 480.518L556.185 481.362Z" fill="#A5D9D0"/>
<path d="M548.595 474.611C548.55 474.611 548.507 474.595 548.472 474.565C548.438 474.535 548.415 474.494 548.408 474.448C548.293 473.411 537.584 370.805 535.572 339.712C533.387 305.984 528.988 231.168 528.945 230.413C528.943 230.389 528.946 230.364 528.954 230.341C528.962 230.317 528.974 230.296 528.99 230.278C529.007 230.26 529.026 230.245 529.048 230.235C529.07 230.226 529.094 230.221 529.118 230.221C529.165 230.22 529.21 230.239 529.245 230.272C529.28 230.305 529.301 230.35 529.305 230.398C529.305 231.153 533.746 305.91 535.931 339.697C537.944 370.79 548.653 473.323 548.753 474.433C548.757 474.458 548.756 474.483 548.75 474.507C548.745 474.531 548.734 474.553 548.719 474.573C548.704 474.592 548.685 474.608 548.664 474.62C548.643 474.632 548.619 474.639 548.595 474.64V474.611Z" fill="black"/>
<path d="M508.519 81.0192C508.519 81.9224 507.973 82.6479 507.398 82.6479C506.823 82.6479 506.406 81.9224 506.463 81.0192C506.521 80.116 507.01 79.3905 507.585 79.3905C508.16 79.3905 508.577 80.1308 508.519 81.0192Z" fill="#263238"/>
<path d="M498.658 81.0192C498.658 81.9224 498.098 82.6479 497.537 82.6479C496.976 82.6479 496.545 81.9224 496.588 81.0192C496.631 80.116 497.149 79.3905 497.724 79.3905C498.299 79.3905 498.716 80.1308 498.658 81.0192Z" fill="#263238"/>
<path d="M501.763 81.4782C500.563 84.2361 499.017 86.8197 497.163 89.1625C498.601 90.6432 501.289 89.9621 501.289 89.9621L501.763 81.4782Z" fill="#DF5753"/>
<path d="M502.022 93.7377C501.988 93.7377 501.955 93.7308 501.925 93.7172C501.894 93.7036 501.867 93.6837 501.844 93.6588C501.821 93.6338 501.803 93.6043 501.792 93.572C501.78 93.5398 501.775 93.5054 501.777 93.4711C501.781 93.3991 501.811 93.3313 501.862 93.2817C501.913 93.2321 501.98 93.2046 502.05 93.2047C503.15 93.2125 504.237 92.9665 505.232 92.4848C506.227 92.0031 507.105 91.298 507.8 90.4211C507.85 90.3763 507.914 90.3516 507.98 90.3516C508.046 90.3516 508.11 90.3763 508.16 90.4211C508.206 90.4708 508.232 90.5371 508.232 90.6062C508.232 90.6752 508.206 90.7416 508.16 90.7912C507.415 91.7232 506.477 92.4715 505.415 92.9814C504.353 93.4912 503.193 93.7497 502.022 93.7377Z" fill="#263238"/>
<path d="M510.273 78.2948C510.204 78.3312 510.127 78.3502 510.05 78.3502C509.972 78.3502 509.896 78.3312 509.827 78.2948C509.289 77.9368 508.677 77.714 508.041 77.6446C507.404 77.5751 506.76 77.6609 506.162 77.8951C506.103 77.9251 506.04 77.9428 505.975 77.9472C505.909 77.9515 505.844 77.9424 505.782 77.9203C505.721 77.8982 505.664 77.8636 505.616 77.8186C505.567 77.7736 505.528 77.719 505.5 77.6582C505.447 77.5264 505.446 77.3784 505.497 77.2457C505.548 77.1129 505.647 77.0059 505.773 76.9475C506.525 76.6313 507.339 76.5066 508.148 76.584C508.956 76.6613 509.734 76.9384 510.416 77.3917C510.472 77.4303 510.519 77.4797 510.555 77.5372C510.591 77.5947 510.616 77.6591 510.628 77.7266C510.64 77.7941 510.639 77.8633 510.625 77.9304C510.611 77.9975 510.584 78.0609 510.546 78.1172C510.473 78.2021 510.378 78.2637 510.273 78.2948Z" fill="#263238"/>
<path d="M494.849 75.3336C494.772 75.3145 494.703 75.2735 494.648 75.2152C494.6 75.1669 494.562 75.1093 494.536 75.0458C494.51 74.9822 494.497 74.914 494.497 74.845C494.497 74.7761 494.51 74.7078 494.536 74.6443C494.562 74.5807 494.6 74.5231 494.648 74.4749C495.199 73.8384 495.885 73.3416 496.653 73.0231C497.421 72.7046 498.25 72.5732 499.075 72.6389C499.141 72.6494 499.204 72.6738 499.261 72.7105C499.318 72.7473 499.366 72.7956 499.404 72.8525C499.442 72.9094 499.468 72.9737 499.48 73.0414C499.493 73.1091 499.492 73.1787 499.477 73.246C499.447 73.3831 499.368 73.5038 499.257 73.5856C499.146 73.6674 499.01 73.7046 498.874 73.6901C498.221 73.6478 497.567 73.759 496.961 74.0156C496.356 74.2721 495.816 74.6671 495.381 75.1708C495.315 75.2457 495.231 75.3006 495.137 75.3293C495.043 75.358 494.943 75.3595 494.849 75.3336Z" fill="#263238"/>
<path d="M548.926 135.846L533.976 131.745C533.976 131.745 519.314 168.923 514.125 171.337C507.082 174.653 489.243 186.143 481.653 191.577C481.236 193.427 481.567 198.328 482.516 199.676C495.453 197.247 520.22 187.431 525.395 182.441C537.196 171.055 548.926 135.846 548.926 135.846Z" fill="#E58A7B"/>
<path d="M538.49 502.417C537.76 502.476 537.034 502.272 536.434 501.839C536.249 501.667 536.111 501.448 536.033 501.204C535.954 500.96 535.939 500.699 535.989 500.447C535.998 500.29 536.048 500.138 536.134 500.008C536.22 499.878 536.339 499.774 536.477 499.707C537.685 499.07 541.063 501.277 541.451 501.528C541.494 501.555 541.527 501.596 541.545 501.644C541.563 501.692 541.565 501.745 541.552 501.795C541.539 501.846 541.514 501.894 541.479 501.933C541.444 501.972 541.4 502.001 541.35 502.017C540.413 502.254 539.454 502.388 538.49 502.417ZM537.052 500.107C536.944 500.082 536.831 500.082 536.722 500.107C536.667 500.136 536.621 500.18 536.59 500.236C536.56 500.291 536.545 500.354 536.549 500.418C536.511 500.59 536.517 500.77 536.568 500.939C536.618 501.108 536.711 501.26 536.837 501.38C537.397 501.898 538.806 501.958 540.66 501.587C539.556 500.838 538.313 500.334 537.009 500.107H537.052Z" fill="#A5D9D0"/>
<path d="M541.279 502.017C541.241 502.029 541.201 502.029 541.164 502.017C540.085 501.395 538.059 498.952 538.361 497.708C538.406 497.511 538.514 497.335 538.668 497.209C538.821 497.083 539.012 497.014 539.209 497.012C539.402 496.986 539.598 497.003 539.784 497.061C539.97 497.12 540.141 497.22 540.287 497.353C541.48 498.404 541.552 501.632 541.552 501.795C541.559 501.843 541.55 501.893 541.526 501.936C541.503 501.979 541.466 502.013 541.422 502.032C541.374 502.042 541.324 502.037 541.279 502.017ZM539.352 497.501H539.252C538.921 497.501 538.878 497.694 538.864 497.768C538.691 498.493 539.97 500.344 541.034 501.217C541.029 499.967 540.653 498.747 539.956 497.723C539.789 497.573 539.574 497.494 539.352 497.501Z" fill="#A5D9D0"/>
<path d="M500.326 500.566C499.446 500.882 498.488 500.882 497.609 500.566C497.409 500.454 497.24 500.293 497.117 500.096C496.993 499.9 496.921 499.674 496.904 499.441C496.886 499.294 496.904 499.146 496.957 499.008C497.01 498.871 497.096 498.75 497.206 498.656C498.356 497.59 503.057 498.656 503.589 498.863C503.639 498.877 503.684 498.907 503.715 498.951C503.746 498.994 503.763 499.046 503.761 499.1C503.763 499.156 503.749 499.211 503.721 499.258C503.693 499.305 503.652 499.343 503.603 499.367C502.544 499.859 501.448 500.26 500.326 500.566ZM497.983 498.804C497.818 498.838 497.665 498.914 497.537 499.026C497.491 499.061 497.456 499.109 497.436 499.164C497.415 499.219 497.41 499.279 497.422 499.337C497.431 499.492 497.478 499.643 497.559 499.775C497.639 499.907 497.75 500.016 497.882 500.092C498.644 500.507 500.412 500.181 502.697 499.189C501.158 498.789 499.564 498.659 497.983 498.804Z" fill="#A5D9D0"/>
<path d="M503.56 499.367H503.445C502.007 499.1 499.132 497.397 499.046 496.124C499.046 495.828 499.176 495.413 499.866 495.176C500.099 495.091 500.346 495.055 500.593 495.07C500.84 495.085 501.082 495.152 501.303 495.265C502.855 496.05 503.675 498.893 503.718 499.026C503.728 499.071 503.727 499.118 503.714 499.162C503.702 499.206 503.678 499.246 503.646 499.278C503.625 499.314 503.595 499.344 503.56 499.367ZM500.153 495.621H500.009C499.564 495.784 499.564 495.976 499.564 496.035C499.564 496.805 501.648 498.212 503.1 498.686C502.765 497.496 502.058 496.455 501.087 495.724C500.799 495.573 500.466 495.536 500.153 495.621Z" fill="#A5D9D0"/>
<path d="M482.875 190.703L467.882 197.81L466.143 202.252L471.677 206.087C471.677 206.087 482.027 204.932 484.974 198.077L482.875 190.703Z" fill="#E58A7B"/>
<path d="M483.507 199.927C483.172 196.96 482.221 194.102 480.719 191.547L483.091 189.711C484.875 192.655 486.013 195.965 486.425 199.409L483.507 199.927Z" fill="#263238"/>
<path d="M486.066 192.805C486.383 193.319 486.539 193.921 486.512 194.528C486.485 195.136 486.277 195.721 485.917 196.203C485.556 196.685 485.06 197.04 484.496 197.221C483.932 197.403 483.327 197.4 482.765 197.215C482.202 197.03 481.708 196.67 481.351 196.186C480.994 195.701 480.79 195.115 480.767 194.507C480.745 193.899 480.905 193.299 481.225 192.788C481.546 192.276 482.011 191.879 482.559 191.651C483.173 191.328 483.886 191.269 484.543 191.485C485.2 191.701 485.747 192.176 486.066 192.805Z" fill="#263238"/>
<path d="M457.748 203.555L459.746 205.628L473.201 199.705L467.882 197.81L457.748 203.555Z" fill="#E58A7B"/>
<path d="M515.519 474.181C515.606 474.181 517.561 479.837 517.561 479.837L497.666 488.454L494.533 482.443L515.519 474.181Z" fill="black"/>
<path d="M556.185 481.362C556.271 481.362 556.846 487.063 556.846 487.063H535.054L533.502 480.518L556.185 481.362Z" fill="black"/>
<path d="M552.821 131.582C556.774 144.715 541.322 162.675 541.322 162.675L519.976 153.703C522.506 146.112 525.423 138.664 528.715 131.39C535.27 116.835 548.825 118.331 552.821 131.582Z" fill="#A5D9D0"/>
<path d="M552.821 131.582C556.774 144.715 541.322 162.675 541.322 162.675L519.976 153.703C522.506 146.112 525.423 138.664 528.715 131.39C535.27 116.835 548.825 118.331 552.821 131.582Z" fill="black"/>
<path d="M340.711 0H331.526V1.52503H340.711V0Z" fill="#1F8FF6"/>
<path d="M459.614 60.3594L458.503 85.7706L459.982 85.8392L461.093 60.4281L459.614 60.3594Z" fill="#1F8FF6"/>
<path d="M456.756 6.84044H287.137L271.354 370.657H440.973L456.756 6.84044Z" fill="#1F8FF6"/>
<path d="M451.697 11.8449H282.077L266.294 375.661H435.913L451.697 11.8449Z" fill="#FAFAFA"/>
<path d="M446.637 16.8346H277.018L261.22 380.651H430.839L446.637 16.8346Z" fill="#E58A7B"/>
<path d="M427.332 175.512H282.552L281.344 203.347H426.124L427.332 175.512Z" fill="white"/>
<path d="M362.172 155.198H283.429L282.897 167.65H361.64L362.172 155.198Z" fill="#1F8FF6"/>
<path d="M424.069 250.638H279.289L278.081 278.474H422.861L424.069 250.638Z" fill="white"/>
<path d="M397.519 316.067H300.16L298.709 349.425H396.067L397.519 316.067Z" fill="#1F8FF6"/>
<path d="M391.007 354.607H293.649C293.606 354.618 293.562 354.618 293.519 354.607C293.505 354.564 293.505 354.517 293.519 354.474L294.957 321.101C294.957 321.078 294.961 321.055 294.97 321.035C294.979 321.014 294.992 320.995 295.008 320.98C295.024 320.965 295.044 320.953 295.064 320.946C295.085 320.938 295.107 320.936 295.129 320.938H392.488C392.506 320.929 392.526 320.924 392.545 320.924C392.565 320.924 392.585 320.929 392.603 320.938C392.613 320.956 392.618 320.976 392.618 320.997C392.618 321.018 392.613 321.038 392.603 321.056L391.194 354.503C391.177 354.538 391.15 354.567 391.116 354.585C391.083 354.604 391.045 354.611 391.007 354.607ZM293.821 354.252H390.835L392.272 321.234H295.259L293.821 354.252Z" fill="white"/>
<path d="M345.167 230.324H280.166L279.634 242.791H344.621L345.167 230.324Z" fill="#1F8FF6"/>
<path d="M395.665 85.5943C395.293 93.6953 392.496 101.479 387.658 107.878C384.077 112.71 379.468 116.634 374.185 119.347C368.903 122.06 363.087 123.49 357.184 123.528C352.414 123.565 347.687 122.596 343.295 120.681C338.902 118.765 334.937 115.944 331.643 112.39C328.349 108.836 325.796 104.626 324.142 100.017C322.488 95.4089 321.767 90.5004 322.024 85.5943C322.53 75.4136 326.792 65.8164 333.939 58.7653C341.087 51.7143 350.579 47.742 360.476 47.661C365.249 47.6151 369.981 48.578 374.379 50.4901C378.777 52.4023 382.748 55.223 386.046 58.7781C389.344 62.3332 391.899 66.5471 393.553 71.1595C395.208 75.7718 395.926 80.6846 395.665 85.5943Z" fill="white"/>
<path d="M399.129 55.597C399.035 57.7511 398.292 59.8214 397.002 61.5195C396.047 62.8031 394.82 63.8452 393.415 64.5663C392.01 65.2873 390.464 65.6683 388.894 65.68C387.374 65.6895 385.874 65.3153 384.525 64.5901C383.177 63.8648 382.022 62.8106 381.161 61.5195C380.02 59.7748 379.456 57.6981 379.551 55.597C379.69 52.894 380.825 50.3475 382.724 48.4766C384.623 46.6057 387.143 45.5515 389.771 45.5289C391.039 45.5169 392.296 45.7725 393.464 46.2799C394.632 46.7872 395.687 47.5356 396.564 48.4789C397.44 49.4221 398.12 50.5403 398.561 51.7645C399.003 52.9887 399.196 54.293 399.129 55.597Z" fill="#8842F7"/>
<path d="M298.148 189.43C298.079 190.623 297.573 191.745 296.733 192.569C295.893 193.393 294.78 193.859 293.62 193.872C293.06 193.878 292.504 193.767 291.987 193.544C291.471 193.321 291.004 192.991 290.616 192.574C290.228 192.158 289.927 191.664 289.732 191.123C289.536 190.582 289.451 190.006 289.48 189.43C289.543 188.234 290.046 187.108 290.888 186.283C291.73 185.457 292.846 184.994 294.008 184.988C294.568 184.983 295.123 185.096 295.638 185.32C296.154 185.544 296.62 185.874 297.008 186.29C297.395 186.706 297.696 187.199 297.892 187.739C298.088 188.278 298.175 188.854 298.148 189.43Z" fill="#263238"/>
<path d="M317.525 189.43C317.459 190.624 316.955 191.748 316.114 192.573C315.273 193.398 314.158 193.862 312.997 193.872C312.438 193.876 311.884 193.763 311.369 193.539C310.854 193.315 310.389 192.985 310.002 192.569C309.616 192.153 309.316 191.66 309.122 191.12C308.927 190.58 308.842 190.005 308.871 189.43C308.934 188.237 309.435 187.113 310.274 186.288C311.112 185.462 312.225 184.997 313.385 184.988C313.945 184.981 314.501 185.093 315.018 185.316C315.534 185.539 316.001 185.869 316.389 186.285C316.777 186.701 317.078 187.195 317.274 187.736C317.469 188.277 317.554 188.853 317.525 189.43Z" fill="#263238"/>
<path d="M336.916 189.43C336.85 190.624 336.346 191.748 335.505 192.573C334.664 193.398 333.549 193.862 332.388 193.872C331.828 193.876 331.274 193.763 330.758 193.539C330.242 193.316 329.776 192.986 329.389 192.57C329.001 192.154 328.7 191.661 328.504 191.121C328.308 190.581 328.221 190.005 328.248 189.43C328.314 188.235 328.819 187.112 329.66 186.287C330.501 185.462 331.615 184.997 332.776 184.988C333.336 184.981 333.892 185.093 334.409 185.316C334.926 185.539 335.392 185.869 335.78 186.285C336.168 186.701 336.469 187.195 336.665 187.736C336.86 188.277 336.946 188.853 336.916 189.43Z" fill="#263238"/>
<path d="M294.885 264.556C294.816 265.749 294.31 266.871 293.47 267.695C292.63 268.519 291.517 268.985 290.357 268.998C289.797 269.003 289.243 268.89 288.727 268.666C288.211 268.442 287.745 268.112 287.358 267.696C286.97 267.28 286.669 266.787 286.473 266.247C286.277 265.707 286.19 265.132 286.217 264.556C286.283 263.362 286.788 262.238 287.629 261.413C288.47 260.588 289.584 260.124 290.745 260.114C291.305 260.109 291.86 260.223 292.375 260.446C292.891 260.67 293.357 261 293.745 261.416C294.132 261.832 294.433 262.325 294.629 262.865C294.825 263.405 294.912 263.98 294.885 264.556Z" fill="#263238"/>
<path d="M314.262 264.556C314.196 265.748 313.694 266.87 312.856 267.694C312.018 268.519 310.907 268.985 309.748 268.998C309.188 269.005 308.632 268.893 308.116 268.67C307.599 268.447 307.132 268.117 306.744 267.701C306.356 267.284 306.055 266.791 305.86 266.25C305.664 265.709 305.579 265.132 305.608 264.556C305.674 263.362 306.179 262.238 307.02 261.413C307.861 260.588 308.975 260.124 310.136 260.114C310.695 260.109 311.25 260.222 311.765 260.446C312.28 260.67 312.745 261.001 313.131 261.417C313.518 261.833 313.817 262.326 314.012 262.866C314.206 263.406 314.291 263.981 314.262 264.556Z" fill="#263238"/>
<path d="M333.696 264.556C333.631 265.75 333.126 266.874 332.285 267.699C331.444 268.524 330.33 268.989 329.168 268.998C328.609 269 328.055 268.886 327.541 268.661C327.026 268.437 326.561 268.107 326.174 267.691C325.786 267.276 325.485 266.784 325.288 266.245C325.092 265.706 325.003 265.131 325.028 264.556C325.097 263.363 325.603 262.241 326.443 261.417C327.284 260.593 328.396 260.127 329.556 260.114C330.117 260.107 330.672 260.219 331.189 260.442C331.706 260.665 332.173 260.995 332.561 261.411C332.949 261.828 333.25 262.322 333.445 262.862C333.64 263.403 333.726 263.98 333.696 264.556Z" fill="#263238"/>
<path d="M353.044 264.556C352.975 265.749 352.47 266.871 351.629 267.695C350.789 268.519 349.677 268.985 348.516 268.998C347.957 269 347.404 268.886 346.889 268.661C346.374 268.437 345.909 268.107 345.522 267.691C345.134 267.276 344.833 266.784 344.636 266.245C344.44 265.706 344.351 265.131 344.376 264.556C344.446 263.363 344.951 262.241 345.791 261.417C346.632 260.593 347.744 260.127 348.904 260.114C349.464 260.109 350.019 260.223 350.535 260.446C351.05 260.67 351.516 261 351.904 261.416C352.291 261.832 352.593 262.325 352.789 262.865C352.985 263.405 353.072 263.98 353.044 264.556Z" fill="#263238"/>
<path d="M372.507 264.556C372.438 265.749 371.933 266.871 371.092 267.695C370.252 268.519 369.14 268.985 367.979 268.998C367.419 269.005 366.864 268.893 366.347 268.67C365.83 268.447 365.363 268.117 364.975 267.701C364.587 267.284 364.286 266.791 364.091 266.25C363.896 265.709 363.81 265.132 363.84 264.556C363.905 263.362 364.41 262.238 365.251 261.413C366.092 260.588 367.206 260.124 368.368 260.114C368.927 260.109 369.482 260.223 369.998 260.446C370.513 260.67 370.979 261 371.367 261.416C371.755 261.832 372.056 262.325 372.252 262.865C372.448 263.405 372.535 263.98 372.507 264.556Z" fill="#263238"/>
<path d="M369.566 83.6186C375.582 77.5584 375.901 67.8446 370.279 61.9222C364.656 55.9998 355.22 56.1115 349.204 62.1718C343.187 68.232 342.868 77.9459 348.491 83.8682C354.114 89.7906 363.549 89.6789 369.566 83.6186Z" fill="#1F8FF6"/>
<path d="M387.658 107.878C384.077 112.71 379.468 116.634 374.185 119.347C368.903 122.06 363.087 123.49 357.184 123.528C351.46 123.578 345.813 122.176 340.739 119.447C335.665 116.718 331.321 112.744 328.09 107.877C335.076 100.711 346.13 96.0326 358.377 96.0326C370.624 96.0326 381.29 100.711 387.658 107.878Z" fill="#1F8FF6"/>
<path d="M369.566 83.6186C375.582 77.5584 375.901 67.8446 370.279 61.9222C364.656 55.9998 355.22 56.1115 349.204 62.1718C343.187 68.232 342.868 77.9459 348.491 83.8682C354.114 89.7906 363.549 89.6789 369.566 83.6186Z" fill="#FF1CF7"/>
<path d="M387.658 107.878C384.077 112.71 379.468 116.634 374.185 119.347C368.903 122.06 363.087 123.49 357.184 123.528C351.46 123.578 345.813 122.176 340.739 119.447C335.665 116.718 331.321 112.744 328.09 107.877C335.076 100.711 346.13 96.0326 358.377 96.0326C370.624 96.0326 381.29 100.711 387.658 107.878Z" fill="white"/>
<path d="M176.166 210.055C174.8 213.134 173.363 216.525 172.112 219.812C170.862 223.099 169.582 226.49 168.476 229.865C166.216 236.518 164.494 243.352 163.329 250.298L163.013 252.474C162.983 252.848 163.017 253.224 163.114 253.585C163.453 254.812 163.987 255.973 164.695 257.02C166.541 259.73 168.682 262.214 171.077 264.423C173.602 266.842 176.251 269.12 179.012 271.248C181.772 273.44 184.676 275.572 187.536 277.585L184.848 282.782C178.018 279.717 171.534 275.889 165.514 271.367C162.303 268.954 159.404 266.128 156.89 262.957C155.399 261.069 154.237 258.93 153.454 256.635C152.999 255.201 152.766 253.702 152.764 252.193C152.764 251.838 152.764 251.319 152.764 251.068V250.342L152.908 248.862C153.732 241.148 155.307 233.538 157.608 226.149C158.73 222.507 159.923 218.879 161.288 215.34C162.654 211.802 164.063 208.337 165.802 204.739L176.166 210.055Z" fill="#E58A7B"/>
<path d="M185.509 276.667L195.672 271.367L193.042 282.856C193.042 282.856 186.07 284.87 182.836 281.376L185.509 276.667Z" fill="#E58A7B"/>
<path d="M204.972 273.247L202.27 282.753L193.042 282.856L195.672 271.367L204.972 273.247Z" fill="#E58A7B"/>
<path d="M219.318 154.62C219.862 156.672 220.618 158.658 221.575 160.543C221.296 160.869 220.936 161.112 220.533 161.245C220.131 161.378 219.701 161.396 219.289 161.298L219.318 154.62Z" fill="#DF5753"/>
<path d="M219.016 154.709C219.612 154.709 220.094 153.947 220.094 153.007C220.094 152.066 219.612 151.304 219.016 151.304C218.421 151.304 217.938 152.066 217.938 153.007C217.938 153.947 218.421 154.709 219.016 154.709Z" fill="#263238"/>
<path d="M218.7 151.363L220.885 150.726C220.885 150.726 219.821 152.474 218.7 151.363Z" fill="#263238"/>
<path d="M191.245 165.488C192.553 172.373 193.861 185.003 189.175 189.607C189.175 189.607 191.015 196.596 203.449 196.596C217.119 196.596 209.975 189.607 209.975 189.607C202.514 187.771 202.701 182.071 204.009 176.711L191.245 165.488Z" fill="#E58A7B"/>
<path d="M187.608 149.794C188.298 161.298 188.356 166.184 193.99 172.092C202.486 180.975 216.055 177.6 218.714 166.169C221.115 155.805 219.591 138.748 208.652 134.173C206.251 133.154 203.637 132.783 201.058 133.095C198.479 133.407 196.02 134.391 193.913 135.955C191.806 137.519 190.121 139.611 189.018 142.032C187.915 144.454 187.429 147.125 187.608 149.794Z" fill="#E58A7B"/>
<path d="M188.715 136.853C183.109 138.956 175.634 137.386 178.566 155.198C181.671 174.061 176.899 180.265 176.899 180.265C176.899 180.265 198.159 184.929 219.864 179.983C219.864 179.983 213.238 168.05 215.092 159.255C217.464 148.15 215.595 144.049 215.595 144.049C215.595 144.049 196.592 133.892 188.715 136.853Z" fill="#263238"/>
<path d="M212.433 155.79C212.439 157.978 213.047 160.119 214.187 161.964C215.71 164.363 217.507 163.445 217.953 160.898C218.355 158.663 218.053 154.709 216.113 153.169C214.172 151.63 212.462 153.14 212.433 155.79Z" fill="#E58A7B"/>
<path d="M183.842 138.793C182.232 134.129 189.908 126.948 206.151 129.909C222.394 132.87 223.099 146.803 223.099 146.803L219.821 142.776L219.965 147.01L203.276 150.312L183.842 138.793Z" fill="#263238"/>
<path d="M185.222 190.392C185.126 189.716 185.29 189.028 185.68 188.475C186.069 187.922 186.653 187.547 187.306 187.431C192.366 186.572 203.866 184.825 209.644 185.654C213.957 186.276 215.078 188.852 215.265 190.97C215.294 191.34 215.246 191.713 215.123 192.063C215.001 192.413 214.808 192.732 214.556 192.999C214.304 193.265 213.999 193.473 213.663 193.608C213.327 193.743 212.966 193.803 212.605 193.783L187.622 192.628C187.033 192.597 186.473 192.358 186.035 191.951C185.598 191.543 185.311 190.993 185.222 190.392Z" fill="#1F8FF6"/>
<path d="M185.222 190.392C185.126 189.716 185.29 189.028 185.68 188.475C186.069 187.922 186.653 187.547 187.306 187.431C192.366 186.572 203.866 184.825 209.644 185.654C213.957 186.276 215.078 188.852 215.265 190.97C215.294 191.34 215.246 191.713 215.123 192.063C215.001 192.413 214.808 192.732 214.556 192.999C214.304 193.265 213.999 193.473 213.663 193.608C213.327 193.743 212.966 193.803 212.605 193.783L187.622 192.628C187.033 192.597 186.473 192.358 186.035 191.951C185.598 191.543 185.311 190.993 185.222 190.392Z" fill="black"/>
<path d="M199.668 449.055L208.94 455.688L224.45 434.027L215.178 427.409L199.668 449.055Z" fill="#E58A7B"/>
<path d="M178.049 448.626L187.838 454.371L201.566 431.466L191.777 425.721L178.049 448.626Z" fill="#E58A7B"/>
<path d="M224.436 434.027L216.443 445.191L207.172 438.573L215.164 427.409L224.436 434.027Z" fill="#CF6F64"/>
<path d="M191.762 425.721L201.566 431.48L194.493 443.281L184.69 437.521L191.762 425.721Z" fill="#CF6F64"/>
<path d="M207.488 262.705C207.488 262.705 243.683 309.685 236.884 354.622C231.407 390.912 199.64 440.053 199.64 440.053L184.704 432.413C195.232 410.686 204.215 388.2 211.585 365.134C213.857 357.973 214.521 350.373 213.525 342.91C212.528 335.446 209.899 328.312 205.835 322.048C187.493 294.464 158.112 310.884 177.877 262.705H207.488Z" fill="#1F8FF6"/>
<path d="M207.488 262.705C207.488 262.705 243.683 309.685 236.884 354.622C231.407 390.912 199.64 440.053 199.64 440.053L184.704 432.413C195.232 410.686 204.215 388.2 211.585 365.134C213.857 357.973 214.521 350.373 213.525 342.91C212.528 335.446 209.899 328.312 205.835 322.048C187.493 294.464 158.112 310.884 177.877 262.705H207.488Z" fill="black"/>
<path d="M225.241 292.88L219.979 287.491C219.979 287.92 230.171 352.727 233.032 370.938C234.72 365.618 236.012 360.173 236.898 354.651C240.262 332.605 233.233 310.085 225.241 292.88Z" fill="black"/>
<path d="M223.645 262.705C223.645 262.705 267.228 321.752 268.465 357.154C269.485 386.766 221.029 444.14 221.029 444.14L206.942 434.753C206.942 434.753 235.303 394.006 242.447 360.722C239.687 327.734 181.326 262.705 181.326 262.705H223.645Z" fill="#1F8FF6"/>
<path d="M223.645 262.705C223.645 262.705 267.228 321.752 268.465 357.154C269.485 386.766 221.029 444.14 221.029 444.14L206.942 434.753C206.942 434.753 235.303 394.006 242.447 360.722C239.687 327.734 181.326 262.705 181.326 262.705H223.645Z" fill="black"/>
<path d="M173.291 203.481L172.026 218.687L178.796 223.365C180.666 219.03 182.05 214.49 182.922 209.833L173.291 203.481Z" fill="black"/>
<path d="M229.035 192.583C229.035 192.583 234.411 194.523 223.645 262.69H177.848C178.624 243.442 178.638 231.598 169.726 192.243C176.139 190.882 182.639 190.001 189.175 189.607C196.099 189.096 203.05 189.096 209.975 189.607C218.916 190.451 229.035 192.583 229.035 192.583Z" fill="#FF5454" fill-opacity="0.53"/>
<path d="M169.726 192.243C165.069 193.383 160.598 210.825 160.598 210.825L178.811 223.351C178.811 223.351 184.877 209.551 182.749 203.51C180.55 197.218 175.577 190.807 169.726 192.243Z" fill="#913042"/>
<path d="M233.693 203.481C234.728 206.442 235.82 209.625 236.97 212.69C238.12 215.755 239.213 218.909 240.377 222.018L243.899 231.316L244.79 233.641L245.25 234.796L245.465 235.373C245.465 235.477 245.465 235.477 245.465 235.462C245.203 235.081 244.859 234.766 244.459 234.544C243.891 234.199 243.249 234.001 242.591 233.967C242.043 233.949 241.498 234.055 240.995 234.277C240.334 234.588 240.334 234.722 240.348 234.707C240.468 234.608 240.574 234.494 240.664 234.366C241.46 233.29 242.149 232.134 242.72 230.916C243.396 229.554 244.042 228.103 244.689 226.638C245.954 223.676 247.119 220.611 248.283 217.517C249.447 214.422 250.554 211.298 251.632 208.145L254.91 198.698L260.444 200.179C259.351 206.931 257.943 213.504 256.246 220.197C255.427 223.528 254.464 226.83 253.371 230.161C252.825 231.834 252.221 233.493 251.531 235.195C250.812 237.043 249.927 238.818 248.887 240.496C248.504 241.061 248.081 241.595 247.622 242.095C246.888 242.912 245.997 243.562 245.005 244.005C244.126 244.394 243.173 244.576 242.217 244.538C241.145 244.497 240.102 244.176 239.184 243.605C238.101 242.909 237.202 241.948 236.568 240.807C236.352 240.422 236.165 240.037 236.036 239.756L235.763 239.193L235.216 238.038L234.124 235.743C232.687 232.664 231.249 229.554 229.998 226.43C228.748 223.306 227.425 220.138 226.189 216.954C224.953 213.771 223.846 210.588 222.797 207.153L233.693 203.481Z" fill="#E58A7B"/>
<path d="M229.035 192.583C234.541 193.931 240.736 210.691 240.736 210.691L224.364 225.038C224.364 225.038 213.77 206.768 215.911 200.742C218.14 194.464 221.848 190.821 229.035 192.583Z" fill="#913042"/>
<path d="M257.511 193.398L263.261 188.452L267.257 194.864L264.31 200.209C264.31 200.209 259.624 204.65 255.484 202.385C254.827 200.864 254.67 199.163 255.036 197.542C255.401 195.92 256.27 194.465 257.511 193.398Z" fill="#E58A7B"/>
<path d="M273.639 188.467L273.208 190.081L264.109 191.651L263.218 188.452L273.639 188.467Z" fill="#E58A7B"/>
<path d="M222.15 444.895L205.734 433.968L208.681 428.697L227.124 440.379L222.15 444.895Z" fill="#1F8FF6"/>
<path d="M194.263 453.601C192.823 453.42 191.439 452.914 190.21 452.12C190.159 452.102 190.115 452.068 190.084 452.023C190.053 451.978 190.036 451.924 190.036 451.868C190.036 451.813 190.053 451.759 190.084 451.714C190.115 451.669 190.159 451.635 190.21 451.617C190.655 451.469 194.522 450.24 195.643 451.187C195.769 451.295 195.865 451.436 195.921 451.595C195.976 451.753 195.99 451.925 195.96 452.091C195.94 452.357 195.854 452.614 195.711 452.837C195.567 453.06 195.371 453.241 195.14 453.364C194.871 453.515 194.57 453.597 194.263 453.601ZM191.029 451.972C192.826 452.92 194.263 453.26 194.953 452.905C195.104 452.819 195.23 452.695 195.321 452.545C195.411 452.395 195.463 452.223 195.471 452.046C195.471 451.809 195.471 451.706 195.342 451.646C194.738 451.143 192.582 451.528 191 451.972H191.029Z" fill="#263238"/>
<path d="M190.31 452.224C190.235 452.223 190.162 452.191 190.109 452.135C190.088 452.094 190.077 452.048 190.077 452.002C190.077 451.955 190.088 451.909 190.109 451.868C190.109 451.735 191.044 448.522 192.51 447.797C192.697 447.709 192.9 447.663 193.106 447.663C193.312 447.663 193.516 447.709 193.703 447.797C193.905 447.862 194.079 447.996 194.199 448.176C194.319 448.355 194.377 448.571 194.364 448.789C194.263 450.121 191.633 451.957 190.425 452.268L190.31 452.224ZM193.099 448.182C192.959 448.186 192.822 448.222 192.697 448.285C191.805 448.73 191.072 450.462 190.713 451.513C191.978 450.965 193.717 449.514 193.775 448.7C193.775 448.567 193.775 448.404 193.444 448.256C193.337 448.196 193.22 448.156 193.099 448.137V448.182Z" fill="#263238"/>
<path d="M214.776 459.997C213.152 459.997 210.895 457.85 209.659 456.532C209.627 456.487 209.61 456.433 209.61 456.377C209.61 456.321 209.627 456.267 209.659 456.221C209.687 456.174 209.727 456.135 209.775 456.109C209.823 456.083 209.877 456.07 209.932 456.073C210.507 456.073 215.495 456.843 216.199 458.294C216.274 458.424 216.313 458.573 216.313 458.724C216.313 458.875 216.274 459.023 216.199 459.153C216.093 459.379 215.934 459.574 215.735 459.719C215.536 459.864 215.305 459.954 215.063 459.982L214.776 459.997ZM210.607 456.74C212.418 458.546 214.014 459.553 214.92 459.434C215.078 459.413 215.229 459.352 215.36 459.256C215.49 459.161 215.596 459.034 215.667 458.887C215.699 458.836 215.716 458.777 215.716 458.716C215.716 458.656 215.699 458.597 215.667 458.546C215.293 457.747 212.634 457.065 210.607 456.74Z" fill="#263238"/>
<path d="M210.765 456.666C210.443 456.675 210.12 456.65 209.802 456.592C209.758 456.585 209.716 456.566 209.681 456.538C209.645 456.509 209.618 456.472 209.601 456.429C209.58 456.385 209.568 456.337 209.568 456.288C209.568 456.239 209.58 456.191 209.601 456.147C209.687 456.044 211.628 453.63 213.468 453.468C213.989 453.426 214.505 453.596 214.905 453.941C215.466 454.445 215.437 454.889 215.293 455.17C214.934 456.177 212.447 456.666 210.765 456.666ZM210.392 456.118C212.002 456.207 214.575 455.659 214.905 454.933C214.905 454.933 215.02 454.696 214.646 454.371C214.498 454.238 214.324 454.137 214.136 454.076C213.948 454.015 213.75 453.994 213.554 454.015C212.315 454.372 211.211 455.111 210.392 456.133V456.118Z" fill="#263238"/>
<path d="M190.699 450.625L178.509 447.071C178.299 447.006 178.073 447.022 177.874 447.118C177.675 447.214 177.517 447.382 177.431 447.59L173.32 457.11C173.223 457.354 173.178 457.616 173.187 457.879C173.196 458.142 173.258 458.4 173.371 458.637C173.484 458.873 173.644 459.082 173.841 459.25C174.037 459.418 174.266 459.542 174.513 459.612C178.825 460.767 180.895 461.093 186.257 462.677C189.563 463.625 194.278 465.387 198.835 466.719C203.391 468.052 204.915 463.477 203.147 462.499C195.155 458.146 194.522 455.096 192.337 451.839C191.946 451.249 191.366 450.819 190.699 450.625Z" fill="#1F8FF6"/>
<path d="M209.989 454.8L199.582 447.397C199.406 447.265 199.188 447.204 198.971 447.225C198.754 447.247 198.552 447.35 198.403 447.516L191.504 455.155C191.335 455.353 191.21 455.585 191.136 455.836C191.061 456.087 191.04 456.352 191.072 456.613C191.105 456.873 191.191 457.124 191.325 457.347C191.459 457.571 191.637 457.762 191.849 457.909C195.514 460.441 197.411 461.463 201.997 464.735C204.872 466.749 210.435 471.22 214.316 474.004C218.197 476.787 221.086 472.967 219.706 471.457C213.525 464.661 212.174 460.397 211.153 456.532C210.976 455.831 210.564 455.218 209.989 454.8Z" fill="#1F8FF6"/>
<path d="M201.551 441.03L182.793 431.421L184.733 426.18L204.771 436.307L201.551 441.03Z" fill="#1F8FF6"/>
<path d="M177.158 259.922L175.577 264.186C175.418 264.512 175.792 264.852 176.324 264.852H223.875C224.292 264.852 224.637 264.645 224.666 264.378L225.068 260.144C225.068 259.863 224.737 259.611 224.292 259.611H177.905C177.766 259.597 177.625 259.618 177.495 259.673C177.365 259.727 177.249 259.812 177.158 259.922Z" fill="#1F8FF6"/>
<path d="M177.158 259.922L175.577 264.186C175.418 264.512 175.792 264.852 176.324 264.852H223.875C224.292 264.852 224.637 264.645 224.666 264.378L225.068 260.144C225.068 259.863 224.737 259.611 224.292 259.611H177.905C177.766 259.597 177.625 259.618 177.495 259.673C177.365 259.727 177.249 259.812 177.158 259.922Z" fill="white"/>
<path d="M184.647 265.267H183.396C183.152 265.267 182.965 265.134 182.979 264.971L183.569 259.478C183.569 259.329 183.799 259.196 184.043 259.196H185.294C185.538 259.196 185.725 259.329 185.711 259.478L185.121 264.971C185.107 265.134 184.891 265.267 184.647 265.267Z" fill="#1F8FF6"/>
<path d="M213.971 265.267H212.735C212.49 265.267 212.303 265.134 212.318 264.971L212.893 259.478C212.893 259.329 213.137 259.196 213.382 259.196H214.618C214.862 259.196 215.063 259.329 215.035 259.478L214.46 264.971C214.388 265.134 214.23 265.267 213.971 265.267Z" fill="#1F8FF6"/>
<path d="M183.554 516.009C204.823 516.009 222.064 514.723 222.064 513.136C222.064 511.55 204.823 510.264 183.554 510.264C162.286 510.264 145.045 511.55 145.045 513.136C145.045 514.723 162.286 516.009 183.554 516.009Z" fill="#F5F5F5"/>
<path d="M207.014 509.079C200.2 507.036 192.639 504.415 188.068 501.676C187.939 501.587 187.795 501.543 187.666 501.469V469.695H201.451C202.497 469.631 203.48 469.158 204.199 468.372C204.918 467.587 205.319 466.548 205.319 465.468C205.319 464.388 204.918 463.349 204.199 462.563C203.48 461.778 202.497 461.305 201.451 461.241H187.737V316.407H179.458V461.241H165.759C165.199 461.207 164.639 461.291 164.113 461.488C163.586 461.685 163.104 461.991 162.696 462.386C162.288 462.782 161.963 463.26 161.741 463.79C161.519 464.32 161.405 464.891 161.405 465.468C161.405 466.045 161.519 466.616 161.741 467.146C161.963 467.676 162.288 468.154 162.696 468.549C163.104 468.945 163.586 469.251 164.113 469.448C164.639 469.645 165.199 469.729 165.759 469.695H179.458V501.425C179.328 501.425 179.199 501.543 179.07 501.632C174.427 504.415 166.923 507.036 160.11 509.035C159.649 509.178 159.254 509.487 158.995 509.904C158.737 510.322 158.632 510.821 158.7 511.311C158.767 511.802 159.003 512.251 159.365 512.577C159.726 512.904 160.189 513.086 160.67 513.092H206.453C206.913 513.06 207.347 512.866 207.685 512.543C208.023 512.221 208.243 511.789 208.308 511.319C208.374 510.85 208.281 510.371 208.045 509.963C207.81 509.556 207.446 509.244 207.014 509.079Z" fill="#CF6F64"/>
<path d="M209.127 301.66H158.011C153.899 301.66 150.565 305.094 150.565 309.33V324.98C150.565 329.216 153.899 332.649 158.011 332.649H209.127C213.239 332.649 216.573 329.216 216.573 324.98V309.33C216.573 305.094 213.239 301.66 209.127 301.66Z" fill="#425FF7"/>
<path d="M157.537 332.664V335.359C157.537 337.58 159.88 339.386 162.755 339.386H204.441C207.316 339.386 209.659 337.58 209.659 335.359V332.664H157.537Z" fill="#1F8FF6"/>
<path d="M157.537 332.664V335.359C157.537 337.58 159.88 339.386 162.755 339.386H204.441C207.316 339.386 209.659 337.58 209.659 335.359V332.664H157.537Z" fill="#C9C9C9" fill-opacity="0.8"/>
</svg>
