<svg width="55" height="55" viewBox="0 0 55 55" fill="none" xmlns="http://www.w3.org/2000/svg">
<mask id="mask0_273_453" style="mask-type:alpha" maskUnits="userSpaceOnUse" x="0" y="0" width="55" height="55">
<path fill-rule="evenodd" clip-rule="evenodd" d="M39.0015 54.7649C39.4391 54.9364 39.9072 55.0156 40.3766 54.9975C40.8461 54.9793 41.3067 54.8643 41.73 54.6595L53.0535 49.1823C53.6367 48.9002 54.1287 48.4582 54.4731 47.9074C54.8174 47.3566 55.0001 46.7192 55 46.0686V8.93086C55.0001 8.28022 54.8175 7.64277 54.4732 7.09185C54.1288 6.54093 53.6367 6.09893 53.0535 5.81671L41.73 0.340401C41.0901 0.0309328 40.3704 -0.0709587 39.6704 0.048828C38.9704 0.168615 38.3248 0.504156 37.8229 1.00901L16.1452 20.8886L6.70326 13.6837C6.27733 13.3586 5.75163 13.1937 5.21737 13.2175C4.68311 13.2413 4.174 13.4524 3.77839 13.8141L0.749957 16.5832C0.513951 16.799 0.325346 17.0619 0.196209 17.3551C0.067071 17.6483 0.000243326 17.9654 6.63245e-07 18.2861C-0.000242 18.6068 0.0661057 18.924 0.194799 19.2174C0.323493 19.5108 0.511699 19.774 0.747379 19.9902L8.93591 27.4995L0.747808 35.0093C0.512258 35.2255 0.324164 35.4887 0.19555 35.782C0.0669364 36.0754 0.000631753 36.3926 0.000874391 36.7132C0.00111703 37.0338 0.0679016 37.3508 0.196959 37.644C0.326017 37.9372 0.514509 38.2001 0.750386 38.4159L3.77882 41.1849C4.17434 41.5468 4.68343 41.758 5.21771 41.7819C5.752 41.8058 6.27775 41.6409 6.70369 41.3158L16.1456 34.1114L37.8233 53.9905C38.1585 54.328 38.5594 54.5917 39.0015 54.7649ZM41.2582 14.9492L24.8102 27.4995L41.2586 40.0503L41.2582 14.9492Z" fill="white"/>
</mask>
<g mask="url(#mask0_273_453)">
<path d="M53.0538 5.82607L41.7212 0.340692C41.0811 0.0310186 40.3611 -0.0709834 39.6608 0.0488044C38.9605 0.168592 38.3145 0.504245 37.8124 1.0093L0.714112 35.0096C0.478385 35.2257 0.290133 35.4888 0.161405 35.7822C0.0326774 36.0756 -0.0336893 36.3928 -0.0334466 36.7135C-0.0332039 37.0341 0.0336427 37.3512 0.162814 37.6444C0.291986 37.9376 0.480637 38.2005 0.71669 38.4162L3.74684 41.1852C4.14272 41.547 4.65208 41.7582 5.18661 41.7821C5.72115 41.806 6.24715 41.6411 6.67343 41.3161L51.3483 7.24839C52.8471 6.10553 54.9998 7.18014 54.9998 9.07109V8.93892C54.9998 8.28849 54.8171 7.65127 54.4729 7.10053C54.1286 6.54979 53.6367 6.10833 53.0538 5.82607Z" fill="#0065A9"/>
<g filter="url(#filter0_d_273_453)">
<path d="M53.0538 49.1736L41.7212 54.6581C41.0812 54.9679 40.3612 55.07 39.6609 54.9504C38.9606 54.8308 38.3146 54.4953 37.8124 53.9904L0.714112 19.9896C0.478385 19.7736 0.290133 19.5104 0.161405 19.217C0.0326774 18.9236 -0.0336893 18.6064 -0.0334466 18.2858C-0.0332039 17.9651 0.0336427 17.648 0.162814 17.3548C0.291986 17.0616 0.480637 16.7988 0.71669 16.5831L3.74684 13.814C4.14272 13.4522 4.65208 13.241 5.18661 13.2171C5.72115 13.1932 6.24715 13.3581 6.67343 13.6832L51.3483 47.7504C52.8471 48.8937 54.9998 47.8191 54.9998 45.9281V46.0603C54.9998 46.7107 54.8171 47.348 54.4729 47.8987C54.1286 48.4494 53.6367 48.8913 53.0538 49.1736Z" fill="#007ACC"/>
</g>
<g filter="url(#filter1_d_273_453)">
<path d="M41.7218 54.6593C41.0815 54.9688 40.3615 55.0706 39.6611 54.9508C38.9608 54.8309 38.3148 54.4953 37.8125 53.9903C39.0809 55.2653 41.25 54.3622 41.25 52.5589V2.43935C41.25 0.636084 39.0809 -0.267061 37.8125 1.0084C38.3148 0.503399 38.9608 0.167761 39.6611 0.0479035C40.3615 -0.071954 41.0815 0.0298914 41.7218 0.339355L53.0522 5.81696C53.6356 6.09899 54.128 6.54091 54.4726 7.09185C54.8172 7.64278 55 8.28033 55 8.93111V46.0684C55 46.7192 54.8172 47.3568 54.4726 47.9077C54.128 48.4586 53.6356 48.9006 53.0522 49.1826L41.7218 54.6593Z" fill="#1F9CF0"/>
</g>
<path opacity="0.25" fill-rule="evenodd" clip-rule="evenodd" d="M38.9684 54.7649C39.406 54.9364 39.874 55.0155 40.3433 54.9974C40.8126 54.9792 41.2732 54.8642 41.6965 54.6595L53.02 49.1823C53.6032 48.9001 54.0953 48.4581 54.4396 47.9072C54.784 47.3563 54.9666 46.7188 54.9665 46.0682V8.93086C54.9666 8.28022 54.784 7.64277 54.4396 7.09185C54.0953 6.54093 53.6032 6.09893 53.02 5.81671L41.6965 0.340401C41.0566 0.0309328 40.3369 -0.0709587 39.6369 0.048828C38.9369 0.168615 38.2913 0.504156 37.7893 1.00901L16.1117 20.8886L6.66973 13.6841C6.2438 13.3591 5.7181 13.1941 5.18384 13.218C4.64957 13.2418 4.14047 13.4529 3.74485 13.8146L0.716423 16.5836C0.480476 16.7994 0.291925 17.0623 0.162825 17.3556C0.0337251 17.6488 -0.0330819 17.9659 -0.0333245 18.2865C-0.0335672 18.6072 0.0327598 18.9244 0.161416 19.2178C0.290071 19.5112 0.478225 19.7744 0.713845 19.9906L8.90238 27.4995L0.714275 35.0089C0.478596 35.225 0.290389 35.4882 0.161696 35.7816C0.0330019 36.0751 -0.0333458 36.3923 -0.0331032 36.713C-0.0328605 37.0336 0.0339672 37.3507 0.163105 37.644C0.292243 37.9372 0.480847 38.2001 0.716853 38.4159L3.74528 41.1849C4.14084 41.5467 4.64992 41.7579 5.18419 41.7818C5.71845 41.8057 6.24418 41.6408 6.67016 41.3158L16.1125 34.1109L37.7902 53.9905C38.1252 54.328 38.5265 54.5917 38.9684 54.7649ZM41.2251 14.9488L24.7767 27.4995L41.2251 40.0498V14.9488Z" fill="url(#paint0_linear_273_453)"/>
</g>
<defs>
<filter id="filter0_d_273_453" x="-8.36745" y="4.88084" width="71.7012" height="58.4522" filterUnits="userSpaceOnUse" color-interpolation-filters="sRGB">
<feFlood flood-opacity="0" result="BackgroundImageFix"/>
<feColorMatrix in="SourceAlpha" type="matrix" values="0 0 0 0 0 0 0 0 0 0 0 0 0 0 0 0 0 0 127 0" result="hardAlpha"/>
<feOffset/>
<feGaussianBlur stdDeviation="4.167"/>
<feColorMatrix type="matrix" values="0 0 0 0 0 0 0 0 0 0 0 0 0 0 0 0 0 0 0.25 0"/>
<feBlend mode="overlay" in2="BackgroundImageFix" result="effect1_dropShadow_273_453"/>
<feBlend mode="normal" in="SourceGraphic" in2="effect1_dropShadow_273_453" result="shape"/>
</filter>
<filter id="filter1_d_273_453" x="29.4785" y="-8.33498" width="33.8555" height="71.6685" filterUnits="userSpaceOnUse" color-interpolation-filters="sRGB">
<feFlood flood-opacity="0" result="BackgroundImageFix"/>
<feColorMatrix in="SourceAlpha" type="matrix" values="0 0 0 0 0 0 0 0 0 0 0 0 0 0 0 0 0 0 127 0" result="hardAlpha"/>
<feOffset/>
<feGaussianBlur stdDeviation="4.167"/>
<feColorMatrix type="matrix" values="0 0 0 0 0 0 0 0 0 0 0 0 0 0 0 0 0 0 0.25 0"/>
<feBlend mode="overlay" in2="BackgroundImageFix" result="effect1_dropShadow_273_453"/>
<feBlend mode="normal" in="SourceGraphic" in2="effect1_dropShadow_273_453" result="shape"/>
</filter>
<linearGradient id="paint0_linear_273_453" x1="27.4665" y1="-0.000815872" x2="27.4665" y2="54.9999" gradientUnits="userSpaceOnUse">
<stop stop-color="white"/>
<stop offset="1" stop-color="white" stop-opacity="0"/>
</linearGradient>
</defs>
</svg>
