<svg width="41" height="41" viewBox="0 0 41 41" fill="none" xmlns="http://www.w3.org/2000/svg">
<path d="M19.6458 37.5833C17.0264 37.5833 14.8056 36.6722 12.9833 34.85C11.1611 33.0278 10.25 30.8069 10.25 28.1875V10.25C10.25 8.37084 10.9191 6.76216 12.2573 5.42396C13.5955 4.08577 15.2042 3.41667 17.0833 3.41667C18.9625 3.41667 20.5712 4.08577 21.9094 5.42396C23.2476 6.76216 23.9167 8.37084 23.9167 10.25V23.9167H21.3542V10.25C21.3542 9.05417 20.9413 8.04341 20.1156 7.21771C19.2899 6.39202 18.2792 5.97917 17.0833 5.97917C15.8875 5.97917 14.8767 6.39202 14.051 7.21771C13.2253 8.04341 12.8125 9.05417 12.8125 10.25V28.1875C12.8125 30.0667 13.4816 31.6754 14.8198 33.0135C16.158 34.3517 17.7667 35.0208 19.6458 35.0208C20.4715 35.0208 21.2477 34.8853 21.9743 34.6143C22.7009 34.3432 23.3484 33.9662 23.9167 33.4833V36.5583C23.2618 36.8715 22.5785 37.1209 21.8667 37.3066C21.1549 37.4922 20.4146 37.5845 19.6458 37.5833ZM27.3333 35.875V30.75H22.2083V27.3333H27.3333V22.2083H30.75V27.3333H35.875V30.75H30.75V35.875H27.3333ZM19.6458 28.1875V30.75C18.45 30.75 17.4392 30.3372 16.6135 29.5115C15.7878 28.6858 15.375 27.675 15.375 26.4792V10.25H17.9375V26.4792C17.9375 26.9632 18.1015 27.3692 18.4295 27.6972C18.7575 28.0252 19.1629 28.1886 19.6458 28.1875ZM26.4792 18.7917V10.25H29.0417V18.7917H26.4792Z" fill="#27114B"/>
</svg>
