<svg width="36" height="36" viewBox="0 0 36 36" fill="none" xmlns="http://www.w3.org/2000/svg">
<g clip-path="url(#clip0_223_1815)">
<path fill-rule="evenodd" clip-rule="evenodd" d="M19.5901 24.09C19.1682 24.5113 18.5963 24.748 18.0001 24.748C17.4038 24.748 16.832 24.5113 16.4101 24.09L7.92309 15.606C7.5012 15.1839 7.26426 14.6115 7.2644 14.0147C7.26455 13.4179 7.50175 12.8456 7.92384 12.4237C8.34594 12.0018 8.91834 11.7649 9.51513 11.765C10.1119 11.7652 10.6842 12.0024 11.1061 12.4245L18.0001 19.3185L24.8941 12.4245C25.3183 12.0144 25.8865 11.7874 26.4765 11.7922C27.0664 11.7971 27.6308 12.0334 28.0482 12.4504C28.4656 12.8674 28.7025 13.4316 28.7079 14.0215C28.7133 14.6115 28.4868 15.1799 28.0771 15.6045L19.5916 24.0915L19.5901 24.09Z" fill="#00F0FF"/>
</g>
<defs>
<clipPath id="clip0_223_1815">
<rect width="36" height="36" fill="white"/>
</clipPath>
</defs>
</svg>
