<svg width="36" height="36" viewBox="0 0 36 36" fill="none" xmlns="http://www.w3.org/2000/svg">
<g clip-path="url(#clip0_219_1543)">
<path fill-rule="evenodd" clip-rule="evenodd" d="M19.59 24.09C19.1681 24.5114 18.5962 24.748 18 24.748C17.4037 24.748 16.8318 24.5114 16.41 24.09L7.92297 15.606C7.50108 15.1839 7.26414 14.6115 7.26428 14.0147C7.26442 13.4179 7.50163 12.8456 7.92372 12.4238C8.34581 12.0019 8.91822 11.7649 9.515 11.7651C10.1118 11.7652 10.6841 12.0024 11.106 12.4245L18 19.3185L24.894 12.4245C25.3181 12.0144 25.8864 11.7874 26.4763 11.7922C27.0663 11.7971 27.6307 12.0334 28.0481 12.4504C28.4655 12.8674 28.7024 13.4316 28.7078 14.0215C28.7132 14.6115 28.4866 15.18 28.077 15.6045L19.5915 24.0915L19.59 24.09Z" fill="#27114B"/>
</g>
<defs>
<clipPath id="clip0_219_1543">
<rect width="36" height="36" fill="white"/>
</clipPath>
</defs>
</svg>
