<svg width="86" height="146" viewBox="0 0 86 146" fill="none" xmlns="http://www.w3.org/2000/svg">
<path d="M19.5186 108.681C3.85918 97.7443 0.311746 77.4429 0.930013 59.1888C1.03137 56.1481 0.696908 52.925 2.14629 50.2594C3.59567 47.5937 6.98093 45.7592 9.70739 47.0363C11.9676 48.1005 12.9508 50.7357 14.2177 52.9149C15.9082 55.8173 18.3855 58.1822 21.3632 59.7361C23.2991 60.7496 25.7013 61.3578 27.6169 60.3037C30.2521 58.8543 30.5562 55.2359 30.5359 52.1953C30.5359 46.5396 30.5021 40.8908 30.4346 35.2486C30.2524 32.219 30.5604 29.1798 31.3468 26.2483C32.2894 23.3698 34.3874 20.7041 37.2557 19.8933C40.1241 19.0825 43.7019 20.7548 44.3506 23.7144C44.4623 24.9679 44.4927 26.2274 44.4418 27.4848C44.5229 28.7518 45.1108 30.1403 46.2967 30.5255C47.4825 30.9106 48.7191 30.0288 49.6313 29.1369C52.753 26.0962 54.8814 22.1333 56.8579 18.2209C58.8343 14.3086 60.7702 10.2848 63.6081 6.95022C66.4461 3.61563 70.3685 0.970266 74.7572 0.716878C79.1459 0.463489 83.717 3.15954 84.8117 7.41647C85.9063 11.6734 83.4231 16.0215 80.7575 19.4777C76.735 24.608 71.9934 29.1312 66.6792 32.9073C65.6419 33.4737 64.814 34.3585 64.3176 35.4311C63.6588 37.4582 65.5744 39.4853 67.5711 40.1238C69.8313 40.8739 72.2841 40.6407 74.666 40.9245C77.0478 41.2083 79.5817 42.2421 80.4838 44.472C81.7203 47.5734 79.1256 50.8168 76.5816 52.9453C71.4733 57.2022 65.6728 60.5515 59.4323 62.8477C57.2025 63.6585 54.8612 64.3782 53.057 65.939C51.2529 67.4999 50.1786 70.2264 51.2631 72.365C52.3476 74.5036 55.1348 75.1826 57.4761 74.7468C59.8175 74.311 61.8952 73.0542 64.125 72.2129C68.2907 70.6419 73.6626 70.9257 76.2877 74.5238C77.1009 75.7633 77.6157 77.1744 77.7916 78.6464C77.9675 80.1184 77.7996 81.6111 77.3012 83.0073C76.2868 85.7858 74.7256 88.3327 72.7098 90.4974C66.0715 98.4288 57.4462 104.455 47.7156 107.961C38.0565 111.306 29.1068 112.218 19.5085 108.701" fill="#FFBE9D"/>
<path d="M80.3518 3.22046C80.3518 3.22046 80.2606 3.32181 80.0579 3.50425L79.1558 4.30495C78.3652 5.01444 77.1997 6.04827 75.73 7.41657C71.5632 11.2855 67.6939 15.463 64.1552 19.9137C61.895 22.7212 59.5537 25.9038 57.0604 29.36C54.567 32.8162 51.9926 36.5461 49.4385 40.5091C46.7154 44.6881 44.2217 49.0123 41.9686 53.4623C40.7928 55.7833 39.759 58.2057 38.6948 60.6788L35.5528 68.2297C31.4112 77.741 27.804 87.4761 24.7483 97.3897C22.2869 105.501 20.5902 113.825 19.6805 122.252C19.0911 127.939 18.9961 133.667 19.3967 139.371C19.5589 141.398 19.711 142.949 19.8528 144.003C19.9137 144.51 19.9542 144.915 19.9947 145.209V145.625C19.9511 145.493 19.9206 145.357 19.9035 145.219C19.8528 144.925 19.792 144.53 19.7109 144.023C19.5285 143.01 19.3359 141.408 19.1535 139.381C18.6645 133.667 18.6984 127.92 19.2549 122.212C20.1081 113.748 21.7677 105.386 24.2111 97.2376C27.2412 87.2962 30.8385 77.5366 34.9852 68.0068L38.2083 60.4862C39.2725 58.0233 40.3165 55.5806 41.5023 53.2494C43.7712 48.786 46.2852 44.4515 49.033 40.2658C51.6277 36.2116 54.2427 32.5426 56.7056 29.1167C59.1686 25.6909 61.5504 22.4881 63.8005 19.6907C67.3752 15.2518 71.2964 11.1035 75.5273 7.2848C77.0274 5.93678 78.2234 4.92322 79.0342 4.24414L79.9768 3.48398C80.0923 3.38337 80.218 3.29506 80.3518 3.22046Z" fill="#263238"/>
<path d="M41.6343 53.2291C41.4913 52.8115 41.3928 52.3801 41.3403 51.9419C41.1782 51.1006 40.9958 49.9147 40.7829 48.3741C40.3471 45.3335 39.9011 41.1678 39.4247 36.5561C38.9484 31.9444 38.4112 27.7686 37.9652 24.7584C37.7321 23.2583 37.5294 22.0522 37.3875 21.2109C37.2768 20.7804 37.2189 20.3379 37.2152 19.8933C37.3897 20.2994 37.5156 20.7246 37.5902 21.1603C37.8132 21.9914 38.0666 23.1874 38.3504 24.6976C38.9281 27.7382 39.4957 31.8735 39.972 36.4953C40.4484 41.1171 40.8539 45.1713 41.1681 48.3235C41.3201 49.7425 41.4519 50.9486 41.5532 51.9115C41.632 52.346 41.6592 52.7882 41.6343 53.2291Z" fill="#263238"/>
<path d="M80.6357 45.9519C80.1424 46.0593 79.6402 46.1204 79.1356 46.1344C78.1221 46.2256 76.6828 46.3472 74.899 46.5499C71.3313 46.9351 66.4256 47.6446 61.0437 48.6581C55.6617 49.6717 50.8271 50.817 47.3506 51.6988C45.6174 52.1447 44.2187 52.5502 43.2964 52.8238C42.8039 52.9988 42.2943 53.1211 41.7761 53.1887C42.2444 52.9532 42.7329 52.7599 43.2355 52.611C44.1883 52.2765 45.5667 51.8103 47.2898 51.3136C50.746 50.3001 55.5806 49.094 60.9829 48.0601C65.5591 47.1851 70.1766 46.5424 74.8179 46.1344C76.6119 45.9823 78.0612 45.9215 79.0748 45.9013C79.5955 45.8658 80.1184 45.8828 80.6357 45.9519Z" fill="#263238"/>
<path d="M24.7079 96.5282C24.5999 96.3814 24.5113 96.2213 24.4444 96.0518L23.7755 94.6429C23.1978 93.4165 22.4173 91.6023 21.4848 89.3826C19.5996 84.923 17.1975 78.6795 14.6434 71.7468C12.0892 64.8141 9.73775 58.5706 7.9539 54.0603C7.08224 51.871 6.36265 50.077 5.82546 48.7391L5.25784 47.2898C5.17917 47.1226 5.1246 46.9452 5.0957 46.7627C5.20376 46.9094 5.29232 47.0696 5.35921 47.2391L6.02815 48.6479C6.59574 49.8743 7.38633 51.6886 8.31879 53.9083C10.204 58.3679 12.6061 64.6114 15.1603 71.5441C17.7144 78.4768 20.0659 84.7202 21.8497 89.2306C22.7214 91.4198 23.441 93.2138 23.9681 94.5517C24.2012 95.1294 24.3938 95.5653 24.5458 96.0011C24.6245 96.1683 24.679 96.3457 24.7079 96.5282Z" fill="#263238"/>
<path d="M76.4802 79.835C76.3179 79.9281 76.1441 79.9997 75.9633 80.0478L74.4632 80.5546L68.9191 82.3486C64.2365 83.8689 57.77 86.0379 50.6751 88.4299C43.5803 90.8219 37.0834 92.9503 32.3703 94.3693C30.0189 95.0889 28.1033 95.6363 26.7755 96.0011L25.2451 96.3964C25.0671 96.4529 24.8836 96.4903 24.6978 96.5079C24.8601 96.4148 25.0338 96.3432 25.2146 96.2951L26.7147 95.7883L32.2589 93.9943C36.9415 92.474 43.4079 90.305 50.5028 87.913C57.5977 85.521 64.0844 83.3925 68.7974 81.9735C71.159 81.2539 73.0645 80.7066 74.4024 80.3417L75.9329 79.9464C76.1108 79.8899 76.2943 79.8526 76.4802 79.835Z" fill="#263238"/>
</svg>
