<svg width="55" height="55" viewBox="0 0 55 55" fill="none" xmlns="http://www.w3.org/2000/svg">
<g clip-path="url(#clip0_273_470)">
<path d="M42.1094 0H12.8906C5.77133 0 0 5.77133 0 12.8906V42.1094C0 49.2287 5.77133 55 12.8906 55H42.1094C49.2287 55 55 49.2287 55 42.1094V12.8906C55 5.77133 49.2287 0 42.1094 0Z" fill="#092E20"/>
<path d="M24.2105 10.957H30.3583V39.4131C27.2046 40.0119 24.8892 40.2514 22.3745 40.2514C14.8691 40.2512 10.957 36.8584 10.957 30.3512C10.957 24.0836 15.1089 20.0121 21.5359 20.0121C22.5339 20.0121 23.2923 20.0915 24.2105 20.3311V10.957ZM24.2105 25.2809C23.4921 25.0418 22.8933 24.9618 22.1349 24.9618C19.0212 24.9618 17.2245 26.878 17.2245 30.2311C17.2245 33.5049 18.9413 35.3012 22.095 35.3012C22.7732 35.3012 23.3325 35.2612 24.2105 35.1418V25.2809Z" fill="white"/>
<path d="M40.1384 20.451V34.7021C40.1384 39.6125 39.7791 41.9676 38.7013 44.0037C37.7031 45.9601 36.3857 47.1974 33.6711 48.5547L27.9625 45.84C30.6771 44.5627 31.9945 43.4453 32.8326 41.7281C33.7111 39.9717 33.9908 37.9357 33.9908 32.5865V20.4508L40.1384 20.451ZM33.9908 10.9897H40.1384V17.2971H33.9908V10.9897Z" fill="white"/>
</g>
<defs>
<clipPath id="clip0_273_470">
<rect width="55" height="55" fill="white"/>
</clipPath>
</defs>
</svg>
