<svg width="54" height="60" viewBox="0 0 54 60" fill="none" xmlns="http://www.w3.org/2000/svg">
<path d="M26.9121 0.454659H26.4357L25.0573 0.556021C24.3113 0.600838 23.5695 0.699076 22.8376 0.84996C22.3635 0.916527 21.8933 1.00786 21.4288 1.12361L19.8578 1.55944C17.1838 2.3798 14.661 3.62923 12.3879 5.25891C9.38459 7.43883 6.87681 10.2299 5.02947 13.4484C3.94368 15.3037 3.07962 17.2802 2.45504 19.3372C1.79876 21.5728 1.4209 23.8809 1.33001 26.209C1.2696 27.4321 1.28991 28.6578 1.39082 29.8781C1.39082 30.4964 1.56312 31.1146 1.64421 31.7431C1.71241 32.3765 1.83103 33.0035 1.99895 33.6181C2.91036 37.6853 4.75963 41.4831 7.39926 44.7088C10.0389 47.9344 13.3958 50.4985 17.2022 52.1965C19.9572 53.3853 22.91 54.0487 25.9087 54.1527C29.0058 54.3231 32.106 53.8787 35.0306 52.8452L35.9226 52.5107H36.0442L36.1456 52.5716L48.9265 59.0583L48.5514 59.3826C47.1832 55.146 45.8655 51.0411 44.5885 47.0984V46.9463L44.6999 46.8349C47.8004 43.712 50.102 39.8876 51.4097 35.6858C52.594 31.8444 52.9397 27.7934 52.4232 23.8069C51.9638 20.2641 50.8247 16.8432 49.0684 13.7322C47.5544 11.0598 45.6014 8.66133 43.2911 6.63734C41.3851 5.03533 39.2755 3.69255 37.0172 2.64394C35.3085 1.90696 33.5289 1.3466 31.7062 0.971581L29.6791 0.637107L28.2094 0.525616L27.3175 0.464805H27.0134C27.1145 0.453592 27.2165 0.453592 27.3175 0.464805H28.2196L29.6892 0.525616L31.7163 0.819539C33.5617 1.16711 35.3656 1.70726 37.0983 2.4311C39.3954 3.46724 41.543 4.80694 43.4837 6.41436C45.8364 8.42936 47.8309 10.8282 49.3826 13.5092C51.1888 16.6536 52.3629 20.1208 52.8388 23.7157C53.3981 27.7638 53.0765 31.8849 51.8962 35.7973C50.58 40.0864 48.2428 43.9922 45.0851 47.1795L45.1459 46.9159C46.423 50.8587 47.7507 54.9636 49.1292 59.1901L49.3217 59.8083L48.744 59.5144L35.9631 53.0378H36.1861L35.2739 53.3723C32.293 54.4212 29.1354 54.8757 25.9796 54.7102C22.9163 54.5935 19.9017 53.9061 17.0908 52.6831C11.7288 50.3867 7.26762 46.3955 4.39093 41.3211C3.06715 38.9776 2.10038 36.4497 1.52258 33.8208C1.36435 33.1904 1.24587 32.5506 1.16784 31.9052C1.08675 31.2667 0.954991 30.6383 0.924584 30.0099C0.650274 26.4035 1.03144 22.7773 2.04963 19.3068C2.68975 17.2215 3.5779 15.2206 4.695 13.3471C6.58641 10.0993 9.14643 7.29049 12.2054 5.10688C14.516 3.47304 17.0812 2.23322 19.7969 1.43781L21.3882 1.03239C21.8566 0.923755 22.3302 0.839181 22.8072 0.779004C23.5467 0.642069 24.2955 0.560752 25.0471 0.535746L26.4357 0.48508C26.5936 0.463815 26.7528 0.45364 26.9121 0.454659Z" fill="#FF7A00"/>
<path d="M32.6893 24.0906H30.8142L26.76 18.3945V14.6544C26.76 14.6544 23.8613 14.472 24.2059 19.3675C24.5505 24.2629 24.2059 23.0163 24.2059 23.0163C24.2059 23.0163 18.0536 23.0163 17.5468 23.5737C17.04 24.1312 17.0096 30.0706 16.9387 33.3849C16.8998 34.1839 17.1291 34.9729 17.59 35.6266C18.051 36.2804 18.7171 36.7614 19.4827 36.9931C19.6973 37.0526 19.9188 37.0833 20.1415 37.0844C21.6821 37.0844 29.5169 35.8377 29.5169 35.8377H32.7501L32.6893 24.0906Z" fill="#FF7A00"/>
<path d="M38.0512 23.0874L36.8957 35.8987H33.6929V23.3509L38.0512 23.0874Z" fill="#FF7A00"/>
</svg>
