<svg width="49" height="47" viewBox="0 0 49 47" fill="none" xmlns="http://www.w3.org/2000/svg">
<path d="M24.5012 0C10.9643 0 4.03048e-06 10.7825 4.03048e-06 24.095C-0.00294606 29.1529 1.61365 34.0833 4.62047 38.1868C7.62729 42.2903 11.8717 45.3586 16.7515 46.9563C17.9766 47.166 18.4372 46.4431 18.4372 45.8094C18.4372 45.2383 18.4053 43.3421 18.4053 41.3229C12.2506 42.4385 10.658 39.8483 10.168 38.4918C9.89115 37.7978 8.69794 35.6606 7.65664 35.0871C6.79909 34.6366 5.57403 33.521 7.62478 33.492C9.55548 33.4607 10.9324 35.2389 11.3931 35.9618C13.5982 39.6049 17.119 38.5809 18.5278 37.9496C18.7434 36.3834 19.3854 35.3305 20.091 34.7281C14.6395 34.1257 8.94295 32.0463 8.94295 22.83C8.94295 20.2085 9.89115 18.0423 11.4543 16.3533C11.2093 15.7509 10.3518 13.2812 11.6993 9.9681C11.6993 9.9681 13.7501 9.33681 18.4372 12.4402C20.4317 11.8958 22.4925 11.6218 24.5625 11.6258C26.6451 11.6258 28.7277 11.8957 30.6878 12.4378C35.3749 9.30549 37.4256 9.97051 37.4256 9.97051C38.7732 13.2836 37.9156 15.7533 37.6706 16.3557C39.2314 18.0423 40.182 20.1796 40.182 22.83C40.182 32.0777 34.4561 34.1257 29.0021 34.7281C29.8915 35.4799 30.6584 36.9256 30.6584 39.1857C30.6584 42.4072 30.6265 44.9974 30.6265 45.8118C30.6265 46.4431 31.0872 47.1949 32.3122 46.9539C37.1753 45.3386 41.401 42.2644 44.3945 38.1639C47.3881 34.0633 48.9988 29.1429 49 24.095C49 10.7825 38.0357 0 24.4988 0H24.5012Z" fill="#2945FF"/>
</svg>
