<svg width="134" height="280" viewBox="0 0 134 280" fill="none" xmlns="http://www.w3.org/2000/svg">
<path d="M118.119 0.735503H98.4968C97.8565 0.747371 97.2248 0.88526 96.6379 1.14129C96.0509 1.39732 95.5202 1.76647 95.0759 2.22767C94.6317 2.68887 94.2826 3.23307 94.0487 3.82919C93.8148 4.42531 93.7007 5.06167 93.7128 5.70191V9.25949C93.7249 9.89924 93.6106 10.5351 93.3766 11.1306C93.1426 11.7262 92.7934 12.2697 92.349 12.7301C91.9046 13.1905 91.3738 13.5587 90.7869 13.8136C90.2 14.0686 89.5686 14.2052 88.9288 14.2158L50.6773 13.8136C49.3833 13.7791 48.1559 13.4623 47.2646 12.5235C46.3733 11.5847 45.8911 10.3306 45.9237 9.0365V5.47893C45.9565 4.18657 45.4756 2.93393 44.5865 1.99543C43.6974 1.05694 42.4726 0.509113 41.1803 0.471978H34.278L17.0983 0.390899C13.0121 0.36657 9.08265 1.9624 6.17048 4.82898C3.25831 7.69556 1.60068 11.5993 1.56053 15.6854L0.546978 263.418C0.537639 265.445 0.927666 267.454 1.6948 269.331C2.46194 271.207 3.59117 272.914 5.01799 274.354C6.44481 275.794 8.14128 276.939 10.0106 277.723C11.8798 278.508 13.8853 278.916 15.9124 278.925L116.943 279.392C118.972 279.401 120.982 279.011 122.86 278.243C124.738 277.475 126.446 276.345 127.887 274.918C129.328 273.49 130.473 271.792 131.258 269.922C132.043 268.051 132.452 266.045 132.461 264.016L133.474 16.2834C133.499 12.1858 131.895 8.24617 129.015 5.33065C126.136 2.41513 122.217 0.762302 118.119 0.735503Z" fill="white"/>
</svg>
