<svg width="49" height="39" viewBox="0 0 49 39" fill="none" xmlns="http://www.w3.org/2000/svg">
<path d="M43.9836 9.70877C44.0135 10.1321 44.0135 10.5551 44.0135 10.9822C44.0135 23.9937 33.9007 39 15.4097 39V38.9925C9.94703 39 4.59755 37.4674 0 34.5776C0.794336 34.6713 1.5925 34.7182 2.39258 34.7201C6.92014 34.7236 11.3175 33.2362 14.878 30.4968C12.7802 30.458 10.7472 29.778 9.06325 28.5519C7.37932 27.3258 6.12864 25.6149 5.48609 23.6584C6.99322 23.9434 8.54591 23.8845 10.0251 23.4886C5.33488 22.5605 1.96077 18.5243 1.96077 13.8368V13.712C3.35891 14.4749 4.92375 14.8976 6.52351 14.9445C2.10547 12.0527 0.74457 6.29653 3.41201 1.7965C5.93585 4.83852 9.08475 7.32648 12.6542 9.0988C16.2236 10.8711 20.1337 11.8881 24.1306 12.0838C23.7322 10.4035 23.7912 8.65017 24.3016 6.99916C24.812 5.34815 25.756 3.85734 27.0392 2.67581C31.0882 -1.05253 37.4563 -0.86129 41.2622 3.1029C43.5136 2.66746 45.6726 1.85892 47.6464 0.712088C46.8959 2.99217 45.3254 4.92765 43.2272 6.15854C45.22 5.92839 47.1661 5.4057 49 4.60804C47.6509 6.58699 45.9522 8.3143 43.9836 9.70877Z" fill="#1D9BF0"/>
</svg>
