<svg width="15" height="15" viewBox="0 0 15 15" fill="none" xmlns="http://www.w3.org/2000/svg">
<path opacity="0.1" d="M8.94166 7.74028C9.64574 7.43022 10.2431 6.91996 10.6594 6.27299C11.0757 5.62602 11.2925 4.87091 11.283 4.10163C11.3092 3.60155 11.2333 3.10137 11.06 2.63154C10.8867 2.16172 10.6196 1.73209 10.2749 1.36884C9.93022 1.00558 9.51518 0.716307 9.05508 0.518625C8.59498 0.320942 8.09945 0.218994 7.59869 0.218994C7.09792 0.218994 6.60239 0.320942 6.14229 0.518625C5.68219 0.716307 5.26715 1.00558 4.92246 1.36884C4.57776 1.73209 4.31064 2.16172 4.13733 2.63154C3.96403 3.10137 3.8882 3.60155 3.91444 4.10163C3.899 4.87861 4.11409 5.64275 4.5326 6.29757C4.95111 6.95239 5.55424 7.46853 6.26586 7.78083C0.589965 8.63222 0.843378 14.7946 0.843378 14.7946L14.2628 14.8554C14.2628 14.8554 14.577 8.58153 8.94166 7.74028Z" fill="black"/>
</svg>
