<svg width="57" height="55" viewBox="0 0 57 55" fill="none" xmlns="http://www.w3.org/2000/svg">
<path d="M28.1963 0C12.6178 0 4.63831e-06 12.6178 4.63831e-06 28.1963C-0.00339035 34.1151 1.85701 39.8847 5.31729 44.6867C8.77757 49.4887 13.662 53.0792 19.2778 54.9489C20.6876 55.1942 21.2177 54.3483 21.2177 53.6067C21.2177 52.9385 21.181 50.7195 21.181 48.3566C14.0981 49.6621 12.2654 46.631 11.7015 45.0435C11.3828 44.2315 10.0097 41.7305 8.81134 41.0594C7.82447 40.5321 6.41466 39.2267 8.77468 39.1928C10.9966 39.1562 12.5812 41.237 13.1113 42.0829C15.6489 46.3462 19.7007 45.1479 21.322 44.4091C21.5702 42.5764 22.3089 41.3442 23.1209 40.6393C16.8473 39.9344 10.2916 37.501 10.2916 26.716C10.2916 23.6482 11.3828 21.1134 13.1818 19.1368C12.8998 18.4319 11.9129 15.5418 13.4637 11.6648C13.4637 11.6648 15.8238 10.9261 21.2177 14.5577C23.5131 13.9207 25.8846 13.6 28.2668 13.6047C30.6634 13.6047 33.0601 13.9205 35.3158 14.5549C40.7098 10.8894 43.0698 11.6676 43.0698 11.6676C44.6206 15.5446 43.6337 18.4347 43.3518 19.1396C45.1479 21.1134 46.2419 23.6144 46.2419 26.716C46.2419 37.5377 39.6524 39.9344 33.3759 40.6393C34.3995 41.519 35.282 43.2108 35.282 45.8556C35.282 49.6254 35.2453 52.6565 35.2453 53.6096C35.2453 54.3483 35.7754 55.228 37.1852 54.9461C42.7818 53.0559 47.6447 49.4584 51.0897 44.6599C54.5347 39.8613 56.3883 34.1034 56.3897 28.1963C56.3897 12.6178 43.7719 0 28.1935 0H28.1963Z" fill="#2945FF"/>
</svg>
