<svg width="5" height="5" viewBox="0 0 5 5" fill="none" xmlns="http://www.w3.org/2000/svg">
<path d="M4.65794 3.02644C4.63027 3.43263 4.48445 3.82188 4.23842 4.14627C3.99239 4.47065 3.65689 4.71603 3.27321 4.85221C2.88953 4.98839 2.47441 5.00941 2.07893 4.91271C1.68344 4.81601 1.32486 4.60578 1.04731 4.30791C0.769756 4.01005 0.585357 3.63756 0.516777 3.23624C0.448197 2.83493 0.498431 2.42232 0.661318 2.0492C0.824206 1.67607 1.09262 1.35868 1.43355 1.13614C1.77447 0.913592 2.17304 0.795603 2.58017 0.796638C3.15105 0.817772 3.69029 1.06431 4.07974 1.48226C4.46919 1.90021 4.6771 2.45548 4.65794 3.02644Z" fill="#AF4C4C"/>
</svg>
