<svg width="6" height="5" viewBox="0 0 6 5" fill="none" xmlns="http://www.w3.org/2000/svg">
<path d="M5.11444 3.05672C5.08648 3.46502 4.93915 3.8561 4.69075 4.18135C4.44235 4.5066 4.10385 4.75167 3.71731 4.88611C3.33077 5.02056 2.91324 5.03846 2.51662 4.93755C2.12 4.83665 1.76176 4.62138 1.48646 4.31856C1.21117 4.01573 1.03094 3.63868 0.968177 3.23426C0.905416 2.82985 0.962909 2.41593 1.13347 2.04391C1.30404 1.67189 1.58016 1.3582 1.92754 1.14183C2.27492 0.925462 2.67823 0.815958 3.08733 0.826922C3.64924 0.86094 4.17564 1.11308 4.55431 1.52962C4.93298 1.94615 5.13397 2.49412 5.11444 3.05672Z" fill="#AF4C4C"/>
</svg>
