<svg width="5" height="6" viewBox="0 0 5 6" fill="none" xmlns="http://www.w3.org/2000/svg">
<path d="M4.20152 2.99623C4.22146 3.28198 4.1824 3.56877 4.08676 3.83877C3.99112 4.10877 3.84096 4.35621 3.64559 4.56568C3.45023 4.77516 3.21384 4.9422 2.95116 5.0564C2.68847 5.17061 2.40511 5.22953 2.11867 5.22953C1.83224 5.22953 1.54885 5.17061 1.28616 5.0564C1.02348 4.9422 0.787119 4.77516 0.591756 4.56568C0.396393 4.35621 0.246225 4.10877 0.150585 3.83877C0.0549443 3.56877 0.015885 3.28198 0.0358299 2.99623C0.015885 2.71049 0.0549443 2.4237 0.150585 2.1537C0.246225 1.8837 0.396393 1.63626 0.591756 1.42678C0.787119 1.21731 1.02348 1.0503 1.28616 0.936092C1.54885 0.821884 1.83224 0.762939 2.11867 0.762939C2.40511 0.762939 2.68847 0.821884 2.95116 0.936092C3.21384 1.0503 3.45023 1.21731 3.64559 1.42678C3.84096 1.63626 3.99112 1.8837 4.08676 2.1537C4.1824 2.4237 4.22146 2.71049 4.20152 2.99623Z" fill="#AF4C4C"/>
</svg>
