<svg width="5" height="5" viewBox="0 0 5 5" fill="none" xmlns="http://www.w3.org/2000/svg">
<path d="M4.74542 2.96543C4.71775 3.37162 4.57193 3.76085 4.3259 4.08523C4.07988 4.40962 3.74438 4.65503 3.3607 4.79121C2.97702 4.92738 2.56189 4.94841 2.16641 4.85171C1.77093 4.75501 1.41235 4.54477 1.1348 4.24691C0.857244 3.94905 0.672814 3.57655 0.604234 3.17524C0.535654 2.77392 0.585919 2.36132 0.748806 1.98819C0.911694 1.61506 1.18011 1.29768 1.52103 1.07513C1.86196 0.852588 2.26049 0.734567 2.66762 0.735602C3.23851 0.756737 3.77774 1.0033 4.1672 1.42125C4.55665 1.8392 4.76459 2.39448 4.74542 2.96543Z" fill="#AF4C4C"/>
</svg>
