<svg width="5" height="5" viewBox="0 0 5 5" fill="none" xmlns="http://www.w3.org/2000/svg">
<path d="M4.44337 2.82371C4.41346 3.23141 4.26453 3.62135 4.01505 3.94518C3.76557 4.26902 3.42651 4.51249 3.03993 4.6454C2.65335 4.77832 2.23625 4.79483 1.84037 4.69288C1.44449 4.59094 1.08725 4.37504 0.812945 4.07194C0.538644 3.76884 0.359364 3.39186 0.297322 2.9878C0.23528 2.58375 0.293205 2.17037 0.463933 1.79893C0.63466 1.4275 0.91068 1.11436 1.25774 0.898339C1.60479 0.68232 2.00761 0.572927 2.41626 0.583738C2.98093 0.615202 3.51044 0.868035 3.88992 1.28736C4.2694 1.70669 4.46825 2.25872 4.44337 2.82371Z" fill="#AF4C4C"/>
</svg>
