<svg width="44" height="44" viewBox="0 0 44 44" fill="none" xmlns="http://www.w3.org/2000/svg">
<path d="M29.4532 0C14.3905 0 15.331 6.51753 15.331 6.51753L15.3477 13.2699H29.7217V15.2971H9.63859C9.63859 15.2971 0 14.2064 0 29.3707C0 44.5355 8.4128 43.9976 8.4128 43.9976H13.4335V36.9606C13.4335 36.9606 13.1629 28.5665 21.712 28.5665H35.9685C35.9685 28.5665 43.9782 28.6957 43.9782 20.8426V7.85812C43.9782 7.85812 45.1947 0 29.4532 0ZM21.5273 4.54082C21.867 4.54052 22.2034 4.60705 22.5173 4.7366C22.8311 4.86616 23.1163 5.0562 23.3565 5.29584C23.5967 5.53549 23.7871 5.82004 23.917 6.13321C24.0468 6.44639 24.1135 6.78203 24.1132 7.12094C24.1135 7.45986 24.0468 7.7955 23.917 8.10867C23.7871 8.42185 23.5967 8.7064 23.3565 8.94604C23.1163 9.18569 22.8311 9.37573 22.5173 9.50528C22.2034 9.63484 21.867 9.70137 21.5273 9.70106C21.1877 9.70137 20.8513 9.63484 20.5374 9.50528C20.2235 9.37573 19.9383 9.18569 19.6982 8.94604C19.458 8.7064 19.2675 8.42185 19.1377 8.10867C19.0078 7.7955 18.9412 7.45986 18.9415 7.12094C18.9412 6.78203 19.0078 6.44639 19.1377 6.13321C19.2675 5.82004 19.458 5.53549 19.6982 5.29584C19.9383 5.0562 20.2235 4.86616 20.5374 4.7366C20.8513 4.60705 21.1877 4.54052 21.5273 4.54082Z" fill="url(#paint0_linear_273_482)"/>
<defs>
<linearGradient id="paint0_linear_273_482" x1="570.196" y1="529.716" x2="3504.12" y2="3440.84" gradientUnits="userSpaceOnUse">
<stop stop-color="#387EB8"/>
<stop offset="1" stop-color="#366994"/>
</linearGradient>
</defs>
</svg>
