<svg width="44" height="44" viewBox="0 0 44 44" fill="none" xmlns="http://www.w3.org/2000/svg">
<path d="M14.5471 44C29.6097 44 28.6692 37.4825 28.6692 37.4825L28.6525 30.7304H14.2782V28.7031H34.3614C34.3614 28.7031 44 29.7938 44 14.6291C44 -0.535455 35.5872 0.00235927 35.5872 0.00235927H30.5665V7.03915C30.5665 7.03915 30.8371 15.4332 22.288 15.4332H8.03149C8.03149 15.4332 0.0217898 15.3041 0.0217898 23.1574V36.1421C0.0217898 36.1421 -1.19448 44 14.5468 44H14.5471ZM22.4729 39.4596C22.1332 39.4599 21.7968 39.3934 21.483 39.2639C21.1691 39.1343 20.8839 38.9443 20.6437 38.7046C20.4035 38.465 20.2131 38.1804 20.0832 37.8672C19.9534 37.5541 19.8867 37.2184 19.887 36.8795C19.8867 36.5406 19.9533 36.2049 20.0832 35.8917C20.213 35.5785 20.4035 35.2939 20.6436 35.0543C20.8838 34.8146 21.169 34.6245 21.4829 34.495C21.7968 34.3654 22.1332 34.2989 22.4729 34.2992C22.8126 34.2989 23.149 34.3654 23.4628 34.4949C23.7767 34.6245 24.0619 34.8145 24.3021 35.0542C24.5422 35.2938 24.7327 35.5784 24.8626 35.8916C24.9924 36.2047 25.0591 36.5404 25.0588 36.8793C25.0591 37.2182 24.9924 37.5538 24.8626 37.867C24.7327 38.1802 24.5422 38.4647 24.3021 38.7044C24.0619 38.944 23.7767 39.1341 23.4628 39.2636C23.149 39.3932 22.8126 39.4599 22.4729 39.4596Z" fill="url(#paint0_linear_273_483)"/>
<defs>
<linearGradient id="paint0_linear_273_483" x1="841.632" y1="905.476" x2="3992.65" y2="3890.88" gradientUnits="userSpaceOnUse">
<stop stop-color="#FFE052"/>
<stop offset="1" stop-color="#FFC331"/>
</linearGradient>
</defs>
</svg>
