<svg width="5" height="5" viewBox="0 0 5 5" fill="none" xmlns="http://www.w3.org/2000/svg">
<path d="M4.27887 2.93517C4.25091 3.34347 4.10358 3.73455 3.85518 4.0598C3.60678 4.38505 3.26825 4.63012 2.88171 4.76456C2.49517 4.89901 2.07766 4.91688 1.68104 4.81597C1.28442 4.71506 0.926187 4.49983 0.650892 4.19701C0.375597 3.89418 0.195371 3.51713 0.132609 3.11271C0.0698469 2.7083 0.127325 2.29438 0.29789 1.92236C0.468454 1.55034 0.744589 1.23665 1.09197 1.02028C1.43935 0.803911 1.84266 0.694375 2.25177 0.705339C2.81367 0.739358 3.34007 0.991527 3.71874 1.40806C4.09741 1.8246 4.2984 2.37257 4.27887 2.93517Z" fill="#AF4C4C"/>
</svg>
