<svg width="55" height="49" viewBox="0 0 55 49" fill="none" xmlns="http://www.w3.org/2000/svg">
<path d="M45.221 15.8606C44.6356 15.6598 44.0453 15.4737 43.4506 15.3026C43.5505 14.8944 43.6425 14.4912 43.7241 14.095C45.0643 7.58932 44.1882 2.3482 41.1956 0.62258C38.3264 -1.03172 33.634 0.693263 28.895 4.81762C28.4279 5.22482 27.9712 5.64375 27.5254 6.07403C27.2269 5.78791 26.9231 5.50735 26.6142 5.23248C21.6474 0.8226 16.6691 -1.03601 13.6797 0.694552C10.8131 2.35401 9.96424 7.28102 11.1708 13.4466C11.2908 14.0572 11.4264 14.6647 11.5773 15.2685C10.8726 15.4687 10.1926 15.6818 9.54185 15.9087C3.71873 17.939 0 21.1206 0 24.4208C0 27.8293 3.99223 31.2481 10.0573 33.3212C10.549 33.4885 11.0448 33.6436 11.5442 33.7863C11.382 34.4366 11.238 35.0912 11.1124 35.7495C9.96209 41.8081 10.8604 46.6187 13.7193 48.2676C16.6721 49.9705 21.6281 48.2204 26.4537 44.0019C26.845 43.6589 27.2277 43.3063 27.6014 42.9442C28.0843 43.4101 28.58 43.8625 29.0881 44.3007C33.7627 48.323 38.3793 49.9473 41.2354 48.2938C44.1854 46.586 45.1443 41.4182 43.8995 35.1308C43.8014 34.6382 43.6914 34.1481 43.5697 33.6608C43.9177 33.5577 44.2593 33.4516 44.5923 33.3411C50.8976 31.2522 55 27.8749 55 24.4208C55 21.1086 51.1612 17.9055 45.221 15.8606ZM43.8535 31.1111C43.5527 31.2105 43.2442 31.3066 42.9296 31.4C42.2336 29.1964 41.2943 26.8533 40.1446 24.4322C41.2416 22.0689 42.1448 19.7557 42.8214 17.5664C43.384 17.7293 43.93 17.901 44.4563 18.0821C49.546 19.8343 52.6505 22.4247 52.6505 24.4208C52.6505 26.5469 49.2976 29.307 43.8535 31.1111ZM41.5946 35.5871C42.145 38.3672 42.2235 40.8809 41.8589 42.846C41.5314 44.6118 40.8727 45.789 40.058 46.2606C38.3249 47.2639 34.6182 45.9598 30.6206 42.5197C30.148 42.1122 29.6869 41.6917 29.2377 41.2586C30.7875 39.5637 32.3363 37.5933 33.848 35.4049C36.5069 35.169 39.0188 34.7832 41.2968 34.2566C41.4066 34.6977 41.5059 35.1413 41.5946 35.5871ZM18.7507 46.0872C17.0573 46.6851 15.7085 46.7023 14.8932 46.2322C13.1583 45.2317 12.4371 41.369 13.4209 36.1878C13.5378 35.5756 13.6717 34.9667 13.8224 34.3619C16.0753 34.8603 18.5689 35.2187 21.2341 35.4348C22.756 37.5761 24.3495 39.5443 25.9555 41.2678C25.6142 41.598 25.2648 41.9198 24.9077 42.2329C22.7737 44.0981 20.6353 45.4216 18.7507 46.0872ZM10.8174 31.0979C8.13549 30.1812 5.92066 28.9899 4.40258 27.6899C3.03832 26.5218 2.34975 25.3618 2.34975 24.4208C2.34975 22.418 5.33543 19.8636 10.3153 18.1274C10.9196 17.9169 11.5521 17.7181 12.2085 17.5316C12.8969 19.7703 13.7996 22.111 14.8891 24.478C13.7854 26.8799 12.8698 29.258 12.1748 31.5231C11.7189 31.3925 11.2663 31.2508 10.8174 31.0979ZM13.4767 12.9952C12.4431 7.71285 13.1295 3.72815 14.8571 2.72805C16.697 1.66285 20.7657 3.18158 25.0542 6.98947C25.3339 7.23835 25.609 7.49226 25.8794 7.75109C24.2814 9.46705 22.7025 11.4206 21.1941 13.5493C18.6074 13.7891 16.1313 14.1741 13.8548 14.6899C13.7146 14.1283 13.5885 13.5631 13.4767 12.9952ZM37.2013 18.8536C36.6636 17.9248 36.1059 17.0077 35.5287 16.1029C37.2836 16.3249 38.9649 16.6194 40.5438 16.9795C40.0699 18.4989 39.479 20.0872 38.7836 21.7157C38.2753 20.7512 37.7477 19.797 37.2013 18.8536ZM27.5264 9.43031C28.6101 10.6044 29.6955 11.9152 30.763 13.3375C28.5974 13.2352 26.4282 13.2348 24.2625 13.3362C25.3312 11.927 26.4258 10.618 27.5264 9.43031ZM17.7895 18.8697C17.2499 19.8055 16.7322 20.7538 16.2368 21.7138C15.5528 20.0911 14.9673 18.4954 14.4893 16.9546C16.0585 16.6035 17.7319 16.3165 19.4756 16.0986C18.8919 17.0089 18.3298 17.933 17.7895 18.8697ZM19.5256 32.9102C17.7242 32.7091 16.0256 32.4369 14.4568 32.0953C14.9424 30.5269 15.5407 28.8973 16.2396 27.2398C16.7369 28.2005 17.2568 29.1494 17.7987 30.0856C18.356 31.0481 18.9331 31.9908 19.5256 32.9102ZM27.5913 39.5768C26.4776 38.3754 25.3668 37.0461 24.2821 35.6165C25.3352 35.6578 26.4088 35.6789 27.5 35.6789C28.6211 35.6789 29.7292 35.6537 30.82 35.6052C29.749 37.0605 28.6677 38.3917 27.5913 39.5768ZM38.8057 27.1551C39.5409 28.8309 40.1605 30.4519 40.6525 31.9934C39.0579 32.3574 37.3362 32.6504 35.5221 32.868C36.1034 31.9465 36.6663 31.0135 37.2105 30.0695C37.7638 29.11 38.2957 28.1383 38.8057 27.1551ZM35.1753 28.8956C34.3422 30.3429 33.4622 31.7626 32.5368 33.1527C30.8605 33.2714 29.1805 33.3304 27.5 33.3295C25.7883 33.3295 24.1235 33.2763 22.5204 33.1723C21.5708 31.7854 20.674 30.3631 19.832 28.9085C18.9939 27.4615 18.2114 25.9833 17.4855 24.4769C18.2095 22.9702 18.9899 21.4912 19.8251 20.0432L19.8249 20.0434C20.6598 18.595 21.5494 17.1788 22.4918 15.7979C24.1274 15.6741 25.8047 15.6096 27.4998 15.6096C29.2026 15.6096 30.8823 15.6747 32.5175 15.7994C33.4503 17.1782 34.3342 18.5895 35.1676 20.0307C36.0055 21.4756 36.7963 22.9473 37.5386 24.4436C36.8039 25.9552 36.0157 27.4401 35.1753 28.8956ZM40.0222 2.65801C41.8638 3.7202 42.5801 8.00354 41.4229 13.6206C41.349 13.979 41.2661 14.344 41.1759 14.7142C38.8938 14.1874 36.416 13.7957 33.8218 13.5523C32.3106 11.4002 30.7446 9.44363 29.1726 7.74981C29.5846 7.35267 30.0063 6.96583 30.4376 6.58965C34.4981 3.05612 38.2931 1.66092 40.0222 2.65801ZM27.5 19.5095C30.2124 19.5095 32.4113 21.7084 32.4113 24.4208C32.4113 27.1332 30.2124 29.3322 27.5 29.3322C24.7876 29.3322 22.5887 27.1332 22.5887 24.4208C22.5887 21.7084 24.7876 19.5095 27.5 19.5095Z" fill="#00D8FF"/>
</svg>
