<svg width="5" height="5" viewBox="0 0 5 5" fill="none" xmlns="http://www.w3.org/2000/svg">
<path d="M4.3661 2.8845C4.33619 3.2922 4.18726 3.68214 3.93778 4.00598C3.68829 4.32981 3.34924 4.57328 2.96266 4.7062C2.57608 4.83911 2.15898 4.85562 1.7631 4.75367C1.36722 4.65173 1.00997 4.43583 0.735674 4.13273C0.461374 3.82963 0.282093 3.45265 0.220051 3.04859C0.158009 2.64454 0.215935 2.23116 0.386662 1.85972C0.557389 1.48829 0.833409 1.17515 1.18046 0.95913C1.52752 0.743111 1.93034 0.633718 2.33899 0.644529C2.90272 0.67856 3.43067 0.932136 3.80962 1.35087C4.18856 1.76961 4.38834 2.32019 4.3661 2.8845Z" fill="#AF4C4C"/>
</svg>
