<svg width="106" height="19" viewBox="0 0 106 19" fill="none" xmlns="http://www.w3.org/2000/svg">
<path d="M102.943 18.0944C103.148 18.0702 103.351 18.033 103.552 17.9829C103.833 17.8933 104.093 17.7449 104.313 17.5475C104.533 17.35 104.709 17.1081 104.829 16.8376C104.988 16.4282 105.05 15.9878 105.011 15.5504C105.011 15.0538 105.011 14.5368 105.011 13.9389C105.011 12.7733 105.011 11.4252 105.011 9.88464V3.44857C105.059 2.9826 104.956 2.51345 104.717 2.11067C104.461 1.70513 104.07 1.40347 103.612 1.25929C103.108 1.16561 102.594 1.13497 102.082 1.16807H87.4969L3.01723 0.853875C2.56283 0.854948 2.12426 1.021 1.7831 1.32115C1.44193 1.6213 1.22138 2.03511 1.16243 2.48568C1.16243 3.49923 1.16243 4.51279 1.16243 5.52634C1.16243 7.55345 1.16243 9.58055 1.16243 11.6077C1.16243 12.6212 1.16243 13.6348 1.16243 14.6483C1.12469 15.1186 1.14511 15.5918 1.22324 16.0572C1.34462 16.4707 1.60623 16.8291 1.96313 17.0707C2.33519 17.3137 2.77678 17.4276 3.21994 17.395H7.62889L30.0588 17.5167L68.0366 17.7498L93.639 17.9525L100.602 18.0336H93.639H68.0366L30.0588 17.9221L7.62889 17.8309H3.21994C2.67128 17.8679 2.12585 17.7217 1.66921 17.4153C1.20801 17.0959 0.871426 16.6268 0.716465 16.0876C0.625621 15.5726 0.598388 15.0483 0.635378 14.5267C0.635378 13.5131 0.635378 12.4996 0.635378 11.486C0.635378 9.45893 0.635378 7.43183 0.635378 5.40472C0.635378 4.39117 0.635378 3.37763 0.635378 2.31339C0.707033 1.73469 0.987615 1.2021 1.42437 0.815737C1.86113 0.429376 2.42397 0.215855 3.00709 0.215332L87.4867 0.681558L102.072 0.793065C102.615 0.759747 103.16 0.797211 103.693 0.904541C104.22 1.0766 104.664 1.4377 104.94 1.91809C105.202 2.36452 105.316 2.8827 105.264 3.39787C105.264 3.87424 105.264 4.35063 105.264 4.80673C105.264 6.64126 105.264 8.32376 105.264 9.87449C105.264 11.4252 105.264 12.7327 105.264 13.9287C105.264 14.5064 105.264 15.0436 105.264 15.5403C105.303 15.9936 105.23 16.4495 105.052 16.868C104.92 17.1477 104.73 17.3957 104.494 17.5951C104.257 17.7945 103.981 17.9406 103.683 18.0235C103.446 18.1048 103.192 18.1291 102.943 18.0944Z" fill="#E0E0E0"/>
</svg>
