<svg width="5" height="6" viewBox="0 0 5 6" fill="none" xmlns="http://www.w3.org/2000/svg">
<path d="M4.89978 2.85417C4.91972 3.13992 4.88065 3.42668 4.78501 3.69668C4.68937 3.96668 4.5392 4.21412 4.34383 4.42359C4.14847 4.63307 3.9121 4.80011 3.64941 4.91431C3.38673 5.02852 3.10335 5.08747 2.81692 5.08747C2.53048 5.08747 2.2471 5.02852 1.98442 4.91431C1.72173 4.80011 1.48536 4.63307 1.29 4.42359C1.09464 4.21412 0.944467 3.96668 0.848827 3.69668C0.753186 3.42668 0.714127 3.13992 0.734072 2.85417C0.714127 2.56843 0.753186 2.28164 0.848827 2.01164C0.944467 1.74164 1.09464 1.4942 1.29 1.28473C1.48536 1.07525 1.72173 0.908211 1.98442 0.794002C2.2471 0.679794 2.53048 0.62085 2.81692 0.62085C3.10335 0.62085 3.38673 0.679794 3.64941 0.794002C3.9121 0.908211 4.14847 1.07525 4.34383 1.28473C4.5392 1.4942 4.68937 1.74164 4.78501 2.01164C4.88065 2.28164 4.91972 2.56843 4.89978 2.85417Z" fill="#AF4C4C"/>
</svg>
