<svg width="5" height="5" viewBox="0 0 5 5" fill="none" xmlns="http://www.w3.org/2000/svg">
<path d="M4.82253 2.91478C4.79262 3.32247 4.64368 3.71241 4.3942 4.03625C4.14471 4.36008 3.80566 4.60355 3.41908 4.73647C3.0325 4.86939 2.6154 4.88589 2.21952 4.78395C1.82364 4.682 1.46641 4.46611 1.19211 4.16301C0.917807 3.8599 0.738511 3.48296 0.676469 3.0789C0.614428 2.67484 0.672369 2.26143 0.843096 1.89C1.01382 1.51856 1.28983 1.20542 1.63688 0.989404C1.98394 0.773385 2.38678 0.663992 2.79543 0.674803C3.35915 0.708833 3.88709 0.962409 4.26603 1.38115C4.64498 1.79989 4.84477 2.35046 4.82253 2.91478Z" fill="#AF4C4C"/>
</svg>
