<svg width="46" height="46" viewBox="0 0 46 46" fill="none" xmlns="http://www.w3.org/2000/svg">
<path d="M45.3876 18.4284H43.5417V18.3333H22.9167V27.5H35.868C33.9785 32.8361 28.9014 36.6667 22.9167 36.6667C15.3232 36.6667 9.16667 30.5101 9.16667 22.9167C9.16667 15.3232 15.3232 9.16667 22.9167 9.16667C26.4218 9.16667 29.6106 10.489 32.0386 12.6489L38.5206 6.16687C34.4277 2.3524 28.9529 0 22.9167 0C10.2609 0 0 10.2609 0 22.9167C0 35.5724 10.2609 45.8333 22.9167 45.8333C35.5724 45.8333 45.8333 35.5724 45.8333 22.9167C45.8333 21.3801 45.6752 19.8802 45.3876 18.4284Z" fill="#FFC107"/>
</svg>
