<svg width="106" height="19" viewBox="0 0 106 19" fill="none" xmlns="http://www.w3.org/2000/svg">
<path d="M103.146 18.5757C103.351 18.5505 103.554 18.5133 103.754 18.4642C104.037 18.3741 104.298 18.2243 104.518 18.025C104.738 17.8257 104.913 17.5814 105.031 17.3087C105.191 16.8996 105.253 16.4589 105.214 16.0215C105.214 15.535 105.214 15.008 105.214 14.4201C105.214 13.2444 105.214 11.9065 105.214 10.3659V3.92984C105.262 3.46387 105.159 2.99472 104.92 2.59194C104.67 2.17887 104.277 1.87222 103.815 1.73043C103.31 1.64034 102.796 1.61311 102.285 1.64934H87.6996L3.21996 1.33515C2.76556 1.33622 2.327 1.50226 1.98584 1.80241C1.64467 2.10256 1.42411 2.5164 1.36516 2.96697C1.36516 3.92984 1.36516 4.99407 1.36516 6.00763C1.36516 8.03473 1.36516 10.0618 1.36516 12.0889C1.36516 13.1025 1.36516 14.1161 1.36516 15.1296C1.3274 15.6033 1.34782 16.0798 1.42597 16.5486C1.55252 16.9596 1.81298 17.3164 2.16586 17.5621C2.54026 17.7997 2.98005 17.9132 3.42267 17.8865H4.83151H7.76067L30.1906 17.998L68.1684 18.2311L93.7708 18.4338L100.734 18.5149H93.7708H68.1684L30.1703 18.4743L7.7404 18.3932H3.33145C2.78324 18.4257 2.23923 18.28 1.78072 17.9777C1.31952 17.6582 0.982937 17.1891 0.827976 16.6499C0.737133 16.1349 0.709899 15.6107 0.74689 15.0891C0.74689 14.0755 0.74689 13.0619 0.74689 12.0484C0.74689 10.0213 0.74689 7.99418 0.74689 5.96708C0.74689 4.95352 0.74689 3.93997 0.74689 2.92642C0.820846 2.34686 1.10349 1.81413 1.54191 1.42794C1.98034 1.04175 2.54449 0.8286 3.12875 0.828369L87.6084 1.29459L102.193 1.40609C102.737 1.37277 103.282 1.41025 103.815 1.51758C104.342 1.68964 104.786 2.05074 105.062 2.53113C105.324 2.97756 105.438 3.49576 105.386 4.01093C105.386 4.4873 105.386 4.95353 105.386 5.41976C105.386 7.25429 105.386 8.93679 105.386 10.4875C105.386 12.0383 105.386 13.3457 105.386 14.5417C105.386 15.1195 105.386 15.6566 105.386 16.1533C105.423 16.6065 105.35 17.062 105.173 17.481C105.042 17.7607 104.851 18.0087 104.615 18.2081C104.379 18.4075 104.103 18.5536 103.805 18.6365C103.583 18.6548 103.361 18.6342 103.146 18.5757Z" fill="#E0E0E0"/>
</svg>
